<?xml version="1.0" encoding="UTF-8"?>
<svg width="140px" height="99px" viewBox="0 0 140 99" version="1.1" xmlns="http://www.w3.org/2000/svg" xmlns:xlink="http://www.w3.org/1999/xlink">
    <!-- Generator: Sketch 42 (36781) - http://www.bohemiancoding.com/sketch -->
    <title>Airplane_C</title>
    <desc>Created with Sketch.</desc>
    <defs>
        <polygon id="path-1" points="27.3170732 0 0 0 0 98.3004878 54.6341463 98.3004878 54.6341463 0"></polygon>
        <polygon id="path-3" points="0 98.3004878 0 0 139.618244 0 139.618244 98.3004878"></polygon>
    </defs>
    <g id="D_Network_BK" stroke="none" stroke-width="1" fill="none" fill-rule="evenodd">
        <g id="Industry-Club" transform="translate(-1580.000000, -650.000000)">
            <g id="Airplane_C" transform="translate(1580.000000, 650.000000)">
                <g id="Group-4">
                    <mask id="mask-2" fill="white">
                        <use xlink:href="#path-1"></use>
                    </mask>
                    <g id="Clip-2"></g>
                    <polyline id="Fill-1" fill="#FFFFFF" mask="url(#mask-2)" points="34.4878049 66.9268293 23.2195122 66.9268293 23.2195122 57.0243902 28.6829268 52.7458537 28.6829268 45.5956098 23.2195122 41.3170732 23.2195122 31.4146341 34.4878049 31.4146341 38.7560976 39.6097561 54.6341463 39.6309268 52.2439024 24.5853659 47.804878 0 0 0 0 98.3414634 48.4878049 98.3414634 52.2439024 73.7560976 54.6341463 58.7105366 38.7560976 58.7317073 34.4878049 66.9268293"></polyline>
                    <polyline id="Fill-3" fill="#FFFFFF" mask="url(#mask-2)" points="0 73.7560976 0 98.3414634 48.4878049 98.3414634 52.2439024 73.7560976 0 73.7560976"></polyline>
                </g>
                <polyline id="Fill-5" fill="#FFFFFF" points="52.2439024 73.7560976 0 73.7560976 0 49.1707317 28.6829268 49.1707317 28.6829268 52.7458537 23.2195122 57.0243902 23.2195122 66.9268293 34.4878049 66.9268293 38.7560976 58.7317073 54.6341463 58.7105366 52.2439024 73.7560976"></polyline>
                <g id="Group-9">
                    <mask id="mask-4" fill="white">
                        <use xlink:href="#path-3"></use>
                    </mask>
                    <g id="Clip-7"></g>
                    <polyline id="Fill-6" fill="#FFFFFF" mask="url(#mask-4)" points="28.6829268 49.1707317 0 49.1707317 0 24.5853659 52.2439024 24.5853659 54.6341463 39.6309268 38.7560976 39.6097561 34.4878049 31.4146341 23.2195122 31.4146341 23.2195122 41.3170732 28.6829268 45.5956098 28.6829268 49.1707317"></polyline>
                    <path d="M127.269561,54.6341463 L109.346146,54.6341463 L107.297366,60.097561 L83.0056585,60.097561 L54.3227317,95.6097561 L50.0954146,95.6097561 L56.3599024,57.3658537 L37.7016585,57.3658537 L33.6402927,65.5609756 L24.5853659,65.5609756 L24.5853659,58.0146341 L30.4489756,53.2334634 L30.4489756,45.1059512 L24.5853659,40.3268293 L24.5853659,32.7804878 L33.6402927,32.7804878 L37.7016585,40.9756098 L56.3742439,40.9756098 L49.7682927,2.73170732 L54.3227317,2.73170732 L83.0056585,38.2432195 L107.297366,38.2527805 L109.346829,43.7073171 L127.269561,43.7073171 L134.918341,49.1707317 L127.269561,54.6341463 Z M60.8569756,95.6097561 L57.8343415,95.6097561 L84.3114146,62.8292683 L90.4857561,62.8292683 L60.8569756,95.6097561 Z M90.4878049,35.5149268 L84.3114146,35.5121951 L57.8343415,2.73170732 L60.8569756,2.73170732 L90.4878049,35.5149268 Z M128.145073,40.9756098 L111.238537,40.9756098 L109.190439,35.5217561 L108.243902,35.5210732 L107.94,35.5210732 L94.1680976,35.5121951 L62.0698537,0 L46.5243902,0 L53.1303415,38.2439024 L39.3966829,38.2439024 L35.3353171,30.0487805 L21.8536585,30.0487805 L21.8536585,41.6243902 L27.7172683,46.4035122 L27.7172683,51.9359024 L21.8536585,56.7170732 L21.8536585,68.2926829 L35.3353171,68.2926829 L39.3966829,60.097561 L53.144,60.097561 L46.8801951,98.3414634 L62.0698537,98.3414634 L94.1674146,62.8292683 L109.190439,62.8292683 L111.23922,57.3658537 L128.145073,57.3658537 L139.618244,49.1707317 L128.145073,40.9756098 L128.145073,40.9756098 Z" id="Fill-8" fill="#FFFFFF" mask="url(#mask-4)"></path>
                </g>
            </g>
        </g>
    </g>
</svg>