<?xml version="1.0" encoding="UTF-8"?>
<svg width="97px" height="130px" viewBox="0 0 97 130" version="1.1" xmlns="http://www.w3.org/2000/svg" xmlns:xlink="http://www.w3.org/1999/xlink">
    <!-- Generator: Sketch 42 (36781) - http://www.bohemiancoding.com/sketch -->
    <title>baker_C</title>
    <desc>Created with Sketch.</desc>
    <defs>
        <polygon id="path-1" points="0.0423913043 130 96.0869565 130 96.0869565 0.0282608696 0.0423913043 0.0282608696"></polygon>
    </defs>
    <g id="D_Network_BK" stroke="none" stroke-width="1" fill="none" fill-rule="evenodd">
        <g id="Industry-Club" transform="translate(-1602.000000, -452.000000)">
            <g id="baker_C" transform="translate(1602.000000, 452.000000)">
                <g id="Group-3">
                    <mask id="mask-2" fill="white">
                        <use xlink:href="#path-1"></use>
                    </mask>
                    <g id="Clip-2"></g>
                    <path d="M30.4602717,2.82608696 L34.2090761,6.28733696 C35.651087,7.61983696 36.7391304,10.1053804 36.7391304,12.0695109 L36.7391304,44.2374457 C36.7391304,46.02 36.0820652,48.6489674 35.2434239,50.2223913 L3.98972826,108.853804 C3.3701087,110.016033 2.82608696,112.191413 2.82608696,113.509076 L2.82608696,125.76087 C2.82608696,126.540163 3.45983696,127.173913 4.23913043,127.173913 L91.8478261,127.173913 C92.6271196,127.173913 93.2608696,126.540163 93.2608696,125.76087 L93.2608696,113.509076 C93.2608696,112.191413 92.7168478,110.016033 92.0979348,108.853804 L60.8435326,50.2223913 C60.0048913,48.6489674 59.3478261,46.02 59.3478261,44.2374457 L59.3478261,12.0695109 C59.3478261,10.0954891 60.4613043,7.61983696 61.9386413,6.3113587 L65.8683152,2.82608696 L30.4602717,2.82608696 Z M91.8478261,130 L4.23913043,130 C1.90125,130 0,128.09875 0,125.76087 L0,113.509076 C0,111.725815 0.657065217,109.097554 1.49570652,107.52413 L32.7494022,48.8927174 C33.3690217,47.7304891 33.9130435,45.5551087 33.9130435,44.2374457 L33.9130435,12.0695109 C33.9130435,10.9136413 33.1401087,9.14733696 32.2915761,8.36380435 L27.9655435,4.36842391 C26.6033696,3.11081522 26.7588043,2.00722826 26.9714674,1.46179348 C27.1855435,0.915652174 27.82,0 29.673913,0 L66.7663043,0 C68.6294022,0 69.2546739,0.916358696 69.4623913,1.4625 C69.6694022,2.0086413 69.8092935,3.10940217 68.4153261,4.3451087 L63.8130435,8.42597826 C62.9553261,9.18619565 62.173913,10.9228261 62.173913,12.0695109 L62.173913,44.2374457 C62.173913,45.5551087 62.7179348,47.7304891 63.3368478,48.8927174 L94.59125,107.52413 C95.4298913,109.097554 96.0869565,111.725815 96.0869565,113.509076 L96.0869565,125.76087 C96.0869565,128.09875 94.1857065,130 91.8478261,130 L91.8478261,130 Z" id="Fill-1" fill="#FFFFFF" mask="url(#mask-2)"></path>
                </g>
                <path d="M87.6086957,113.50625 L87.6086957,121.521739 L87.6086957,113.509076 L87.6086957,113.50625" id="Fill-4" fill="#FFFFFF"></path>
                <path d="M87.1035326,111.499022 L62.3159239,65 L33.7710326,65 L8.97777174,111.512446 C8.77570652,111.919402 8.49168478,113.055489 8.47826087,113.52462 L8.47826087,121.521739 L87.6086957,121.521739 L87.6086957,113.50625 C87.6086957,113.050543 87.31125,111.918696 87.1035326,111.499022" id="Fill-5" fill="#FFFFFF"></path>
                <polyline id="Fill-6" fill="#FFFFFF" points="33.7710326 65 28.2608696 75.3378261 28.2608696 121.521739 48.0434783 121.521739 48.0434783 65 33.7710326 65"></polyline>
                <polyline id="Fill-7" fill="#FFFFFF" points="62.3159239 65 48.0434783 65 48.0434783 121.521739 67.826087 121.521739 67.826087 75.336413 62.3159239 65"></polyline>
                <path d="M87.1035326,111.499022 L67.826087,75.336413 L67.826087,121.521739 L87.6086957,121.521739 L87.6086957,113.50625 C87.6086957,113.050543 87.31125,111.918696 87.1035326,111.499022" id="Fill-8" fill="#FFFFFF"></path>
            </g>
        </g>
    </g>
</svg>