<?xml version="1.0" encoding="UTF-8"?>
<svg width="109px" height="110px" viewBox="0 0 109 110" version="1.1" xmlns="http://www.w3.org/2000/svg" xmlns:xlink="http://www.w3.org/1999/xlink">
    <!-- Generator: Sketch 42 (36781) - http://www.bohemiancoding.com/sketch -->
    <title>BankBuilding_C_neg</title>
    <desc>Created with Sketch.</desc>
    <defs></defs>
    <g id="D_Network_BK" stroke="none" stroke-width="1" fill="none" fill-rule="evenodd">
        <g id="Industry-Club" transform="translate(-61.000000, -644.000000)" fill="#FFFFFF">
            <g id="BankBuilding_C_neg" transform="translate(61.000000, 644.000000)">
                <path d="M12.3467725,89.047619 L96.1562963,89.047619 L96.1562963,84.3915344 L12.3467725,84.3915344 L12.3467725,89.047619 Z M10.0187302,91.3756614 L98.4843386,91.3756614 L98.4843386,82.0634921 L10.0187302,82.0634921 L10.0187302,91.3756614 Z M9.56185185,26.1904762 L98.9417989,26.1904762 L54.2515344,3.05671958 L9.56185185,26.1904762 L9.56185185,26.1904762 Z M108.503651,28.5185185 L0,28.5185185 L54.2515344,0.435343915 L108.503651,28.5185185 L108.503651,28.5185185 Z M12.3467725,33.1746032 L96.1562963,33.1746032 L96.1562963,28.5185185 L12.3467725,28.5185185 L12.3467725,33.1746032 Z M10.0187302,35.5026455 L98.4843386,35.5026455 L98.4843386,26.1904762 L10.0187302,26.1904762 L10.0187302,35.5026455 Z M89.1721693,82.113545 L93.828254,82.113545 L93.828254,35.5026455 L89.1721693,35.5026455 L89.1721693,82.113545 Z M86.844127,84.4415873 L96.1562963,84.4415873 L96.1562963,33.1746032 L86.844127,33.1746032 L86.844127,84.4415873 Z M14.9658201,82.0634921 L19.6219048,82.0634921 L19.6219048,35.5026455 L14.9658201,35.5026455 L14.9658201,82.0634921 Z M12.6377778,84.3915344 L21.9499471,84.3915344 L21.9499471,33.1746032 L12.6377778,33.1746032 L12.6377778,84.3915344 Z M70.5478307,82.0634921 L75.2039153,82.0634921 L75.2039153,35.5026455 L70.5478307,35.5026455 L70.5478307,82.0634921 Z M68.2197884,84.3915344 L77.5319577,84.3915344 L77.5319577,33.1746032 L68.2197884,33.1746032 L68.2197884,84.3915344 Z M51.9234921,82.0634921 L56.5795767,82.0634921 L56.5795767,35.5026455 L51.9234921,35.5026455 L51.9234921,82.0634921 Z M49.5954497,84.3915344 L58.907619,84.3915344 L58.907619,33.1746032 L49.5954497,33.1746032 L49.5954497,84.3915344 Z M33.2991534,82.0634921 L37.9552381,82.0634921 L37.9552381,35.5026455 L33.2991534,35.5026455 L33.2991534,82.0634921 Z M30.9711111,84.3915344 L40.2832804,84.3915344 L40.2832804,33.1746032 L30.9711111,33.1746032 L30.9711111,84.3915344 Z" id="Fill-1"></path>
                <polygon id="Fill-2" points="0.706560847 110 107.796508 110 107.796508 91.3250265 0.706560847 91.3250265"></polygon>
                <polygon id="Fill-3" points="27.4790476 110 107.796508 110 107.796508 91.3250265 27.4790476 91.3250265"></polygon>
            </g>
        </g>
    </g>
</svg>