<?xml version="1.0" encoding="UTF-8"?>
<svg width="140px" height="140px" viewBox="0 0 140 140" version="1.1" xmlns="http://www.w3.org/2000/svg" xmlns:xlink="http://www.w3.org/1999/xlink">
    <!-- Generator: Sketch 42 (36781) - http://www.bohemiancoding.com/sketch -->
    <title>baseball_C</title>
    <desc>Created with Sketch.</desc>
    <defs>
        <polygon id="path-1" points="0.0456521739 140.030435 0.0456521739 0.0304347826 140 0.0304347826 140 140.030435"></polygon>
    </defs>
    <g id="D_Network_BK" stroke="none" stroke-width="1" fill="none" fill-rule="evenodd">
        <g id="Industry-Club" transform="translate(-1820.000000, -446.000000)">
            <g id="baseball_C" transform="translate(1820.000000, 446.000000)">
                <path d="M126.86587,110.822935 C118.3875,99.423587 113.369565,85.2980435 113.369565,70 C113.369565,54.7019565 118.3875,40.576413 126.86587,29.1763043 C121.768043,22.0880435 115.378261,15.9927174 108.040435,11.2327174 C95.1870652,27.3547826 87.5,47.7780435 87.5,70 C87.5,92.2219565 95.1870652,112.645217 108.040435,128.767283 C115.378261,124.007283 121.768043,117.911957 126.86587,110.822935" id="Fill-1" fill="#FFFFFF"></path>
                <path d="M113.369565,70 L87.5,70 C87.5,80.6126087 89.2568478,90.8128261 92.4890217,100.332826 L116.989783,92.0165217 C114.644022,85.1063043 113.369565,77.7022826 113.369565,70" id="Fill-2" fill="#FFFFFF"></path>
                <path d="M126.86587,29.1763043 C121.768043,22.0880435 115.378261,15.9927174 108.040435,11.2327174 C101.325,19.6547826 96.0247826,29.2531522 92.4890217,39.666413 L116.989783,47.9834783 C119.302065,41.1698913 122.656739,34.836413 126.86587,29.1763043" id="Fill-3" fill="#FFFFFF"></path>
                <g id="Group-7">
                    <mask id="mask-2" fill="white">
                        <use xlink:href="#path-1"></use>
                    </mask>
                    <g id="Clip-5"></g>
                    <path d="M116.989783,47.9834783 L92.4890217,39.666413 C89.2568478,49.186413 87.5,59.3873913 87.5,70 L113.369565,70 C113.369565,62.2977174 114.644022,54.8936957 116.989783,47.9834783" id="Fill-4" fill="#FFFFFF" mask="url(#mask-2)"></path>
                    <path d="M106.173261,126.352283 C103.676848,123.005978 101.411739,119.478587 99.3703261,115.811196 L96.0027174,117.610652 L94.5677174,114.927065 L97.9292391,113.130652 C96.046087,109.475435 94.401087,105.680217 93.001087,101.766304 L89.3938043,102.990543 L88.4153261,100.10913 L92.0226087,98.8848913 C90.7686957,94.983913 89.763587,90.9726087 89.0217391,86.8684783 L85.2546739,87.4901087 L84.758587,84.4869565 L88.5309783,83.8645652 C87.9359783,79.8273913 87.5973913,75.7080435 87.5311957,71.5217391 L83.6956522,71.5217391 L83.6956522,68.4782609 L87.5311957,68.4782609 C87.5973913,64.2919565 87.9359783,60.1733696 88.5309783,56.1354348 L84.758587,55.5130435 L85.2546739,52.5098913 L89.0217391,53.1315217 C89.763587,49.0273913 90.7686957,45.0168478 92.0226087,41.1151087 L88.4153261,39.8908696 L89.3938043,37.0094565 L93.001087,38.2336957 C94.401087,34.3197826 96.046087,30.5245652 97.9292391,26.8693478 L94.5677174,25.0729348 L96.0027174,22.3893478 L99.3703261,24.1895652 C101.411739,20.521413 103.676848,16.9940217 106.173261,13.6477174 C95.7409783,6.93684783 83.3251087,3.04347826 70,3.04347826 C56.6748913,3.04347826 44.2590217,6.93684783 33.8267391,13.6477174 C36.3231522,16.9940217 38.5882609,20.521413 40.6296739,24.1895652 L43.9972826,22.3893478 L45.4322826,25.0729348 L42.0707609,26.8693478 C43.953913,30.5245652 45.598913,34.3197826 46.998913,38.2336957 L50.6061957,37.0094565 L51.5846739,39.8908696 L47.9773913,41.1151087 C49.2313043,45.0168478 50.236413,49.0273913 50.9775,53.1315217 L54.7453261,52.5098913 L55.241413,55.5130435 L51.4690217,56.1354348 C52.0640217,60.1733696 52.4026087,64.2919565 52.4688043,68.4782609 L56.3043478,68.4782609 L56.3043478,71.5217391 L52.4688043,71.5217391 C52.4026087,75.7080435 52.0640217,79.8273913 51.4690217,83.8645652 L55.241413,84.4869565 L54.7453261,87.4901087 L50.9775,86.8684783 C50.236413,90.9726087 49.2313043,94.983913 47.9773913,98.8848913 L51.5846739,100.10913 L50.6061957,102.990543 L46.998913,101.766304 C45.598913,105.680217 43.953913,109.475435 42.0707609,113.130652 L45.4322826,114.927065 L43.9972826,117.610652 L40.6296739,115.811196 C38.5882609,119.478587 36.3231522,123.005978 33.8267391,126.352283 C44.2590217,133.063152 56.6748913,136.956522 70,136.956522 C83.3251087,136.956522 95.7409783,133.063152 106.173261,126.352283 Z M37.946087,114.376196 L34.5997826,112.588152 C35.093587,111.7025 35.5775,110.811522 36.0416304,109.906848 L39.3856522,111.694891 C41.1911957,108.185761 42.7707609,104.542717 44.1159783,100.787826 L40.5246739,99.5681522 C40.8670652,98.6155435 41.1919565,97.6545652 41.5016304,96.6867391 L45.0944565,97.906413 C46.2958696,94.1606522 47.261413,90.311413 47.9743478,86.3731522 L44.2346739,85.7553261 C44.4157609,84.7593478 44.5770652,83.7572826 44.7246739,82.7506522 L48.4658696,83.3677174 C49.0342391,79.4933696 49.3591304,75.5391304 49.4253261,71.5217391 L45.6331522,71.5217391 C45.6415217,71.015 45.6521739,70.5090217 45.6521739,70 C45.6521739,69.4909783 45.6415217,68.985 45.6331522,68.4782609 L49.4253261,68.4782609 C49.3591304,64.4608696 49.0342391,60.5073913 48.4658696,56.6315217 L44.7246739,57.2493478 C44.5770652,56.2427174 44.4157609,55.2406522 44.2346739,54.2454348 L47.9751087,53.6276087 C47.261413,49.688587 46.2958696,45.8393478 45.0944565,42.093587 L41.5016304,43.3132609 C41.1919565,42.3454348 40.8670652,41.3844565 40.5246739,40.431087 L44.1159783,39.2121739 C42.7707609,35.4565217 41.1911957,31.815 39.3856522,28.3051087 L36.0416304,30.0923913 C35.5775,29.1892391 35.093587,28.2975 34.5997826,27.4126087 L37.946087,25.6238043 C35.9533696,22.0484783 33.7422826,18.6116304 31.3036957,15.3528261 C14.2031522,27.4833696 3.04347826,47.4379348 3.04347826,70 C3.04347826,92.5613043 14.2031522,112.51663 31.3036957,124.647174 C33.7422826,121.38837 35.9533696,117.951522 37.946087,114.376196 Z M108.696304,124.647174 C109.305761,125.461304 109.931957,126.260217 110.567283,127.052283 C109.738696,127.642717 108.894891,128.21337 108.040435,128.767283 C97.0884783,135.871522 84.0266304,140 70,140 C55.9726087,140 42.9115217,135.871522 31.9595652,128.767283 C31.1051087,128.21337 30.2613043,127.642717 29.4327174,127.052283 C11.6184783,114.363261 0,93.5390217 0,70 C0,46.4617391 11.6184783,25.6367391 29.4327174,12.9477174 C30.2613043,12.3572826 31.1051087,11.7873913 31.9595652,11.2327174 C42.9115217,4.12847826 55.9726087,0 70,0 C84.0266304,0 97.0884783,4.12847826 108.040435,11.2327174 C108.894891,11.7873913 109.738696,12.3572826 110.567283,12.9477174 C109.931957,13.7397826 109.305761,14.5386957 108.696304,15.3528261 C106.257717,18.6116304 104.04663,22.0484783 102.053913,25.6238043 L105.400217,27.4126087 C104.906413,28.2975 104.4225,29.1892391 103.95837,30.0923913 L100.614348,28.3051087 C98.8088043,31.815 97.2292391,35.4565217 95.8840217,39.2121739 L99.4753261,40.431087 C99.1329348,41.3844565 98.8080435,42.3454348 98.4983696,43.3132609 L94.9055435,42.093587 C93.7041304,45.8393478 92.738587,49.688587 92.0248913,53.6276087 L95.7653261,54.2454348 C95.5842391,55.2406522 95.4229348,56.2427174 95.2753261,57.2493478 L91.5341304,56.6315217 C90.9657609,60.5073913 90.6408696,64.4608696 90.5746739,68.4782609 L94.3668478,68.4782609 C94.3584783,68.985 94.3478261,69.4909783 94.3478261,70 C94.3478261,70.5090217 94.3584783,71.015 94.3668478,71.5217391 L90.5746739,71.5217391 C90.6408696,75.5391304 90.9657609,79.4933696 91.5341304,83.3677174 L95.2753261,82.7506522 C95.4229348,83.7572826 95.5842391,84.7593478 95.7653261,85.7553261 L92.0248913,86.3731522 C92.738587,90.311413 93.7041304,94.1606522 94.9055435,97.906413 L98.4983696,96.6867391 C98.8080435,97.6545652 99.1329348,98.6155435 99.4753261,99.5681522 L95.8840217,100.787826 C97.2292391,104.542717 98.8088043,108.185761 100.614348,111.694891 L103.95837,109.906848 C104.4225,110.811522 104.906413,111.7025 105.400217,112.588152 L102.053913,114.376196 C104.04663,117.951522 106.257717,121.38837 108.696304,124.647174 Z M140,70 C140,85.2348913 135.130435,99.3322826 126.86587,110.823696 C126.222935,109.959348 125.607391,109.074457 125.005543,108.180435 C132.537391,97.3494565 136.956522,84.1917391 136.956522,70 C136.956522,55.8082609 132.537391,42.6505435 125.005543,31.8195652 C125.607391,30.9255435 126.222935,30.0406522 126.86587,29.1763043 C135.130435,40.6684783 140,54.7651087 140,70 L140,70 Z" id="Fill-6" fill="#FFFFFF" mask="url(#mask-2)"></path>
                </g>
            </g>
        </g>
    </g>
</svg>