<?xml version="1.0" encoding="UTF-8"?>
<svg width="136px" height="130px" viewBox="0 0 136 130" version="1.1" xmlns="http://www.w3.org/2000/svg" xmlns:xlink="http://www.w3.org/1999/xlink">
    <!-- Generator: Sketch 42 (36781) - http://www.bohemiancoding.com/sketch -->
    <title>bloodpreassure_C</title>
    <desc>Created with Sketch.</desc>
    <defs>
        <polygon id="path-1" points="9.71741792e-05 0.0282608696 135.704457 0.0282608696 135.704457 130 67.8522768 130 9.71741792e-05 130 9.71741792e-05 0.0282608696"></polygon>
    </defs>
    <g id="D_Network_BK" stroke="none" stroke-width="1" fill="none" fill-rule="evenodd">
        <g id="Industry-Club" transform="translate(-1582.000000, -39.000000)">
            <g id="bloodpreassure_C" transform="translate(1582.000000, 39.000000)">
                <path d="M108.85663,58.9945652 C103.003804,58.9945652 98.2588043,54.2495652 98.2588043,48.3967391 C98.2588043,42.543913 103.003804,37.798913 108.85663,37.798913 C114.709457,37.798913 119.454457,42.543913 119.454457,48.3967391 C119.454457,54.2495652 114.709457,58.9945652 108.85663,58.9945652 L108.85663,58.9945652 Z M87.6609783,65 L130.052283,65 L130.052283,31.0869565 L87.6609783,31.0869565 L87.6609783,65 Z" id="Fill-1" fill="#FFFFFF"></path>
                <polygon id="Fill-2" fill="#FFFFFF" points="87.6609783 65 98.2588043 65 98.2588043 31.0869565 87.6609783 31.0869565"></polygon>
                <path d="M98.2588043,48.3967391 L98.2588043,31.0869565 L108.85663,31.0869565 L108.85663,37.798913 C103.003804,37.798913 98.2588043,42.543913 98.2588043,48.3967391" id="Fill-3" fill="#FFFFFF"></path>
                <path d="M108.85663,65 L98.2588043,65 L98.2588043,48.3967391 C98.2588043,54.2495652 103.003804,58.9945652 108.85663,58.9945652 L108.85663,65" id="Fill-4" fill="#FFFFFF"></path>
                <path d="M119.454457,65 L108.85663,65 L108.85663,58.9945652 C114.709457,58.9945652 119.454457,54.2495652 119.454457,48.3967391 L119.454457,65" id="Fill-5" fill="#FFFFFF"></path>
                <g id="Group-9">
                    <mask id="mask-2" fill="white">
                        <use xlink:href="#path-1"></use>
                    </mask>
                    <g id="Clip-7"></g>
                    <path d="M119.454457,48.3967391 L119.454457,48.3967391 C119.454457,42.543913 114.709457,37.798913 108.85663,37.798913 L108.85663,31.0869565 L119.454457,31.0869565 L119.454457,48.3967391" id="Fill-6" fill="#FFFFFF" mask="url(#mask-2)"></path>
                    <path d="M90.4870652,70.6521739 L93.3131522,70.6521739 L93.3131522,65 L90.4870652,65 L90.4870652,70.6521739 Z M41.1732609,98.9130435 L93.3131522,98.9130435 L93.3131522,84.7826087 L90.4870652,84.7826087 L90.4870652,96.0869565 L41.9476087,96.0869565 L37.178587,93.2608696 L22.6609783,93.2608696 L22.6609783,96.0869565 L36.4042391,96.0869565 L41.1732609,98.9130435 Z M2.87836957,113.043478 L33.9653261,113.043478 L33.9653261,110.217391 L2.87836957,110.217391 L2.87836957,113.043478 Z M5.70445652,104.565217 L33.9653261,104.565217 L33.9653261,101.73913 L5.70445652,101.73913 L5.70445652,104.565217 Z M7.00657609,43.5620109 C10.8966848,47.4521196 16.0140217,48.9068478 18.1795109,46.7413587 C20.346413,44.575163 18.8902717,39.4585326 15.000163,35.5684239 C12.3372826,32.9055435 9.09858696,31.3829891 6.62576087,31.3829891 C5.4861413,31.3829891 4.50972826,31.7058696 3.82722826,32.3890761 C1.66032609,34.5552717 3.11646739,39.6719022 7.00657609,43.5620109 Z M108.85663,57.5815217 C113.920978,57.5815217 118.041413,53.4617935 118.041413,48.3967391 C118.041413,43.3323913 113.920978,39.2119565 108.85663,39.2119565 C103.792283,39.2119565 99.6718478,43.3323913 99.6718478,48.3967391 C99.6718478,53.4617935 103.792283,57.5815217 108.85663,57.5815217 Z M5.00853261,45.5600543 C-0.137065217,40.4158696 -1.53315217,33.752663 1.82918478,30.3910326 C5.1901087,27.0286957 11.8533152,28.4247826 16.9982065,33.5703804 C21.5255978,38.0963587 23.1463587,43.7972826 21.1808152,47.3913587 L46.5110326,72.7215761 C48.4532609,74.6638043 52.4140217,76.3043478 55.1609783,76.3043478 L103.204457,76.3043478 C105.542337,76.3043478 107.443587,74.4030978 107.443587,72.0652174 L107.443587,60.3171739 C101.485489,59.6141848 96.8457609,54.5406522 96.8457609,48.3967391 C96.8457609,41.7738043 102.233696,36.3858696 108.85663,36.3858696 C115.479565,36.3858696 120.8675,41.7738043 120.8675,48.3967391 C120.8675,54.5406522 116.227772,59.6141848 110.269674,60.3171739 L110.269674,72.0652174 C110.269674,75.9609783 107.100217,79.1304348 103.204457,79.1304348 L55.1609783,79.1304348 C51.6629891,79.1304348 46.9858152,77.1931522 44.5129891,74.7196196 L19.2696739,49.4763043 C18.1667935,50.2089674 16.8321739,50.5678804 15.3717935,50.5678804 C12.1225,50.5678804 8.26206522,48.813587 5.00853261,45.5600543 Z M5.70445652,121.521739 L33.9653261,121.521739 L33.9653261,118.695652 L5.70445652,118.695652 L5.70445652,121.521739 Z M132.87837,0 L132.87837,22.6086957 L84.8348913,22.6086957 L84.8348913,0 L82.0088043,0 L82.0088043,25.4347826 L90.4870652,25.4347826 L90.4870652,31.0869565 L93.3131522,31.0869565 L93.3131522,25.4347826 L124.400109,25.4347826 L124.400109,31.0869565 L127.226196,31.0869565 L127.226196,25.4347826 L135.704457,25.4347826 L135.704457,0 L132.87837,0 Z M124.400109,101.73913 C124.400109,112.64712 115.525489,121.521739 104.6175,121.521739 L48.2172826,121.521739 L42.5651087,127.173913 L14.1827174,127.173913 L14.1827174,130 L43.7351087,130 L49.3872826,124.347826 L104.6175,124.347826 C117.08337,124.347826 127.226196,114.205707 127.226196,101.73913 L127.226196,65 L124.400109,65 L124.400109,101.73913 Z M109.502391,49.3957609 L107.504348,47.3977174 L112.096739,42.8053261 L114.094783,44.8033696 L109.502391,49.3957609 L109.502391,49.3957609 Z" id="Fill-8" fill="#FFFFFF" mask="url(#mask-2)"></path>
                </g>
            </g>
        </g>
    </g>
</svg>