<?xml version="1.0" encoding="UTF-8"?>
<svg width="114px" height="130px" viewBox="0 0 114 130" version="1.1" xmlns="http://www.w3.org/2000/svg" xmlns:xlink="http://www.w3.org/1999/xlink">
    <!-- Generator: Sketch 42 (36781) - http://www.bohemiancoding.com/sketch -->
    <title>building_C</title>
    <desc>Created with Sketch.</desc>
    <defs>
        <polygon id="path-1" points="0.0423913043 130 113.043478 130 113.043478 0.0282608696 0.0423913043 0.0282608696"></polygon>
    </defs>
    <g id="D_Network_BK" stroke="none" stroke-width="1" fill="none" fill-rule="evenodd">
        <g id="Industry-Club" transform="translate(-1833.000000, -39.000000)">
            <g id="building_C" transform="translate(1833.000000, 39.000000)">
                <g id="Group-3">
                    <mask id="mask-2" fill="white">
                        <use xlink:href="#path-1"></use>
                    </mask>
                    <g id="Clip-2"></g>
                    <path d="M87.6086957,127.173913 L96.0869565,127.173913 L96.0869565,107.372935 L87.6086957,107.372935 L87.6086957,127.173913 Z M76.3043478,127.173913 L84.7826087,127.173913 L84.7826087,107.372935 L76.3043478,107.372935 L76.3043478,127.173913 Z M76.3043478,104.546848 L96.0869565,104.546848 L96.0869565,98.9130435 L76.3043478,98.9130435 L76.3043478,104.546848 Z M33.9130435,36.7391304 L33.9130435,11.3043478 L104.565217,11.3043478 L104.565217,127.173913 L98.9130435,127.173913 L98.9130435,96.0869565 L73.4782609,96.0869565 L73.4782609,127.173913 L67.826087,127.173913 L67.826087,36.7391304 L33.9130435,36.7391304 Z M31.0869565,127.173913 L25.4347826,127.173913 L25.4347826,84.7826087 L14.1304348,84.7826087 L14.1304348,127.173913 L8.47826087,127.173913 L8.47826087,39.5652174 L31.0869565,39.5652174 L31.0869565,127.173913 Z M16.9565217,127.173913 L22.6086957,127.173913 L22.6086957,107.391304 L16.9565217,107.391304 L16.9565217,127.173913 Z M16.9565217,104.565217 L22.6086957,104.565217 L22.6086957,98.9130435 L16.9565217,98.9130435 L16.9565217,104.565217 Z M16.9565217,96.0869565 L22.6086957,96.0869565 L22.6086957,87.6086957 L16.9565217,87.6086957 L16.9565217,96.0869565 Z M33.9130435,8.27195652 L39.5652174,8.27195652 L39.5652174,2.82608696 L33.9130435,2.82608696 L33.9130435,8.27195652 Z M107.391304,127.173913 L107.391304,8.47826087 L42.3913043,8.47826087 L42.3913043,0 L31.0869565,0 L31.0869565,36.7391304 L5.65217391,36.7391304 L5.65217391,127.173913 L0,127.173913 L0,130 L33.9130435,130 L33.9130435,39.5652174 L65,39.5652174 L65,130 L113.043478,130 L113.043478,127.173913 L107.391304,127.173913 Z M16.9565217,56.5217391 L22.6086957,56.5217391 L22.6086957,48.0434783 L16.9565217,48.0434783 L16.9565217,56.5217391 Z M14.1304348,59.3478261 L25.4347826,59.3478261 L25.4347826,45.2173913 L14.1304348,45.2173913 L14.1304348,59.3478261 Z M16.9565217,76.3043478 L22.6086957,76.3043478 L22.6086957,67.826087 L16.9565217,67.826087 L16.9565217,76.3043478 Z M14.1304348,79.1304348 L25.4347826,79.1304348 L25.4347826,65 L14.1304348,65 L14.1304348,79.1304348 Z M42.3913043,28.2608696 L96.0869565,28.2608696 L96.0869565,19.7826087 L42.3913043,19.7826087 L42.3913043,28.2608696 Z M39.5652174,31.0869565 L98.9130435,31.0869565 L98.9130435,16.9565217 L39.5652174,16.9565217 L39.5652174,31.0869565 Z M76.3043478,67.826087 L96.0869565,67.826087 L96.0869565,59.3478261 L76.3043478,59.3478261 L76.3043478,67.826087 Z M73.4782609,70.6521739 L98.9130435,70.6521739 L98.9130435,56.5217391 L73.4782609,56.5217391 L73.4782609,70.6521739 Z M76.3043478,48.0434783 L96.0869565,48.0434783 L96.0869565,39.5652174 L76.3043478,39.5652174 L76.3043478,48.0434783 Z M73.4782609,50.8695652 L98.9130435,50.8695652 L98.9130435,36.7391304 L73.4782609,36.7391304 L73.4782609,50.8695652 Z M76.3043478,87.6086957 L96.0869565,87.6086957 L96.0869565,79.1304348 L76.3043478,79.1304348 L76.3043478,87.6086957 Z M73.4782609,90.4347826 L98.9130435,90.4347826 L98.9130435,76.3043478 L73.4782609,76.3043478 L73.4782609,90.4347826 Z" id="Fill-1" fill="#FFFFFF" mask="url(#mask-2)"></path>
                </g>
                <polygon id="Fill-4" fill="#FFFFFF" points="39.5645109 130 59.3471196 130 59.3471196 45.2173913 39.5645109 45.2173913"></polygon>
                <polygon id="Fill-5" fill="#FFFFFF" points="39.5645109 108.804348 59.3471196 108.804348 59.3471196 45.2173913 39.5645109 45.2173913"></polygon>
            </g>
        </g>
    </g>
</svg>