<?xml version="1.0" encoding="UTF-8"?>
<svg width="128px" height="130px" viewBox="0 0 128 130" version="1.1" xmlns="http://www.w3.org/2000/svg" xmlns:xlink="http://www.w3.org/1999/xlink">
    <!-- Generator: Sketch 42 (36781) - http://www.bohemiancoding.com/sketch -->
    <title>cable_C</title>
    <desc>Created with Sketch.</desc>
    <defs>
        <polygon id="path-1" points="0.0361111111 129.963889 127.592593 129.963889 127.592593 0 0.0361111111 0"></polygon>
    </defs>
    <g id="D_Network_BK" stroke="none" stroke-width="1" fill="none" fill-rule="evenodd">
        <g id="Industry-Club" transform="translate(-1586.000000, -235.000000)">
            <g id="cable_C" transform="translate(1586.000000, 235.000000)">
                <polygon id="Fill-1" fill="#FFFFFF" points="89.0740741 77.037037 96.2962963 77.037037 96.2962963 21.6666667 89.0740741 21.6666667"></polygon>
                <polygon id="Fill-2" fill="#FFFFFF" points="89.0740741 63.1944444 96.2962963 63.1944444 96.2962963 21.6666667 89.0740741 21.6666667"></polygon>
                <g id="Group-5">
                    <mask id="mask-2" fill="white">
                        <use xlink:href="#path-1"></use>
                    </mask>
                    <g id="Clip-4"></g>
                    <path d="M125.185185,103.518519 L110.740741,103.518519 L110.740741,101.111111 L120.37037,101.111111 L120.37037,89.0740741 L110.740741,89.0740741 L110.740741,86.6666667 L125.185185,86.6666667 L125.185185,103.518519 Z M108.333333,98.7037037 L117.962963,98.7037037 L117.962963,91.4814815 L108.333333,91.4814815 L108.333333,98.7037037 Z M49.3518519,89.0740741 C44.7055556,89.0740741 40.9259259,85.2944444 40.9259259,80.6481481 C40.9259259,76.0018519 44.7055556,72.2222222 49.3518519,72.2222222 C53.9981481,72.2222222 57.7777778,76.0018519 57.7777778,80.6481481 C57.7777778,85.2944444 53.9981481,89.0740741 49.3518519,89.0740741 Z M49.3518519,98.7037037 C39.3960185,98.7037037 31.2962963,90.6039815 31.2962963,80.6481481 C31.2962963,70.6923148 39.3960185,62.5925926 49.3518519,62.5925926 C59.3076852,62.5925926 67.4074074,70.6923148 67.4074074,80.6481481 C67.4074074,83.5893981 66.6809722,86.4921296 65.3159722,89.0740741 L56.1461574,89.0740741 C58.6065278,87.0867593 60.1851852,84.0498148 60.1851852,80.6481481 C60.1851852,74.6747685 55.3252315,69.8148148 49.3518519,69.8148148 C43.3784722,69.8148148 38.5185185,74.6747685 38.5185185,80.6481481 C38.5185185,86.6215278 43.3784722,91.4814815 49.3518519,91.4814815 L105.925926,91.4814815 L105.925926,98.7037037 L49.3518519,98.7037037 Z M49.3518519,127.592593 C23.4662037,127.592593 2.40740741,106.533194 2.40740741,80.6481481 C2.40740741,54.7631019 23.4662037,33.7037037 49.3518519,33.7037037 C64.0990278,33.7037037 77.6978704,40.4306019 86.6666667,52.1606944 L86.6666667,67.0246296 C81.0953241,51.8116204 66.4709259,40.9259259 49.3518519,40.9259259 C27.4486574,40.9259259 9.62962963,58.7449537 9.62962963,80.6481481 C9.62962963,102.551343 27.4486574,120.37037 49.3518519,120.37037 C63.2552315,120.37037 76.2323611,113.006713 83.3980093,101.111111 L91.6120833,101.111111 C83.7880093,117.258194 67.4001852,127.592593 49.3518519,127.592593 Z M49.3518519,50.5555556 C32.7587963,50.5555556 19.2592593,64.0550926 19.2592593,80.6481481 C19.2592593,97.2412037 32.7587963,110.740741 49.3518519,110.740741 C57.7163889,110.740741 65.7174074,107.233148 71.4031019,101.111111 L80.5548611,101.111111 C73.6871296,111.555648 61.9221296,117.962963 49.3518519,117.962963 C28.7763426,117.962963 12.037037,101.223657 12.037037,80.6481481 C12.037037,60.0726389 28.7763426,43.3333333 49.3518519,43.3333333 C69.9273611,43.3333333 86.6666667,60.0726389 86.6666667,80.6481481 C86.6666667,83.4949074 86.3422685,86.3248148 85.7079167,89.0740741 L78.2461574,89.0740741 C79.0406019,86.3476852 79.4444444,83.5195833 79.4444444,80.6481481 C79.4444444,64.0550926 65.9449074,50.5555556 49.3518519,50.5555556 Z M75.7262037,89.0740741 L67.9948148,89.0740741 C69.1840741,86.4397685 69.8148148,83.5599074 69.8148148,80.6481481 C69.8148148,69.3646296 60.6353704,60.1851852 49.3518519,60.1851852 C38.0683333,60.1851852 28.8888889,69.3646296 28.8888889,80.6481481 C28.8888889,91.9316667 38.0683333,101.111111 49.3518519,101.111111 L67.994213,101.111111 C62.9206019,105.72912 56.2701389,108.333333 49.3518519,108.333333 C34.0864815,108.333333 21.6666667,95.9135185 21.6666667,80.6481481 C21.6666667,65.3827778 34.0864815,52.962963 49.3518519,52.962963 C64.6172222,52.962963 77.037037,65.3827778 77.037037,80.6481481 C77.037037,83.529213 76.5922685,86.3597222 75.7262037,89.0740741 Z M96.2962963,21.6666667 L96.2962963,80.6481481 C96.2962963,83.4810648 96.0272685,86.3067593 95.5265278,89.0740741 L88.1749074,89.0740741 C88.6648148,86.8044907 88.9555093,84.4873611 89.0427778,82.1527778 L89.0740741,82.1527778 L89.0740741,21.6666667 L96.2962963,21.6666667 Z M84.2592593,16.8518519 L84.2592593,2.40740741 L101.111111,2.40740741 L101.111111,16.8518519 L98.7037037,16.8518519 L98.7037037,7.22222222 L86.6666667,7.22222222 L86.6666667,16.8518519 L84.2592593,16.8518519 Z M89.0740741,19.2592593 L96.2962963,19.2592593 L96.2962963,9.62962963 L89.0740741,9.62962963 L89.0740741,19.2592593 Z M108.333333,84.2592593 L108.333333,89.0740741 L97.9730556,89.0740741 C98.3648611,86.7942593 98.5947685,84.4789352 98.6651852,82.1527778 L98.7037037,82.1527778 L98.7037037,19.2592593 L103.518519,19.2592593 L103.518519,0 L81.8518519,0 L81.8518519,19.2592593 L86.6666667,19.2592593 L86.6666667,48.3473611 C77.2747685,37.4743056 63.8414352,31.2962963 49.3518519,31.2962963 C22.1391204,31.2962963 0,53.4354167 0,80.6481481 C0,107.86088 22.1391204,130 49.3518519,130 C68.7122222,130 86.2501852,118.684583 94.2656481,101.111111 L108.333333,101.111111 L108.333333,105.925926 L127.592593,105.925926 L127.592593,84.2592593 L108.333333,84.2592593 L108.333333,84.2592593 Z" id="Fill-3" fill="#FFFFFF" mask="url(#mask-2)"></path>
                </g>
            </g>
        </g>
    </g>
</svg>