<?xml version="1.0" encoding="UTF-8"?>
<svg width="140px" height="81px" viewBox="0 0 140 81" version="1.1" xmlns="http://www.w3.org/2000/svg" xmlns:xlink="http://www.w3.org/1999/xlink">
    <!-- Generator: Sketch 42 (36781) - http://www.bohemiancoding.com/sketch -->
    <title>cap_C</title>
    <desc>Created with Sketch.</desc>
    <defs>
        <polygon id="path-1" points="0 20.7083333 0 0.0259259259 140 0.0259259259 140 20.7083333 140 41.3907407 0 41.3907407 0 20.7083333"></polygon>
    </defs>
    <g id="D_Network_BK" stroke="none" stroke-width="1" fill="none" fill-rule="evenodd">
        <g id="Industry-Club" transform="translate(-1820.000000, -259.000000)">
            <g id="cap_C" transform="translate(1820.000000, 259.000000)">
                <g id="Group-4">
                    <mask id="mask-2" fill="white">
                        <use xlink:href="#path-1"></use>
                    </mask>
                    <g id="Clip-2"></g>
                    <polyline id="Fill-1" fill="#FFFFFF" mask="url(#mask-2)" points="105 10.3703704 70 0.0907407407 35 10.3703704 0 20.7407407 35 31.1111111 70 41.3907407 105 31.1111111 140 20.7407407 105 10.3703704"></polyline>
                    <polyline id="Fill-3" fill="#FFFFFF" mask="url(#mask-2)" points="70 0.0226851852 35 10.3703704 105 10.3703704 70 0.0226851852"></polyline>
                </g>
                <polyline id="Fill-5" fill="#FFFFFF" points="105 10.3703704 35 10.3703704 0 20.7407407 140 20.7407407 105 10.3703704"></polyline>
                <polyline id="Fill-6" fill="#FFFFFF" points="140 20.7407407 0 20.7407407 35 31.1111111 105 31.1111111 140 20.7407407"></polyline>
                <path d="M128.308704,75.5066667 L124.37963,60.1812037 L124.37963,80.3703704 L121.787037,80.3703704 L121.787037,60.1825 L117.857315,75.5066667 L115.345741,74.8630556 L121.653519,50.2625926 L95.8611111,21.9385185 L70,21.9385185 L70,19.3459259 L96.4334259,19.3459259 C96.7983333,19.3459259 97.1463889,19.499537 97.392037,19.7691667 L124.041296,49.0343519 C124.184537,49.1912037 124.286296,49.380463 124.338796,49.5852778 L130.820278,74.8630556 L128.308704,75.5066667 Z M36.5685185,67.4074074 L39.2285185,59.6296296 L100.77213,59.6296296 L103.431481,67.4074074 L36.5685185,67.4074074 Z M98.1121296,51.8518519 L99.885463,57.037037 L40.1151852,57.037037 L41.8878704,51.8518519 L98.1121296,51.8518519 Z M92.2697222,34.7673148 L97.225463,49.2592593 L42.774537,49.2592593 L47.7302778,34.7673148 L45.277037,33.9292593 L32.9414815,70 L107.058519,70 L94.7236111,33.9292593 L92.2697222,34.7673148 L92.2697222,34.7673148 Z" id="Fill-7" fill="#FFFFFF"></path>
            </g>
        </g>
    </g>
</svg>