<?xml version="1.0" encoding="UTF-8"?>
<svg width="140px" height="84px" viewBox="0 0 140 84" version="1.1" xmlns="http://www.w3.org/2000/svg" xmlns:xlink="http://www.w3.org/1999/xlink">
    <!-- Generator: Sketch 42 (36781) - http://www.bohemiancoding.com/sketch -->
    <title>car_C</title>
    <desc>Created with Sketch.</desc>
    <defs>
        <polygon id="path-1" points="139.660383 22.7885167 139.660383 0.0267942584 0 0.0267942584 0 22.7885167 0 45.5502392 139.660383 45.5502392 139.660383 22.7885167"></polygon>
    </defs>
    <g id="D_Network_BK" stroke="none" stroke-width="1" fill="none" fill-rule="evenodd">
        <g id="Industry-Club" transform="translate(-1820.000000, -657.000000)">
            <g id="car_C" transform="translate(1820.000000, 657.000000)">
                <polygon id="Fill-1" fill="#FFFFFF" points="5.35952153 83.062201 128.61311 83.062201 128.61311 45.5502392 5.35952153 45.5502392"></polygon>
                <polygon id="Fill-2" fill="#FFFFFF" points="36.1729187 83.062201 128.61311 83.062201 128.61311 45.5502392 36.1729187 45.5502392"></polygon>
                <g id="Group-5">
                    <mask id="mask-2" fill="white">
                        <use xlink:href="#path-1"></use>
                    </mask>
                    <g id="Clip-4"></g>
                    <path d="M109.856459,42.8708134 C106.901722,42.8708134 104.497608,40.4666986 104.497608,37.5119617 C104.497608,34.5572249 106.901722,32.15311 109.856459,32.15311 C112.811196,32.15311 115.215311,34.5572249 115.215311,37.5119617 C115.215311,40.4666986 112.811196,42.8708134 109.856459,42.8708134 Z M118.702584,24.1148325 L134.558756,24.1148325 L136.320478,32.15311 L125.002584,32.15311 C123.816268,28.8018182 121.56622,26.0091866 118.702584,24.1148325 Z M94.4296651,32.15311 L39.2649761,32.15311 C38.0572249,28.7984689 35.7857416,26.0098565 32.9207656,24.1148325 L42.8708134,24.1148325 L42.8708134,21.4354067 L2.67942584,21.4354067 L2.67942584,18.7559809 C2.67942584,17.2782775 3.88114833,16.076555 5.35885167,16.076555 L92.978756,16.076555 L131.175981,18.7512919 C132.95244,18.9053589 133.971292,19.8840191 133.971292,21.4354067 L66.9856459,21.4354067 L66.9856459,24.1148325 L100.958086,24.1148325 C98.0013397,26.0239234 95.6441148,28.8286124 94.4296651,32.15311 Z M8.38593301,32.15311 L2.67942584,32.15311 L2.67942584,24.1148325 L14.9712919,24.1148325 C11.9562679,26.0232536 9.58564593,28.8326316 8.38593301,32.15311 Z M39.9589474,5.54440191 C42.1326316,3.99167464 46.2274641,2.67942584 48.8995215,2.67942584 L50.9090909,2.67942584 L50.9090909,13.3984689 L28.9639234,13.3984689 L39.9589474,5.54440191 Z M65.645933,2.67942584 C68.348134,2.67942584 72.5836364,3.86172249 74.8946411,5.26105263 L88.3359809,13.4004785 L53.5885167,13.3991388 L53.5885167,2.67942584 L65.645933,2.67942584 Z M24.1148325,32.15311 C27.0695694,32.15311 29.4736842,34.5572249 29.4736842,37.5119617 C29.4736842,40.4666986 27.0695694,42.8708134 24.1148325,42.8708134 C21.1600957,42.8708134 18.7559809,40.4666986 18.7559809,37.5119617 C18.7559809,34.5572249 21.1600957,32.15311 24.1148325,32.15311 Z M139.660383,34.8325359 L136.648708,21.28 C136.578373,18.3875598 134.536651,16.3538756 131.385646,16.0799043 L93.5608612,13.4312919 L76.2825837,2.96947368 C73.532823,1.30421053 68.8605742,0 65.645933,0 L48.8995215,0 C45.654067,0 41.0427751,1.47770335 38.4015311,3.36401914 L24.3539713,13.397799 L5.35885167,13.3971292 C2.40411483,13.3971292 0,15.801244 0,18.7559809 L0,34.8325359 L16.5454545,34.8325359 C16.2473684,35.671866 16.076555,36.5714833 16.076555,37.5119617 C16.076555,41.9444019 19.6823923,45.5502392 24.1148325,45.5502392 C28.5472727,45.5502392 32.15311,41.9444019 32.15311,37.5119617 C32.15311,33.0795215 28.5472727,29.4736842 24.1148325,29.4736842 C21.7133971,29.4736842 19.5604785,30.5380861 18.0861244,32.2127273 L18.0861244,32.15311 L11.2830622,32.15311 C13.4466986,27.4708134 18.6488038,24.1148325 24.1148325,24.1148325 C30.0377033,24.1148325 35.3389474,28.1245933 37.0055502,33.8666029 L37.2862201,34.8325359 L96.4057416,34.8325359 L96.6864115,33.8666029 C98.32689,28.2163636 103.865933,24.1148325 109.856459,24.1148325 C115.209282,24.1148325 120.016842,27.3462201 122.122871,32.15311 L115.830909,32.15311 C114.357895,30.5133014 112.229091,29.4736842 109.856459,29.4736842 C105.424019,29.4736842 101.818182,33.0795215 101.818182,37.5119617 C101.818182,41.9444019 105.424019,45.5502392 109.856459,45.5502392 C114.2889,45.5502392 117.894737,41.9444019 117.894737,37.5119617 C117.894737,36.5714833 117.723923,35.671866 117.425837,34.8325359 L139.660383,34.8325359 L139.660383,34.8325359 Z" id="Fill-3" fill="#FFFFFF" mask="url(#mask-2)"></path>
                </g>
            </g>
        </g>
    </g>
</svg>