<?xml version="1.0" encoding="UTF-8"?>
<svg width="116px" height="120px" viewBox="0 0 116 120" version="1.1" xmlns="http://www.w3.org/2000/svg" xmlns:xlink="http://www.w3.org/1999/xlink">
    <!-- Generator: Sketch 42 (36781) - http://www.bohemiancoding.com/sketch -->
    <title>chain_C</title>
    <desc>Created with Sketch.</desc>
    <defs>
        <polygon id="path-1" points="0 119.96682 115.067834 119.96682 115.067834 0.13437788 0 0.13437788"></polygon>
    </defs>
    <g id="D_Network_BK" stroke="none" stroke-width="1" fill="none" fill-rule="evenodd">
        <g id="Industry-Club" transform="translate(-58.000000, -834.000000)">
            <g id="chain_C" transform="translate(58.000000, 834.000000)">
                <g id="Group-3">
                    <mask id="mask-2" fill="white">
                        <use xlink:href="#path-1"></use>
                    </mask>
                    <g id="Clip-2"></g>
                    <path d="M108.647005,26.881106 L88.7341935,46.79447 C87.3953917,48.1327189 85.800553,49.1889401 84.0658065,49.9083871 C84.0447926,48.3163134 83.8036866,46.7601843 83.3513364,45.2759447 C84.1780645,44.8235945 84.9362212,44.2567742 85.6125346,43.5815668 L91.0152995,38.1782488 L92.6278341,36.6094009 L105.477788,23.759447 C109.356498,19.8807373 109.355945,13.5688479 105.476129,9.68903226 C101.596313,5.80921659 95.283871,5.80866359 91.4062673,9.68626728 L71.5399078,29.5089401 C67.6611982,33.3876498 67.6617512,39.7000922 71.5415668,43.5793548 L72.95447,44.7273733 C74.4403687,46.2348387 75.1808295,48.2051613 75.1769585,50.1738249 C75.1769585,50.284977 75.1664516,50.395576 75.1614747,50.5072811 C75.1603687,50.5343779 75.1587097,50.5620276 75.1570507,50.5896774 C72.603318,49.9692166 70.2829493,48.6707834 68.403871,46.7911521 C65.6881106,44.0753917 64.1922581,40.4648848 64.1917051,36.6248848 C64.1911521,32.7854378 65.6853456,29.1754839 68.400553,26.4608295 L88.3133641,6.54746544 C93.9179724,0.943410138 103.038525,0.94562212 108.64424,6.55078341 C111.359447,9.26654378 112.8553,12.8770507 112.855853,16.7170507 C112.856406,20.5564977 111.362212,24.1664516 108.647005,26.881106 Z M79.2110599,38.403871 C77.0068203,36.1990783 74.283871,34.6894009 71.282765,33.9870968 C71.6532719,32.9231336 72.2543779,31.922212 73.1032258,31.0733641 L92.9690323,11.2512442 C95.9856221,8.23520737 100.894562,8.23576037 103.911705,11.2529032 C106.928848,14.2705991 106.929954,19.1789862 103.913917,22.195576 L91.07447,35.035023 L89.4619355,36.603318 L84.0481106,42.0171429 C83.5946544,42.4705991 83.0903226,42.8549309 82.5489401,43.1795392 C81.7382488,41.4259908 80.6178802,39.8101382 79.2110599,38.403871 Z M77.6505069,60.2980645 L57.7371429,80.2114286 C56.4088479,81.5402765 54.8272811,82.5915207 53.1063594,83.3104147 C53.0908756,81.7437788 52.8569585,80.1799078 52.4018433,78.6680184 C53.2103226,78.2200922 53.9524424,77.6610138 54.6154839,76.9979724 L54.6652535,76.9487558 L54.6729954,76.9570507 L60.0757604,71.5542857 L61.6888479,69.9854378 L74.4801843,57.1935484 C76.4195392,55.2541935 77.3889401,52.7065438 77.3889401,50.158894 C77.3928111,47.6051613 76.4234101,45.0503226 74.4790783,43.1059908 L74.4696774,43.1153917 L73.0656221,41.9751152 C71.4862673,40.3725346 70.7568664,38.2479263 70.8602765,36.1570507 C73.4278341,36.7736406 75.7564977,38.0770507 77.6471889,39.9677419 C80.3629493,42.6835023 81.8588018,46.2934562 81.8593548,50.1334562 C81.8599078,53.9734562 80.3651613,57.5828571 77.6505069,60.2980645 Z M46.6976959,93.6359447 L26.7467281,113.586912 C21.1426728,119.191521 12.0221198,119.189862 6.41640553,113.583594 C0.810691244,107.977327 0.809032258,98.8573272 6.41308756,93.2532719 L26.3635023,73.3023041 C27.6923502,71.9740092 29.27447,70.922765 30.9948387,70.203318 C31.0097696,71.7660829 31.2425806,73.3266359 31.6954839,74.8352074 C30.8604608,75.2897696 30.0929032,75.8565899 29.4121659,76.5367742 L9.60442396,96.3013825 C5.72571429,100.180092 5.72626728,106.491982 9.60608295,110.371797 C11.5465438,112.312258 14.0947465,113.282212 16.6429493,113.282212 C19.1905991,113.282212 21.7376959,112.312811 23.6770507,110.373456 L29.0798157,104.970691 L30.6923502,103.401843 L43.4836866,90.6105069 C47.3629493,86.7317972 47.3618433,80.4193548 43.4820276,76.5400922 L42.122212,75.4352074 L42.1670046,75.3909677 C40.5528111,73.7767742 39.8101382,71.6211982 39.9229493,69.5037788 C42.482765,70.1209217 44.8042396,71.4165899 46.6938249,73.3061751 C52.2995392,78.9118894 52.3011982,88.0318894 46.6976959,93.6359447 Z M35.8435023,81.7719816 C38.0333641,83.9623963 40.7430415,85.4665438 43.7264516,86.1743779 C43.3537327,87.2228571 42.7576037,88.2088479 41.9198157,89.0460829 L29.1389862,101.827465 L27.5264516,103.396313 L22.1126267,108.809585 C19.0960369,111.825622 14.1876498,111.825069 11.1699539,108.807926 C9.7083871,107.345806 8.90322581,105.403134 8.90322581,103.336037 C8.90267281,101.269493 9.70728111,99.3262673 11.1671889,97.8663594 L30.9754839,78.1017512 C31.4317051,77.6460829 31.9393548,77.2578802 32.4840553,76.9321659 C33.2836866,78.6868203 34.4018433,80.3303226 35.8435023,81.7719816 Z M37.4040553,59.877788 L57.3174194,39.964424 C58.6551152,38.6267281 60.2499539,37.5699539 61.9852535,36.8505069 C62.0062673,38.4215668 62.2412903,39.957235 62.6820276,41.4237788 C61.8547465,41.875023 61.0938249,42.4379724 60.4180645,43.1115207 L60.4097696,43.1026728 L40.5434101,62.9258986 C36.6641475,66.8046083 36.6652535,73.1164977 40.5450691,76.9963134 L41.9579724,78.1443318 C43.5483871,79.7579724 44.277235,81.9019355 44.161106,84.0066359 C41.6068203,83.3861751 39.2870046,82.0877419 37.4073733,80.2081106 C31.801106,74.6018433 31.8,65.4818433 37.4040553,59.877788 Z M72.9174194,55.6125346 L60.0779724,68.4514286 L58.4654378,70.0208295 L53.0516129,75.4341014 C52.6136406,75.8720737 52.1275576,76.2442396 51.6077419,76.561659 C50.8097696,74.8147465 49.6938249,73.1784332 48.2576959,71.7417512 C46.0556682,69.5397235 43.3454378,68.0339171 40.3548387,67.3305069 C40.7270046,66.2787097 41.3242396,65.2894009 42.1642396,64.4494009 L61.9719816,44.6853456 C62.4265438,44.2302304 62.9319816,43.8436866 63.475576,43.5185253 C64.2879263,45.2952995 65.4171429,46.9321659 66.84,48.355023 C69.0287558,50.5443318 71.7367742,52.0479263 74.7179724,52.7563134 C74.3452535,53.7987097 73.7502304,54.7791705 72.9174194,55.6125346 Z M110.208111,4.98691244 C103.739724,-1.48147465 93.2162212,-1.48368664 86.7494931,4.98359447 L66.836129,24.8969585 C64.2259908,27.5070968 62.5974194,30.835023 62.1257143,34.435576 C59.7406452,35.2490323 57.5469124,36.6066359 55.7529954,38.400553 L35.8401843,58.3139171 C33.1813825,60.9721659 31.6186175,64.316129 31.1463594,67.7823041 C28.7712442,68.5968664 26.5869124,69.9511521 24.7996313,71.7384332 L4.84921659,91.6894009 C-1.61751152,98.156129 -1.61640553,108.679078 4.85253456,115.147465 C8.08700461,118.382488 12.3356682,120 16.5843318,120 C20.8313364,120 25.078341,118.383594 28.3105991,115.150783 L48.2615668,95.1998157 C50.9198157,92.5415668 52.4825806,89.1976037 52.9542857,85.7314286 C55.3299539,84.9168664 57.5142857,83.5625806 59.3015668,81.7752995 L79.2143779,61.8619355 C81.8245161,59.2517972 83.4530876,55.923318 83.9247926,52.323318 C86.3104147,51.5098618 88.5035945,50.1522581 90.2980645,48.358341 L110.211429,28.444977 C113.344147,25.3122581 115.06894,21.1470968 115.067834,16.7164977 C115.067281,12.2858986 113.341382,8.12018433 110.208111,4.98691244 L110.208111,4.98691244 Z" id="Fill-1" fill="#FFFFFF" mask="url(#mask-2)"></path>
                </g>
                <polyline id="Fill-4" fill="#FFFFFF" points="24.4064516 72.1321659 30.6630415 78.3882028 11.8932719 97.1574194 5.63723502 90.9008295 24.4064516 72.1321659"></polyline>
                <polyline id="Fill-5" fill="#FFFFFF" points="21.2781567 87.7730876 15.0215668 81.5164977 10.3294009 86.2086636 16.5859908 92.4652535 30.6630415 78.3882028 21.2781567 87.7730876"></polyline>
                <polyline id="Fill-6" fill="#FFFFFF" points="19.7142857 76.8237788 15.0215668 81.5164977 21.2781567 87.7730876 25.9708756 83.0803687 19.7142857 76.8237788"></polyline>
                <polyline id="Fill-7" fill="#FFFFFF" points="24.4064516 72.1321659 30.6630415 78.3882028 25.9708756 83.0803687 19.7142857 76.8243318 24.4064516 72.1321659"></polyline>
            </g>
        </g>
    </g>
</svg>