<?xml version="1.0" encoding="UTF-8"?>
<svg width="120px" height="120px" viewBox="0 0 120 120" version="1.1" xmlns="http://www.w3.org/2000/svg" xmlns:xlink="http://www.w3.org/1999/xlink">
    <!-- Generator: Sketch 42 (36781) - http://www.bohemiancoding.com/sketch -->
    <title>Chemicaplant_C</title>
    <desc>Created with Sketch.</desc>
    <defs>
        <polygon id="path-1" points="0.0421052632 120 119.068772 120 119.068772 0.546666667 0.0421052632 0.546666667"></polygon>
    </defs>
    <g id="D_Network_BK" stroke="none" stroke-width="1" fill="none" fill-rule="evenodd">
        <g id="Industry-Club" transform="translate(-1074.000000, -834.000000)">
            <g id="Chemicaplant_C" transform="translate(1074.000000, 834.000000)">
                <g id="Group-3">
                    <mask id="mask-2" fill="white">
                        <use xlink:href="#path-1"></use>
                    </mask>
                    <g id="Clip-2"></g>
                    <path d="M32.1052632,109.978947 L32.1052632,117.192982 L119.067368,117.192982 L119.067368,120 L29.2982456,120 L29.2982456,107.168421 L116.261754,107.168421 L116.261754,99.954386 L29.2989474,99.954386 L29.2989474,97.1473684 L119.068772,97.1473684 L119.068772,109.978947 L32.1052632,109.978947 Z M106.941754,73.6870175 L82.8477193,73.6870175 L82.8477193,70.88 L104.134737,70.88 L104.134737,65.2659649 L82.8477193,65.2659649 L82.8477193,62.4589474 L106.941754,62.4589474 L106.941754,73.6870175 Z M42.1375439,62.4589474 L66.2315789,62.4589474 L66.2315789,65.2659649 L44.9445614,65.2659649 L44.9445614,70.88 L66.2315789,70.88 L66.2315789,73.6870175 L42.1375439,73.6870175 L42.1375439,62.4589474 Z M39.6203509,56.8442105 L41.8315789,0.546666667 L52.9515789,0.546666667 L55.162807,56.8442105 L52.354386,56.8442105 L50.2526316,3.35368421 L44.5305263,3.35368421 L42.4294737,56.8442105 L39.6203509,56.8442105 Z M9.11719298,107.16 L14.7312281,107.16 L14.7312281,74.2091228 L9.11719298,74.2091228 L9.11719298,107.16 Z M9.11719298,71.4021053 L14.7312281,71.4021053 L14.7312281,61.5614035 L9.11719298,61.5614035 L9.11719298,71.4021053 Z M9.11719298,58.7550877 L14.7312281,58.7550877 L14.7312281,46.5838596 L9.11719298,46.5838596 L9.11719298,58.7550877 Z M9.11719298,43.7761404 L14.7312281,43.7761404 L14.7312281,26.5887719 L9.11719298,26.5887719 L9.11719298,43.7761404 Z M9.11719298,23.7817544 L14.7312281,23.7817544 L14.7312281,18.1122807 L9.11719298,18.1122807 L9.11719298,23.7817544 Z M17.5382456,107.165614 L17.5382456,74.2091228 L19.5670175,74.2091228 L19.5670175,71.4021053 L17.5382456,71.4021053 L17.5382456,61.5614035 L19.5670175,61.5614035 L19.5670175,58.754386 L17.5382456,58.754386 L17.5382456,46.5838596 L19.5670175,46.5838596 L19.5670175,43.7768421 L17.5382456,43.7768421 L17.5382456,26.5887719 L19.5670175,26.5887719 L19.5670175,23.7817544 L17.5382456,23.7817544 L17.5382456,15.3052632 L6.31017544,15.3052632 L6.31017544,23.7817544 L4.28140351,23.7817544 L4.28140351,26.5887719 L6.31017544,26.5887719 L6.31017544,43.7768421 L4.28140351,43.7768421 L4.28140351,46.5838596 L6.31017544,46.5838596 L6.31017544,58.754386 L4.28140351,58.754386 L4.28140351,61.5614035 L6.31017544,61.5614035 L6.31017544,71.4021053 L4.28140351,71.4021053 L4.28140351,74.2091228 L6.31017544,74.2091228 L6.31017544,107.165614 L0,107.165614 L0,109.972632 L20.8778947,109.972632 L20.8778947,117.192982 L0,117.192982 L0,120 L23.6849123,120 L23.6849123,107.165614 L17.5382456,107.165614 Z M75.9424561,43.7761404 L81.5564912,43.7761404 L81.5564912,26.5887719 L75.9424561,26.5887719 L75.9424561,43.7761404 Z M75.9424561,23.7817544 L81.5564912,23.7817544 L81.5564912,18.1122807 L75.9424561,18.1122807 L75.9424561,23.7817544 Z M86.3915789,26.5887719 L86.3915789,23.7817544 L84.3635088,23.7817544 L84.3635088,15.3052632 L73.1354386,15.3052632 L73.1354386,23.7817544 L71.1059649,23.7817544 L71.1059649,26.5887719 L73.1354386,26.5887719 L73.1354386,43.7768421 L71.1059649,43.7768421 L71.1059649,46.5838596 L73.1354386,46.5838596 L73.1354386,58.754386 L71.1059649,58.754386 L71.1059649,61.5614035 L73.1354386,61.5614035 L73.1354386,70.8814035 L75.9424561,70.8814035 L75.9424561,61.5614035 L77.9761404,61.5614035 L77.9761404,58.754386 L75.9424561,58.754386 L75.9424561,46.5838596 L81.5564912,46.5838596 L81.5564912,56.8491228 L84.3635088,56.8491228 L84.3635088,46.5838596 L86.3915789,46.5838596 L86.3915789,43.7768421 L84.3635088,43.7768421 L84.3635088,26.5887719 L86.3915789,26.5887719 L86.3915789,26.5887719 Z" id="Fill-1" fill="#FFFFFF" mask="url(#mask-2)"></path>
                </g>
                <path d="M74.5284211,90.805614 C74.5340351,90.6463158 74.5375439,90.485614 74.5389474,90.3249123 C74.5410526,90.485614 74.5445614,90.6463158 74.5494737,90.805614 L74.5284211,90.805614 Z M106.964912,73.6870175 L82.8378947,73.6870175 C82.5263158,73.9164912 82.2210526,74.1550877 81.922807,74.4021053 C81.7087719,74.5796491 81.5024561,74.7663158 81.2954386,74.9522807 C81.2147368,75.0245614 81.1298246,75.0933333 81.0505263,75.1670175 C80.8189474,75.3824561 80.5957895,75.605614 80.3740351,75.8315789 C80.3249123,75.8814035 80.2729825,75.9284211 80.2245614,75.9789474 C79.9908772,76.2217544 79.765614,76.4722807 79.5445614,76.7270175 C79.5122807,76.7635088 79.477193,76.7985965 79.445614,76.8357895 C79.2189474,77.1003509 79.0007018,77.3719298 78.7873684,77.6477193 C78.7642105,77.6778947 78.7389474,77.7059649 78.7157895,77.7368421 C78.4975439,78.0217544 78.2884211,78.3136842 78.085614,78.6105263 C78.0694737,78.6336842 78.0533333,78.6554386 78.037193,78.6778947 C77.8329825,78.9796491 77.637193,79.2877193 77.4491228,79.6007018 C77.437193,79.6203509 77.4238596,79.6392982 77.4119298,79.6582456 C77.2210526,79.9775439 77.0407018,80.3024561 76.8666667,80.6322807 C76.8589474,80.6470175 76.8505263,80.6610526 76.842807,80.6757895 C76.6694737,81.0077193 76.5059649,81.3452632 76.3508772,81.6870175 C76.3438596,81.7010526 76.3368421,81.714386 76.3305263,81.7284211 C76.1754386,82.0715789 76.0315789,82.4203509 75.8947368,82.7733333 C75.8898246,82.7866667 75.8835088,82.8 75.8778947,82.8140351 C75.7445614,83.1642105 75.6210526,83.5192982 75.5059649,83.8785965 C75.4996491,83.8968421 75.4933333,83.9136842 75.4870175,83.9319298 C75.3740351,84.2898246 75.2715789,84.6526316 75.1775439,85.0182456 C75.1726316,85.0378947 75.165614,85.0575439 75.1607018,85.0778947 C75.0694737,85.4385965 74.9894737,85.8035088 74.9178947,86.1712281 C74.9122807,86.1985965 74.9052632,86.2245614 74.9003509,86.2519298 C74.8315789,86.6126316 74.7740351,86.9768421 74.7242105,87.3438596 C74.72,87.3796491 74.7129825,87.4154386 74.7080702,87.4512281 C74.6617544,87.8119298 74.6266667,88.1754386 74.5992982,88.5410526 C74.5957895,88.5852632 74.5901754,88.6294737 74.5873684,88.6736842 C74.562807,89.0294737 74.5501754,89.3887719 74.5445614,89.7494737 C74.5438596,89.797193 74.5389474,89.8442105 74.5389474,89.8912281 C74.5382456,89.8694737 74.5361404,89.8484211 74.5361404,89.8266667 C74.5312281,89.4350877 74.5164912,89.045614 74.4898246,88.6603509 C74.4884211,88.6463158 74.4870175,88.6329825 74.4863158,88.6189474 C74.4575439,88.2224561 74.4189474,87.8287719 74.3684211,87.4385965 C74.3677193,87.434386 74.3670175,87.4308772 74.3663158,87.4273684 C73.9978947,84.6154386 73.0589474,81.9852632 71.6652632,79.6561404 C71.6603509,79.6491228 71.6554386,79.6421053 71.6512281,79.6350877 C71.4561404,79.3094737 71.2526316,78.9901754 71.04,78.6764912 C71.0294737,78.6603509 71.0168421,78.6449123 71.0063158,78.6287719 C70.7992982,78.325614 70.5859649,78.0280702 70.3635088,77.7375439 C70.3354386,77.7010526 70.3059649,77.6673684 70.2785965,77.6322807 C70.0694737,77.362807 69.8568421,77.0961404 69.634386,76.8378947 C69.5838596,76.7789474 69.5298246,76.7235088 69.4778947,76.6652632 C69.2750877,76.4336842 69.0701754,76.2042105 68.8568421,75.9817544 C68.7585965,75.8792982 68.6540351,75.7831579 68.5529825,75.682807 C68.3810526,75.5108772 68.2105263,75.3368421 68.0322807,75.1712281 C67.8224561,74.9761404 67.605614,74.7908772 67.3880702,74.605614 C67.3115789,74.5403509 67.2385965,74.4708772 67.1607018,74.4063158 C66.8610526,74.1578947 66.554386,73.9178947 66.2414035,73.6870175 L42.114386,73.6870175 C37.0792982,77.3950877 33.8105263,83.3621053 33.8105263,90.0940351 C33.8105263,92.5740351 34.2540351,94.9494737 35.0659649,97.1473684 L114.012632,97.1473684 C114.82386,94.9494737 115.26807,92.5740351 115.26807,90.0940351 C115.26807,83.3621053 111.999298,77.3950877 106.964912,73.6870175 L106.964912,73.6870175 Z" id="Fill-4" fill="#FFFFFF"></path>
                <path d="M112.329123,79.5487719 L77.4814035,79.5487719 C78.8701754,77.2589474 80.6954386,75.2652632 82.8435088,73.682807 L106.959298,73.682807 C109.109474,75.2652632 110.939649,77.2575439 112.329123,79.5487719" id="Fill-5" fill="#FFFFFF"></path>
                <path d="M71.5985965,79.5487719 L36.7508772,79.5487719 C38.1403509,77.2575439 39.9698246,75.2652632 42.12,73.682807 L66.2357895,73.682807 C68.3845614,75.2652632 70.2105263,77.2589474 71.5985965,79.5487719" id="Fill-6" fill="#FFFFFF"></path>
                <path d="M33.8477193,91.2877193 L115.230877,91.2877193 C115.252632,90.8912281 115.26807,90.4940351 115.26807,90.0926316 C115.26807,88.4849123 115.075789,86.9221053 114.723509,85.4210526 L75.082807,85.4210526 C74.7452632,86.8589474 74.554386,88.3522807 74.5396491,89.8891228 C74.5242105,88.3522807 74.3333333,86.8589474 73.9957895,85.4210526 L34.3550877,85.4210526 C34.0021053,86.9221053 33.8105263,88.4849123 33.8105263,90.0926316 C33.8105263,90.4940351 33.8252632,90.8912281 33.8477193,91.2877193" id="Fill-7" fill="#FFFFFF"></path>
                <path d="M73.9950877,85.4189474 C73.5017544,83.32 72.6870175,81.3459649 71.6007018,79.5529825 L36.7473684,79.5529825 C35.6610526,81.3459649 34.8491228,83.3207018 34.3557895,85.4189474 L73.9950877,85.4189474" id="Fill-8" fill="#FFFFFF"></path>
                <path d="M114.722105,85.4189474 C114.228772,83.3207018 113.417544,81.3459649 112.330526,79.5529825 L77.4785965,79.5529825 C76.3915789,81.3459649 75.5768421,83.32 75.0835088,85.4189474 L114.722105,85.4189474" id="Fill-9" fill="#FFFFFF"></path>
            </g>
        </g>
    </g>
</svg>