<?xml version="1.0" encoding="UTF-8"?>
<svg width="110px" height="120px" viewBox="0 0 110 120" version="1.1" xmlns="http://www.w3.org/2000/svg" xmlns:xlink="http://www.w3.org/1999/xlink">
    <!-- Generator: Sketch 42 (36781) - http://www.bohemiancoding.com/sketch -->
    <title>clapperboard_C</title>
    <desc>Created with Sketch.</desc>
    <defs>
        <polygon id="path-1" points="0.0375 119.9625 0.0375 0.275625 109.645 0.275625 109.645 119.9625"></polygon>
    </defs>
    <g id="D_Network_BK" stroke="none" stroke-width="1" fill="none" fill-rule="evenodd">
        <g id="Industry-Club" transform="translate(-551.000000, -834.000000)">
            <g id="clapperboard_C" transform="translate(551.000000, 834.000000)">
                <g id="Group-4">
                    <mask id="mask-2" fill="white">
                        <use xlink:href="#path-1"></use>
                    </mask>
                    <g id="Clip-2"></g>
                    <path d="M13.395,63.4375 L25.73875,51.09375 M38.55125,63.4375 L50.895,51.09375" id="Stroke-1" stroke="#FFFFFF" stroke-width="4" mask="url(#mask-2)"></path>
                    <path d="M83.01875,8.819375 L95.561875,14.60625 L101.17125,12.590625 L97.895,3.47375 L83.01875,8.819375 Z M31.924375,27.179375 L11.40875,34.55125 L23.951875,40.338125 L44.466875,32.96625 L31.924375,27.179375 Z M71.691875,23.18375 L92.206875,15.81125 L79.664375,10.025 L59.14875,17.396875 L71.691875,23.18375 Z M55.794375,18.601875 L35.27875,25.974375 L47.821875,31.76125 L68.336875,24.38875 L55.794375,18.601875 Z M6.474375,46.61875 L20.5975,41.54375 L8.054375,35.756875 L3.198125,37.501875 L6.474375,46.61875 Z M0,35.994375 L79.7075,7.3525 L79.730625,7.3025 L79.781875,7.32625 L99.4025,0.275625 L104.369375,14.098125 L4.966875,49.816875 L0,35.994375 Z M39.645,105.3125 L72.145,105.3125 L72.145,95.3125 L39.645,95.3125 L39.645,105.3125 Z M74.645,95.3125 L74.645,105.3125 L94.645,105.3125 L94.645,107.8125 L17.145,107.8125 L17.145,105.3125 L37.145,105.3125 L37.145,95.3125 L17.145,95.3125 L17.145,92.8125 L94.645,92.8125 L94.645,95.3125 L74.645,95.3125 Z M17.145,82.8125 L94.645,82.8125 L94.645,80.3125 L17.145,80.3125 L17.145,82.8125 Z M109.645,65 L109.645,120 L4.645,120 L4.645,65 L7.145,65 L7.145,117.5 L107.145,117.5 L107.145,65 L109.645,65 L109.645,65 Z" id="Fill-3" fill="#FFFFFF" mask="url(#mask-2)"></path>
                </g>
                <polygon id="Fill-5" fill="#FFFFFF" points="4.645 65 109.645 65 109.645 50 4.645 50"></polygon>
                <polygon id="Fill-6" fill="#FFFFFF" points="4.645 65 83.395 65 83.395 50 4.645 50"></polygon>
            </g>
        </g>
    </g>
</svg>