<?xml version="1.0" encoding="UTF-8"?>
<svg width="116px" height="120px" viewBox="0 0 116 120" version="1.1" xmlns="http://www.w3.org/2000/svg" xmlns:xlink="http://www.w3.org/1999/xlink">
    <!-- Generator: Sketch 42 (36781) - http://www.bohemiancoding.com/sketch -->
    <title>cogs_C</title>
    <desc>Created with Sketch.</desc>
    <defs>
        <polygon id="path-1" points="55.575 120 0.036 120 0.036 0 55.575 0 111.114 0 111.114 120 55.575 120"></polygon>
    </defs>
    <g id="D_Network_BK" stroke="none" stroke-width="1" fill="none" fill-rule="evenodd">
        <g id="Industry-Club" transform="translate(-300.000000, -834.000000)">
            <g id="cogs_C" transform="translate(300.000000, 834.000000)">
                <g id="Group-3">
                    <mask id="mask-2" fill="white">
                        <use xlink:href="#path-1"></use>
                    </mask>
                    <g id="Clip-2"></g>
                    <path d="M30.2616,19.9038 C30.8172,20.1468 31.3614,20.4636 31.8792,20.8464 C33.7626,22.2366 34.9896,24.3564 35.2464,26.6598 C35.2836,27.0006 35.3022,27.3084 35.3022,27.6 C35.3022,27.8916 35.2836,28.1994 35.2464,28.539 C34.9896,30.8436 33.7626,32.9628 31.8792,34.3536 C31.3614,34.7364 30.8172,35.0532 30.2616,35.2962 C28.1256,36.2304 25.6788,36.2304 23.5428,35.2962 C22.9872,35.0532 22.443,34.7364 21.9252,34.3536 C20.0418,32.9634 18.8142,30.8442 18.558,28.539 C18.5202,28.2012 18.5022,27.894 18.5022,27.6 C18.5022,27.306 18.5202,26.9988 18.558,26.661 C18.8142,24.3558 20.0418,22.2366 21.9252,20.8464 C22.443,20.4636 22.9872,20.1468 23.5428,19.9038 C24.6108,19.437 25.7412,19.2 26.9022,19.2 C28.0632,19.2 29.1936,19.437 30.2616,19.9038 Z M31.2228,37.4952 L31.2228,37.4952 C31.9428,37.1808 32.643,36.7734 33.3048,36.2844 C35.7246,34.4982 37.3014,31.7718 37.6314,28.8036 C37.6788,28.374 37.7022,27.9804 37.7022,27.6 C37.7022,27.2196 37.6788,26.826 37.6314,26.3952 C37.3014,23.4282 35.7246,20.7018 33.3054,18.9156 C32.643,18.4266 31.9422,18.0192 31.2228,17.7048 C28.4772,16.5042 25.3266,16.5042 22.5816,17.7048 C21.8622,18.0192 21.1614,18.4266 20.4996,18.9156 C18.0798,20.7018 16.503,23.4282 16.173,26.3952 C16.1256,26.8218 16.1022,27.216 16.1022,27.6 C16.1022,27.984 16.1256,28.3782 16.173,28.8048 C16.503,31.7718 18.0798,34.4982 20.499,36.2844 C21.1614,36.7734 21.8622,37.1808 22.5816,37.4952 C23.9544,38.0958 25.4082,38.4 26.9022,38.4 C28.3962,38.4 29.85,38.0958 31.2228,37.4952 Z M23.3022,45.2646 L22.401,45.033 C19.2474,44.2212 16.3632,42.5532 14.0622,40.2096 L13.4106,39.546 L6.8784,43.3176 L3.2784,37.0824 L9.8076,33.3126 L9.5592,32.4174 C9.1236,30.843 8.9022,29.2224 8.9022,27.6 C8.9022,25.977 9.1236,24.3564 9.5592,22.7826 L9.8076,21.8874 L3.2784,18.1176 L6.8784,11.8824 L13.4106,15.654 L14.0622,14.9904 C16.3632,12.6468 19.2474,10.9788 22.401,10.167 L23.3022,9.9354 L23.3022,2.4 L30.5022,2.4 L30.5022,9.9354 L31.4028,10.167 C34.557,10.9788 37.4406,12.6468 39.7422,14.9904 L40.3938,15.654 L46.926,11.8824 L50.526,18.1176 L43.9968,21.8874 L44.2446,22.7826 C44.6808,24.3564 44.9022,25.977 44.9022,27.6 C44.9022,29.223 44.6808,30.8436 44.2446,32.4174 L43.9968,33.3126 L50.526,37.0824 L46.926,43.3176 L40.3938,39.546 L39.7422,40.2096 C37.4406,42.5532 34.557,44.2212 31.4028,45.033 L30.5022,45.2646 L30.5022,52.8 L23.3022,52.8 L23.3022,45.2646 Z M32.9022,47.103 C35.8308,46.2024 38.526,44.643 40.785,42.543 L47.8044,46.596 L53.8044,36.204 L46.7868,32.1522 C47.1288,30.6564 47.3022,29.1294 47.3022,27.6 C47.3022,26.0706 47.1288,24.5436 46.7868,23.0478 L53.8044,18.996 L47.8044,8.604 L40.785,12.657 C38.526,10.557 35.8308,8.9976 32.9022,8.097 L32.9022,0 L20.9022,0 L20.9022,8.097 C17.9736,8.9976 15.2778,10.557 13.0194,12.657 L6,8.604 L0,18.996 L7.0176,23.0478 C6.6756,24.5436 6.5022,26.0712 6.5022,27.6 C6.5022,29.1288 6.6756,30.6558 7.0176,32.1522 L0,36.204 L6,46.596 L13.0194,42.543 C15.2778,44.643 17.9736,46.2024 20.9022,47.103 L20.9022,55.2 L32.9022,55.2 L32.9022,47.103 Z M92.9022,76.8 C92.9022,87.387 84.2892,96 73.7022,96 C63.1152,96 54.5022,87.387 54.5022,76.8 C54.5022,66.213 63.1152,57.6 73.7022,57.6 C84.2892,57.6 92.9022,66.213 92.9022,76.8 Z M95.3022,76.8 C95.3022,64.8894 85.6128,55.2 73.7022,55.2 C61.7916,55.2 52.1022,64.8894 52.1022,76.8 C52.1022,88.7106 61.7916,98.4 73.7022,98.4 C85.6128,98.4 95.3022,88.7106 95.3022,76.8 Z M83.3022,120 L64.1022,120 L64.1022,109.0014 C59.0706,107.5032 54.4416,104.8302 50.6166,101.2134 L41.0898,106.7136 L31.4898,90.0864 L41.0154,84.5868 C40.4094,82.0362 40.1022,79.4208 40.1022,76.8 C40.1022,74.178 40.4094,71.5626 41.0154,69.0132 L31.4898,63.5136 L41.0898,46.8864 L50.6166,52.3866 C54.4416,48.7698 59.0706,46.0968 64.1022,44.5986 L64.1022,33.6 L73.7022,33.6 L73.7022,36 L66.5022,36 L66.5022,46.4268 L65.6124,46.665 C60.3474,48.075 55.5192,50.8632 51.651,54.7284 L50.9994,55.3788 L41.9682,50.1642 L34.7682,62.6358 L43.797,67.8486 L43.56,68.7372 C42.858,71.3664 42.5022,74.079 42.5022,76.8 C42.5022,79.5198 42.858,82.2324 43.56,84.8628 L43.797,85.7514 L34.7682,90.9642 L41.9682,103.4358 L50.9994,98.2212 L51.651,98.8716 C55.5192,102.7368 60.3474,105.525 65.6124,106.935 L66.5022,107.1732 L66.5022,117.6 L80.9022,117.6 L80.9022,107.1732 L81.792,106.935 C87.057,105.525 91.8852,102.7368 95.7534,98.8716 L96.4044,98.2212 L105.4362,103.4358 L109.0362,97.2 L111.114,98.4 L106.314,106.7136 L96.7878,101.2134 C92.9628,104.8302 88.3338,107.5032 83.3022,109.0014 L83.3022,120 L83.3022,120 Z" id="Fill-1" fill="#FFFFFF" mask="url(#mask-2)"></path>
                </g>
                <path d="M107.3022,76.8 C107.3022,74.1792 106.995,71.5638 106.389,69.0132 L115.914,63.5136 L106.314,46.8864 L96.7878,52.3866 C94.8762,50.5794 92.7648,49.0086 90.5022,47.7012 C88.2366,46.392 85.8198,45.348 83.3022,44.5986 L83.3022,33.6 L73.7022,33.6 L73.7022,55.2 C77.6328,55.2 81.3186,56.2608 84.4968,58.1028 C87.771,60.0006 90.5016,62.7312 92.3994,66.0054 C94.2414,69.1836 95.3022,72.8694 95.3022,76.8 C95.3022,80.7306 94.2414,84.4164 92.3994,87.5946 L109.0362,97.2 L111.114,98.4 L115.914,90.0864 L106.389,84.5868 C106.995,82.0362 107.3022,79.4208 107.3022,76.8" id="Fill-4" fill="#FFFFFF"></path>
                <path d="M106.314,46.8864 L96.7878,52.3866 C94.8762,50.5794 92.7648,49.0086 90.5022,47.7012 L84.4968,58.1028 C87.771,60.0006 90.5016,62.7312 92.3994,66.0054 L109.0362,56.4 L111.114,55.2 L106.314,46.8864" id="Fill-5" fill="#FFFFFF"></path>
                <path d="M106.389,84.5868 C106.995,82.0362 107.3022,79.4208 107.3022,76.8 L95.3022,76.8 C95.3022,80.7306 94.2414,84.4164 92.3994,87.5946 L109.0362,97.2 L111.114,98.4 L115.914,90.0864 L106.389,84.5868" id="Fill-6" fill="#FFFFFF"></path>
                <path d="M115.914,63.5136 L111.114,55.2 L109.0362,56.4 L92.3994,66.0054 C94.2414,69.1836 95.3022,72.8694 95.3022,76.8 L107.3022,76.8 C107.3022,74.1792 106.995,71.5638 106.389,69.0132 L115.914,63.5136" id="Fill-7" fill="#FFFFFF"></path>
            </g>
        </g>
    </g>
</svg>