<?xml version="1.0" encoding="UTF-8"?>
<svg width="125px" height="120px" viewBox="0 0 125 120" version="1.1" xmlns="http://www.w3.org/2000/svg" xmlns:xlink="http://www.w3.org/1999/xlink">
    <!-- Generator: Sketch 42 (36781) - http://www.bohemiancoding.com/sketch -->
    <title>digger_C</title>
    <desc>Created with Sketch.</desc>
    <defs></defs>
    <g id="D_Network_BK" stroke="none" stroke-width="1" fill="none" fill-rule="evenodd">
        <g id="Industry-Club" transform="translate(-1338.000000, -834.000000)" fill="#FFFFFF">
            <g id="digger_C" transform="translate(1338.000000, 834.000000)">
                <polygon id="Fill-1" points="0 119.999365 124.444444 119.999365 124.444444 92.0628571 0 92.0628571"></polygon>
                <polygon id="Fill-2" points="0.00634920635 120 93.3396825 120 93.3396825 92.0634921 0.00634920635 92.0634921"></polygon>
                <path d="M114.285714,8.25333333 L91.4285714,8.25333333 L91.4285714,3.17396825 L121.904762,3.17396825 L121.904762,8.25333333 L114.285714,8.25333333 Z M116.825397,66.6660317 L121.904762,66.6660317 L121.904762,10.7930159 L116.825397,10.7930159 L116.825397,66.6660317 Z M89.1485714,41.2692063 L84.135873,41.2692063 L91.1688889,10.7930159 L96.1815873,10.7930159 L89.1485714,41.2692063 Z M73.6507937,53.967619 L88.8888889,53.967619 L88.8888889,43.8088889 L73.6507937,43.8088889 L73.6507937,53.967619 Z M7.61904762,61.5866667 L88.8888889,61.5866667 L88.8888889,56.5073016 L7.61904762,56.5073016 L7.61904762,61.5866667 Z M40.6349206,68.888254 L53.6507937,68.888254 L53.6507937,64.1263492 L40.6349206,64.1263492 L40.6349206,68.888254 Z M7.61904762,43.551746 L38.0952381,36.5987302 L38.0952381,53.967619 L7.61904762,53.967619 L7.61904762,43.551746 Z M46.087619,20.951746 L62.1460317,20.951746 C64.7244444,20.951746 66.9936508,22.7803175 67.5409524,25.2996825 L70.9466667,40.967619 L40.6349206,34.0520635 L40.6349206,26.4044444 C40.6349206,23.3974603 43.0812698,20.951746 46.087619,20.951746 Z M40.6349206,36.6571429 L71.1111111,43.6095238 L71.1111111,53.967619 L40.6349206,53.967619 L40.6349206,36.6571429 Z M88.8888889,0.634285714 L88.8888889,9.37904762 L81.5301587,41.2692063 L73.6114286,41.2692063 L70.0222222,24.76 C69.2228571,21.0819048 65.9111111,18.4120635 62.1460317,18.4120635 L46.087619,18.4120635 C41.68,18.4120635 38.0952381,21.9974603 38.0952381,26.4044444 L38.0952381,33.9942857 L5.07936508,41.5263492 L5.07936508,64.1263492 L38.0952381,64.1263492 L38.0952381,69.2946032 C33.4933333,69.4190476 28.3098413,69.6615873 24.6926984,69.9396825 L10.6685714,71.0177778 C4.78603175,71.4704762 0,76.6387302 0,82.5384127 L0,92.0628571 L2.53968254,92.0628571 L2.53968254,82.5384127 C2.53968254,77.935873 6.27365079,73.9034921 10.8628571,73.5504762 L24.8869841,72.472381 C30.0952381,72.0711111 38.584127,71.7453968 43.8095238,71.7453968 L50.1587302,71.7453968 C55.3809524,71.7453968 63.8634921,72.0984127 69.0679365,72.5320635 L80.5625397,73.4895238 C85.1536508,73.871746 88.8888889,77.9314286 88.8888889,82.5384127 L88.8888889,92.0628571 L91.4285714,92.0628571 L91.4285714,82.5384127 C91.4285714,76.6425397 86.6488889,71.447619 80.7733333,70.9580952 L69.2787302,70.0006349 C65.7428571,69.7066667 60.7130159,69.4495238 56.1904762,69.311746 L56.1904762,64.1263492 L91.4285714,64.1263492 L91.4285714,42.6831746 L98.7879365,10.7930159 L114.285714,10.7930159 L114.285714,79.3644444 L109.206349,79.3644444 L109.206349,81.904127 L116.825397,81.904127 L116.825397,69.2057143 L121.904762,69.2057143 L121.904762,89.5231746 L108.571429,89.5231746 L101.587302,80.2107937 L101.587302,74.2850794 L99.047619,74.2850794 L99.047619,81.0577778 L107.301587,92.0628571 L124.444444,92.0628571 L124.444444,0.634285714 L88.8888889,0.634285714 Z M76.1904762,89.6285714 C73.3898413,89.6285714 71.1111111,87.3498413 71.1111111,84.5492063 C71.1111111,81.7485714 73.3898413,79.4698413 76.1904762,79.4698413 C78.9911111,79.4698413 81.2698413,81.7485714 81.2698413,84.5492063 C81.2698413,87.3498413 78.9911111,89.6285714 76.1904762,89.6285714 Z M76.1904762,76.9301587 C71.9892063,76.9301587 68.5714286,80.3479365 68.5714286,84.5492063 C68.5714286,88.7504762 71.9892063,92.168254 76.1904762,92.168254 C80.391746,92.168254 83.8095238,88.7504762 83.8095238,84.5492063 C83.8095238,80.3479365 80.391746,76.9301587 76.1904762,76.9301587 Z M55.8730159,89.6285714 C53.072381,89.6285714 50.7936508,87.3498413 50.7936508,84.5492063 C50.7936508,81.7485714 53.072381,79.4698413 55.8730159,79.4698413 C58.6736508,79.4698413 60.952381,81.7485714 60.952381,84.5492063 C60.952381,87.3498413 58.6736508,89.6285714 55.8730159,89.6285714 Z M55.8730159,76.9301587 C51.671746,76.9301587 48.2539683,80.3479365 48.2539683,84.5492063 C48.2539683,88.7504762 51.671746,92.168254 55.8730159,92.168254 C60.0742857,92.168254 63.4920635,88.7504762 63.4920635,84.5492063 C63.4920635,80.3479365 60.0742857,76.9301587 55.8730159,76.9301587 Z M35.5555556,89.6285714 C32.7549206,89.6285714 30.4761905,87.3498413 30.4761905,84.5492063 C30.4761905,81.7485714 32.7549206,79.4698413 35.5555556,79.4698413 C38.3561905,79.4698413 40.6349206,81.7485714 40.6349206,84.5492063 C40.6349206,87.3498413 38.3561905,89.6285714 35.5555556,89.6285714 Z M35.5555556,76.9301587 C31.3542857,76.9301587 27.9365079,80.3479365 27.9365079,84.5492063 C27.9365079,88.7504762 31.3542857,92.168254 35.5555556,92.168254 C39.7568254,92.168254 43.1746032,88.7504762 43.1746032,84.5492063 C43.1746032,80.3479365 39.7568254,76.9301587 35.5555556,76.9301587 Z M15.2380952,89.6285714 C12.4374603,89.6285714 10.1587302,87.3498413 10.1587302,84.5492063 C10.1587302,81.7485714 12.4374603,79.4698413 15.2380952,79.4698413 C18.0387302,79.4698413 20.3174603,81.7485714 20.3174603,84.5492063 C20.3174603,87.3498413 18.0387302,89.6285714 15.2380952,89.6285714 Z M15.2380952,76.9301587 C11.0368254,76.9301587 7.61904762,80.3479365 7.61904762,84.5492063 C7.61904762,88.7504762 11.0368254,92.168254 15.2380952,92.168254 C19.4393651,92.168254 22.8571429,88.7504762 22.8571429,84.5492063 C22.8571429,80.3479365 19.4393651,76.9301587 15.2380952,76.9301587 L15.2380952,76.9301587 Z" id="Fill-3"></path>
            </g>
        </g>
    </g>
</svg>