<?xml version="1.0" encoding="UTF-8"?>
<svg width="94px" height="120px" viewBox="0 0 94 120" version="1.1" xmlns="http://www.w3.org/2000/svg" xmlns:xlink="http://www.w3.org/1999/xlink">
    <!-- Generator: Sketch 42 (36781) - http://www.bohemiancoding.com/sketch -->
    <title>DNA_C</title>
    <desc>Created with Sketch.</desc>
    <defs>
        <polygon id="path-1" points="0 120 93.9130435 120 93.9130435 0.0260869565 0 0.0260869565"></polygon>
    </defs>
    <g id="D_Network_BK" stroke="none" stroke-width="1" fill="none" fill-rule="evenodd">
        <g id="Industry-Club" transform="translate(-825.000000, -834.000000)">
            <g id="DNA_C" transform="translate(825.000000, 834.000000)">
                <g id="Group-4">
                    <mask id="mask-2" fill="white">
                        <use xlink:href="#path-1"></use>
                    </mask>
                    <g id="Clip-2"></g>
                    <path d="M11.2858696,100.087826 C8.22456522,107.468478 7.80717391,113.822609 7.79152174,117.391304 L2.67847826,117.391304 C3.08478261,109.345435 5.19130435,102.577826 6.98282609,98.1528261 C11.6941304,86.5167391 22.2117391,70.0597826 45.5647826,57.7421739 C52.9043478,53.8708696 59.2995652,49.3917391 64.7543478,44.3478261 L64.8215217,44.3478261 L64.8215217,44.2865217 C72.4121739,37.2502174 78.161087,29.1071739 81.975,19.9121739 C85.0891304,12.4043478 85.8378261,6.21 86.0230435,2.60869565 L91.2306522,2.60869565 C90.8152174,10.4152174 88.7158696,17.1097826 86.9295652,21.521087 C82.1830435,33.2471739 71.5793478,49.8326087 48.0221739,62.2578261 C30.146087,71.6863043 17.786087,84.4141304 11.2858696,100.087826 Z M89.3478261,22.5 C93.6723913,11.8186957 93.9045652,3.17934783 93.9130435,0 L83.4782609,0 C83.4704348,1.53130435 83.4619565,5.29173913 82.2841304,10.4347826 L11.0869565,10.4347826 L11.0869565,13.0434783 L81.611087,13.0434783 C81.0880435,14.8767391 80.426087,16.8378261 79.5652174,18.9130435 C79.2919565,19.5723913 78.993913,20.22 78.6991304,20.8695652 L14.3478261,20.8695652 L14.3478261,23.4782609 L77.4417391,23.4782609 C76.0636957,26.1821739 74.4926087,28.7921739 72.7297826,31.3043478 L20.2173913,31.3043478 L20.2173913,33.9130435 L70.8032609,33.9130435 C68.6791304,36.6476087 66.3254348,39.2628261 63.7213043,41.7391304 L29.0915217,41.7391304 L29.0915217,44.3478261 L60.8171739,44.3478261 C56.0302174,48.4545652 50.5454348,52.166087 44.3478261,55.4347826 C20.1228261,68.2121739 9.42065217,85.1804348 4.56521739,97.173913 C0.240652174,107.855217 0.00847826087,116.73913 0,120 L10.4347826,120 C10.4419565,118.681304 10.151087,114.822391 11.1534783,109.565217 L82.826087,109.565217 L82.826087,106.956522 L11.741087,106.956522 C12.2132609,105.113478 12.84,103.149783 13.6956522,101.086957 C13.968913,100.427609 14.2682609,99.78 14.5643478,99.1304348 L79.5652174,99.1304348 L79.5652174,96.5217391 L15.8295652,96.5217391 C17.2186957,93.8178261 18.81,91.2078261 20.5976087,88.6956522 L73.6956522,88.6956522 L73.6956522,86.0869565 L22.5521739,86.0869565 C24.6143478,83.471087 26.8923913,80.9667391 29.3954348,78.5869565 L64.5652174,78.5869565 L64.5652174,75.9782609 L32.28,75.9782609 C37.2123913,71.7397826 42.8758696,67.9213043 49.2391304,64.5652174 C73.4641304,51.7878261 84.4923913,34.4934783 89.3478261,22.5 L89.3478261,22.5 Z" id="Fill-1" fill="#FFFFFF" mask="url(#mask-2)"></path>
                    <path d="M89.3478261,97.173913 C84.4923913,85.1804348 73.7902174,68.2121739 49.5652174,55.4347826 C32.3765217,46.368913 20.5826087,33.9469565 14.3478261,18.9130435 C10.4471739,9.5073913 10.4465217,2.28326087 10.4347826,0 L0,0 C0.00847826087,3.17934783 0.240652174,11.8186957 4.56521739,22.5 C9.42065217,34.4934783 20.448913,51.7878261 44.673913,64.5652174 C61.8626087,73.631087 73.9819565,86.0530435 80.2173913,101.086957 C84.1252174,110.508261 83.4671739,117.743478 83.4782609,120 L93.9130435,120 C93.9045652,116.820652 93.6723913,107.855217 89.3478261,97.173913" id="Fill-3" fill="#FFFFFF" mask="url(#mask-2)"></path>
                </g>
                <path d="M85.968913,90 L74.2304348,90 C76.6056522,93.5152174 78.6104348,97.2123913 80.2173913,101.086957 C84.1252174,110.508261 83.4671739,117.743478 83.4782609,120 L93.9130435,120 C93.9045652,116.820652 93.6723913,107.855217 89.3478261,97.173913 C88.4419565,94.9363043 87.3319565,92.5245652 85.968913,90" id="Fill-5" fill="#FFFFFF"></path>
                <path d="M44.673913,64.5652174 C57.4323913,71.295 67.391087,79.8769565 74.2304348,90 L85.968913,90 C80.8676087,80.5506522 72.2086957,69.5113043 57.393913,60 L36.8517391,60 C39.2954348,61.5704348 41.8936957,63.0991304 44.673913,64.5652174" id="Fill-6" fill="#FFFFFF"></path>
                <path d="M36.8517391,60 L57.393913,60 C54.9528261,58.4328261 52.3526087,56.9047826 49.5652174,55.4347826 C36.806087,48.705 27.0273913,40.1236957 20.2806522,30 L8.13782609,30 C13.3317391,39.4584783 22.1328261,50.5376087 36.8517391,60" id="Fill-7" fill="#FFFFFF"></path>
            </g>
        </g>
    </g>
</svg>