<?xml version="1.0" encoding="UTF-8"?>
<svg width="130px" height="102px" viewBox="0 0 130 102" version="1.1" xmlns="http://www.w3.org/2000/svg" xmlns:xlink="http://www.w3.org/1999/xlink">
    <!-- Generator: Sketch 42 (36781) - http://www.bohemiancoding.com/sketch -->
    <title>drone_C</title>
    <desc>Created with Sketch.</desc>
    <defs></defs>
    <g id="D_Network_BK" stroke="none" stroke-width="1" fill="none" fill-rule="evenodd">
        <g id="Industry-Club" transform="translate(-1069.000000, -648.000000)" fill="#FFFFFF">
            <g id="drone_C" transform="translate(1069.000000, 648.000000)">
                <path d="M108.252961,6.9422905 L109.213073,6.73893855 C113.570615,5.81513966 118.525866,4.8303352 122.177486,4.8303352 C126.867654,4.8303352 126.867654,6.35837989 126.867654,6.93430168 C126.867654,7.51022346 126.867654,9.03972067 122.149888,9.03972067 C118.483017,9.03972067 113.548827,8.06217877 109.212346,7.1449162 L108.252961,6.9422905 M107.459162,9.03972067 L101.43486,9.03972067 L101.43486,5.31692737 C101.43486,3.93631285 103.024637,2.90502793 104.445922,2.90502793 C105.995028,2.90502793 107.459162,4.07793296 107.459162,5.31765363 L107.459162,9.03972067 M99.681676,7.14564246 C95.3502793,8.06217877 90.4211732,9.03972067 86.7499441,9.03972067 C82.0321788,9.03972067 82.0321788,7.51022346 82.0321788,6.93430168 C82.0321788,6.35837989 82.0321788,4.82960894 86.7223464,4.82960894 C90.3768715,4.82960894 95.3277654,5.81513966 99.6809497,6.73821229 L100.643966,6.9422905 L99.681676,7.14564246 M122.177486,1.92530726 C118.639162,1.92530726 114.297598,2.71329609 110.033743,3.59860335 C109.21743,1.52877095 106.987821,0 104.445922,0 C102.142235,0 99.7063687,1.38932961 98.8501117,3.59569832 C94.7242458,2.7401676 90.2461453,1.92458101 86.7223464,1.92458101 C80.444581,1.92458101 79.1264246,4.64877095 79.1264246,6.93430168 C79.1264246,9.2198324 80.4489385,11.9447486 86.7499441,11.9447486 C90.1938547,11.9447486 94.5143575,11.1778212 98.5298324,10.3535196 L98.5298324,11.9447486 L110.36419,11.9447486 L110.36419,10.3527933 C114.384749,11.177095 118.708156,11.9447486 122.149888,11.9447486 L122.150615,11.9447486 C126.482011,11.9440223 128.460335,10.6563687 129.273743,9.10871508 C129.644134,8.40569832 129.772682,7.64821229 129.772682,6.93430168 C129.772682,4.64877095 128.455251,1.92530726 122.177486,1.92530726 M7.6227933,9.03972067 C2.90502793,9.03972067 2.90502793,7.51022346 2.90502793,6.93430168 C2.90502793,6.35837989 2.90502793,4.8303352 7.59519553,4.8303352 C11.2468156,4.8303352 16.2027933,5.81513966 20.5603352,6.73893855 L21.5204469,6.9422905 L20.5610615,7.1449162 C16.224581,8.06145251 11.2911173,9.03972067 7.6227933,9.03972067 M22.3142458,5.31765363 C22.3142458,4.07793296 23.7776536,2.90502793 25.3267598,2.90502793 C26.7480447,2.90502793 28.3385475,3.93631285 28.3385475,5.31692737 L28.3385475,9.03972067 L22.3142458,9.03972067 L22.3142458,5.31765363 M30.0924581,6.73821229 C34.4456425,5.81513966 39.3950838,4.82960894 43.0503352,4.82960894 C47.7405028,4.82960894 47.7405028,6.35837989 47.7405028,6.93430168 C47.7405028,7.65039106 47.4688827,8.08106145 46.8043575,8.42022346 C45.997486,8.83128492 44.7250838,9.03972067 43.0227374,9.03972067 C39.3522346,9.03972067 34.4224022,8.06217877 30.0917318,7.14564246 L29.1287151,6.9422905 L30.0924581,6.73821229 M19.4092179,11.9447486 L31.2435754,11.9447486 L31.2435754,10.3535196 C35.2590503,11.1778212 39.5788268,11.9447486 43.0227374,11.9447486 C45.2189385,11.9447486 46.8878771,11.6382682 48.1239665,11.0078771 C49.7732961,10.1668715 50.6455307,8.75865922 50.6455307,6.93430168 C50.6455307,4.64877095 49.3281006,1.92458101 43.0503352,1.92458101 C39.5272626,1.92458101 35.049162,2.7401676 30.9225698,3.59569832 C30.0663128,1.38932961 27.6311732,0 25.3267598,0 C22.7848603,0 20.5559777,1.52877095 19.7396648,3.59860335 C15.4758101,2.71329609 11.1335196,1.92530726 7.59519553,1.92530726 C1.31743017,1.92530726 0,4.64877095 0,6.93430168 C0,9.2198324 1.32251397,11.9447486 7.6227933,11.9447486 C11.0645251,11.9447486 15.387933,11.177095 19.4092179,10.3527933 L19.4092179,11.9447486 M35.3294972,42.3182682 L38.2701117,42.3182682 L28.9718436,101.787821 L26.101676,101.338268 L35.3294972,42.3182682 M29.2289385,42.3182682 L19.9299441,101.787821 L17.0605028,101.338268 L26.288324,42.3182682 L29.2289385,42.3182682 M94.4431844,42.3182682 L103.671732,101.338268 L100.802291,101.787821 L91.5025698,42.3182682 L94.4431844,42.3182682 M103.484358,42.3182682 L112.712905,101.338268 L109.843464,101.787821 L100.543743,42.3182682 L103.484358,42.3182682 M84.6953631,84.969162 C84.6953631,85.7687709 84.5748045,85.9663128 84.579162,85.9663128 L84.5798883,85.9663128 C84.5697207,85.9728492 84.3787151,86.0963128 83.567486,86.0963128 L46.2044693,86.0963128 C45.4193855,86.0963128 45.2160335,85.9801117 45.2080447,85.9801117 C45.2015084,85.9699441 45.0773184,85.7789385 45.0773184,84.969162 L45.0773184,59.8196089 C45.0773184,59.0192737 45.1978771,58.8239106 45.1935196,58.8239106 C45.2029609,58.816648 45.3946927,58.6931844 46.2044693,58.6931844 L83.567486,58.6931844 C84.3525698,58.6931844 84.5573743,58.807933 84.5646369,58.807933 C84.5718994,58.8181006 84.6953631,59.0091061 84.6953631,59.8196089 L84.6953631,84.969162 M83.567486,55.7881564 L70.9465922,55.7881564 L70.9465922,47.9242458 L68.0415642,47.9242458 L68.0415642,55.7881564 L61.7311173,55.7881564 L61.7311173,47.9242458 L58.8260894,47.9242458 L58.8260894,55.7881564 L46.2044693,55.7881564 C43.4156425,55.7881564 42.1722905,57.0307821 42.1722905,59.8196089 L42.1722905,84.969162 C42.1722905,87.7572626 43.4156425,89.0013408 46.2044693,89.0013408 L83.567486,89.0013408 C86.3563128,89.0013408 87.6003911,87.7572626 87.6003911,84.969162 L87.6003911,59.8196089 C87.6003911,57.0307821 86.3563128,55.7881564 83.567486,55.7881564 M64.8874302,77.4001117 C62.1262011,77.4001117 59.879162,75.1545251 59.879162,72.3954749 C59.879162,69.6349721 62.1262011,67.3893855 64.8874302,67.3893855 C67.647933,67.3893855 69.8935196,69.6349721 69.8935196,72.3954749 C69.8935196,75.1545251 67.647933,77.4001117 64.8874302,77.4001117 M64.8874302,64.4843575 C60.5240782,64.4843575 56.9741341,68.0335754 56.9741341,72.3954749 C56.9741341,76.7573743 60.5240782,80.3051397 64.8874302,80.3051397 C69.2500559,80.3051397 72.7985475,76.7573743 72.7985475,72.3954749 C72.7985475,68.0335754 69.2500559,64.4843575 64.8874302,64.4843575" id="Fill-1"></path>
                <path d="M115.994134,25.5112291 L110.160112,25.5112291 L110.160112,17.4301676 L98.3228492,17.4301676 L98.3228492,25.5112291 C98.5973743,25.5112291 30.7671508,25.5112291 31.0387709,25.5112291 L31.0387709,17.4301676 L19.2022346,17.4301676 L19.2022346,25.5112291 L13.3682123,25.5112291 C10.3978212,25.5112291 7.98882682,27.8998883 7.98882682,30.8441341 C7.98882682,33.7927374 10.3978212,36.1813966 13.3682123,36.1813966 L47.4935754,36.1813966 L54.7590503,47.6075978 L74.6032961,47.6075978 L81.8687709,36.1813966 L115.994134,36.1813966 C118.965251,36.1813966 121.37352,33.7927374 121.37352,30.8441341 C121.37352,27.8998883 118.965251,25.5112291 115.994134,25.5112291" id="Fill-2"></path>
                <path d="M98.2531285,17.4301676 L98.2531285,25.5112291 L92.9608939,25.5112291 L92.9608939,36.1813966 L115.924413,36.1813966 C118.895531,36.1813966 121.303799,33.7927374 121.303799,30.8441341 C121.303799,27.8998883 118.895531,25.5112291 115.924413,25.5112291 L110.090391,25.5112291 L110.090391,17.4301676 L98.2531285,17.4301676" id="Fill-3"></path>
                <polyline id="Fill-4" points="74.5582682 47.5153631 64.6368715 47.5153631 64.6368715 25.4189944 92.9855866 25.4189944 92.9855866 36.089162 81.823743 36.089162 74.5582682 47.5153631"></polyline>
                <polyline id="Fill-5" points="36.3128492 36.089162 47.4739665 36.089162 54.7394413 47.5153631 64.6622905 47.5153631 64.6622905 25.4189944 36.3128492 25.4189944 36.3128492 36.089162"></polyline>
            </g>
        </g>
    </g>
</svg>