<?xml version="1.0" encoding="UTF-8"?>
<svg width="80px" height="130px" viewBox="0 0 80 130" version="1.1" xmlns="http://www.w3.org/2000/svg" xmlns:xlink="http://www.w3.org/1999/xlink">
    <!-- Generator: Sketch 42 (36781) - http://www.bohemiancoding.com/sketch -->
    <title>firehydrant_C</title>
    <desc>Created with Sketch.</desc>
    <defs>
        <polygon id="path-1" points="0 130 79.5918367 130 79.5918367 0.0265306122 0 0.0265306122"></polygon>
    </defs>
    <g id="D_Network_BK" stroke="none" stroke-width="1" fill="none" fill-rule="evenodd">
        <g id="Industry-Club" transform="translate(-1094.000000, -235.000000)">
            <g id="firehydrant_C" transform="translate(1094.000000, 235.000000)">
                <path d="M17.244898,43.7755102 L62.3469388,43.7755102" id="Stroke-1" stroke="#FFFFFF" stroke-width="4"></path>
                <polyline id="Fill-2" fill="#FFFFFF" points="63.6734694 119.383776 15.9183673 119.387755 15.9183673 45.1020408 63.6734694 45.1020408 63.6734694 119.383776"></polyline>
                <polygon id="Fill-3" fill="#FFFFFF" points="15.9183673 100.816327 63.6734694 100.816327 63.6734694 45.1020408 15.9183673 45.1020408"></polygon>
                <g id="Group-6">
                    <mask id="mask-2" fill="white">
                        <use xlink:href="#path-1"></use>
                    </mask>
                    <g id="Clip-5"></g>
                    <path d="M39.9617347,55.7142857 C32.6472449,55.7142857 26.6964286,61.665102 26.6964286,68.9795918 C26.6964286,76.2940816 32.6472449,82.244898 39.9617347,82.244898 C47.2762245,82.244898 53.2270408,76.2940816 53.2270408,68.9795918 C53.2270408,61.665102 47.2762245,55.7142857 39.9617347,55.7142857 Z M39.9617347,53.0612245 C48.7393878,53.0612245 55.880102,60.202602 55.880102,68.9795918 C55.880102,77.7565816 48.7393878,84.8979592 39.9617347,84.8979592 C31.1840816,84.8979592 24.0433673,77.7565816 24.0433673,68.9795918 C24.0433673,60.202602 31.1840816,53.0612245 39.9617347,53.0612245 Z M39.9617347,63.6734694 C37.0360714,63.6734694 34.6556122,66.0539286 34.6556122,68.9795918 C34.6556122,71.9052551 37.0360714,74.2857143 39.9617347,74.2857143 C42.887398,74.2857143 45.2678571,71.9052551 45.2678571,68.9795918 C45.2678571,66.0539286 42.887398,63.6734694 39.9617347,63.6734694 Z M39.9617347,61.0204082 C44.3505612,61.0204082 47.9209184,64.5907653 47.9209184,68.9795918 C47.9209184,73.3684184 44.3505612,76.9387755 39.9617347,76.9387755 C35.5729082,76.9387755 32.002551,73.3684184 32.002551,68.9795918 C32.002551,64.5907653 35.5729082,61.0204082 39.9617347,61.0204082 Z M15.9183673,76.9387755 L5.30612245,76.9387755 L5.30612245,58.3673469 L15.9183673,58.3673469 L15.9183673,55.7142857 L2.65306122,55.7142857 L2.65306122,79.5918367 L15.9183673,79.5918367 L15.9183673,76.9387755 Z M2.65306122,127.346939 L76.9387755,127.346939 L76.9387755,122.040816 L2.65306122,122.040816 L2.65306122,127.346939 Z M0,130 L79.5918367,130 L79.5918367,119.387755 L0,119.387755 L0,130 Z M13.2653061,42.4489796 L66.3265306,42.4489796 L66.3265306,37.1428571 L13.2653061,37.1428571 L13.2653061,42.4489796 Z M18.5754082,34.4897959 L61.0164286,34.4897959 C60.9713265,27.3895408 60.472551,21.9872449 56.6561224,17.9705102 C52.1485714,13.2255102 46.1606122,10.6122449 39.7959184,10.6122449 C33.4312245,10.6122449 27.4432653,13.2255102 22.9357143,17.9705102 C19.1192857,21.9872449 18.6205102,27.3895408 18.5754082,34.4897959 Z M34.4897959,8.515 C36.217602,8.14887755 37.9925,7.95918367 39.7959184,7.95918367 C41.5993367,7.95918367 43.3742347,8.14887755 45.1020408,8.515 L45.1020408,2.65306122 L34.4897959,2.65306122 L34.4897959,8.515 Z M68.9795918,45.1020408 L10.6122449,45.1020408 L10.6122449,34.4897959 L15.9196939,34.4897959 C15.9402551,28.1231122 16.2513265,21.1541837 21.0122449,16.142551 C24.0897959,12.9031633 27.7941327,10.5611735 31.8367347,9.23265306 L31.8367347,0 L47.755102,0 L47.755102,9.23265306 C51.7977041,10.5611735 55.5013776,12.9031633 58.5795918,16.142551 C63.3405102,21.1541837 63.6515816,28.1231122 63.6721429,34.4897959 L68.9795918,34.4897959 L68.9795918,45.1020408 Z M74.2857143,79.5918367 L74.2857143,58.3673469 L63.6734694,58.3673469 L63.6734694,55.7142857 L76.9387755,55.7142857 L76.9387755,82.244898 L63.6734694,82.244898 L63.6734694,79.5918367 L74.2857143,79.5918367 L74.2857143,79.5918367 Z" id="Fill-4" fill="#FFFFFF" mask="url(#mask-2)"></path>
                </g>
                <path d="M41.3207653,55.782602 C32.942398,54.9442347 25.9277041,61.9582653 26.7647449,70.3366327 C27.3835714,76.5388265 32.3998469,81.5564286 38.6027041,82.1765816 C46.9810714,83.014949 53.9957653,76.0009184 53.1593878,67.622551 C52.539898,61.4203571 47.5236224,56.4027551 41.3207653,55.782602 Z M38.665051,53.1129592 C48.4614796,52.3329592 56.6096939,60.4818367 55.8283673,70.2782653 C55.2135204,77.9880612 48.967551,84.2327041 41.2584184,84.8462245 C31.4619898,85.6262245 23.3137755,77.4773469 24.095102,67.6809184 C24.709949,59.9717857 30.9559184,53.7264796 38.665051,53.1129592 Z M41.0017347,63.7729592 C37.2695408,63.059949 34.0420918,66.287398 34.755102,70.0195918 C35.1530612,72.1055612 36.8357653,73.7882653 38.9217347,74.1862245 C42.6539286,74.8992347 45.8813776,71.6717857 45.1683673,67.9395918 C44.7697449,65.8536224 43.0877041,64.1715816 41.0017347,63.7729592 Z M38.9237245,61.0867347 C44.122398,60.4254592 48.5152041,64.8162755 47.8552551,70.0156122 C47.404898,73.5594388 44.5442347,76.4214286 40.9997449,76.872449 C35.8010714,77.5337245 31.4082653,73.1429082 32.0682143,67.9435714 C32.5185714,64.3997449 35.3792347,61.5377551 38.9237245,61.0867347 L38.9237245,61.0867347 Z" id="Fill-7" fill="#FFFFFF"></path>
            </g>
        </g>
    </g>
</svg>