<?xml version="1.0" encoding="UTF-8"?>
<svg width="130px" height="96px" viewBox="0 0 130 96" version="1.1" xmlns="http://www.w3.org/2000/svg" xmlns:xlink="http://www.w3.org/1999/xlink">
    <!-- Generator: Sketch 42 (36781) - http://www.bohemiancoding.com/sketch -->
    <title>forklift_C</title>
    <desc>Created with Sketch.</desc>
    <defs></defs>
    <g id="D_Network_BK" stroke="none" stroke-width="1" fill="none" fill-rule="evenodd">
        <g id="Industry-Club" transform="translate(-1335.000000, -651.000000)" fill="#FFFFFF">
            <g id="forklift_C" transform="translate(1335.000000, 651.000000)">
                <polygon id="Fill-1" points="104 82.875 123.5 82.875 123.5 2.70833333 104 2.70833333"></polygon>
                <polygon id="Fill-2" points="104 64.1089583 123.5 64.1089583 123.5 2.70833333 104 2.70833333"></polygon>
                <path d="M18.3310833,87.2083333 C16.5387083,87.2083333 15.0810833,85.7507083 15.0810833,83.9583333 C15.0810833,82.1659583 16.5387083,80.7083333 18.3310833,80.7083333 C20.1229167,80.7083333 21.5810833,82.1659583 21.5810833,83.9583333 C21.5810833,85.7507083 20.1229167,87.2083333 18.3310833,87.2083333 Z M18.3310833,78.5416667 C15.3443333,78.5416667 12.9144167,80.9715833 12.9144167,83.9583333 C12.9144167,86.9450833 15.3443333,89.375 18.3310833,89.375 C21.3178333,89.375 23.74775,86.9450833 23.74775,83.9583333 C23.74775,80.9715833 21.3178333,78.5416667 18.3310833,78.5416667 Z M80.175875,9.65629167 L84.5,5.32620833 L84.5,65.0249167 C83.1669583,64.0748333 81.7174583,63.2802083 80.175875,62.6659583 L80.175875,9.65629167 Z M52.0281667,80.7083333 L30.2352917,80.7083333 C28.7955417,75.7125417 24.1274583,72.0416667 18.6019167,72.0416667 C13.0769167,72.0416667 8.40829167,75.7125417 6.96854167,80.7083333 L2.16666667,80.7083333 L2.16666667,56.875 L41.1666667,56.875 L41.1666667,72.0416667 L54.4635,72.0416667 C53.05625,74.6465417 52.1912083,77.585625 52.0281667,80.7083333 Z M18.6019167,93.7083333 C13.1278333,93.7083333 8.67425,89.334375 8.67425,83.9583333 C8.67425,78.5822917 13.1278333,74.2083333 18.6019167,74.2083333 C24.076,74.2083333 28.5295833,78.5822917 28.5295833,83.9583333 C28.5295833,89.334375 24.076,93.7083333 18.6019167,93.7083333 Z M13,7.25833333 C13,4.78020833 14.8871667,2.829125 17.3333333,2.71916667 L17.3333333,54.7083333 L13,54.7083333 L13,7.25833333 Z M31.8835833,50.409125 L41.1666667,50.409125 L41.1666667,54.7083333 L19.5,54.7083333 L19.5,29.2099167 L23.8333333,29.2099167 L23.8333333,42.3583333 C23.8333333,46.7978333 27.444625,50.409125 31.8835833,50.409125 Z M99.6666667,87.2083333 L99.6666667,54.7083333 L97.5,54.7083333 L97.5,87.2083333 L93.1666667,87.2083333 L93.1666667,81.7916667 C93.1666667,75.8864167 90.6630833,70.5580417 86.6666667,66.8010417 L86.6666667,0.0904583333 L78.0092083,8.760375 L78.0092083,61.9395833 C76.2796667,61.4661667 74.4612917,61.2083333 72.5833333,61.2083333 C65.6722083,61.2083333 59.5475833,64.634375 55.8127917,69.875 L43.3333333,69.875 L43.3333333,48.2424583 L31.8835833,48.2424583 C28.6395417,48.2424583 26,45.6029167 26,42.3583333 L26,27.04325 L19.5,27.04325 L19.5,2.70833333 L50.591125,2.70833333 C57.3278333,2.70833333 62.8084167,8.15154167 62.8084167,14.8416667 L62.8084167,56.645875 L60.0708333,57.8667917 L48.9282083,36.6085417 L53.9651667,33.824375 L52.9170417,31.9285417 L40.883375,38.5796667 L41.9309583,40.4755 L47.0312917,37.6566667 L59.0958333,60.6737083 L64.9750833,58.0520417 L64.9750833,14.8416667 C64.9750833,6.956625 58.52275,0.541666667 50.591125,0.541666667 L17.55,0.541666667 C13.7837917,0.541666667 10.8333333,3.492125 10.8333333,7.25833333 L10.8333333,54.7083333 L0,54.7083333 L0,82.875 L6.560125,82.875 C6.52708333,83.2319583 6.50758333,83.5927083 6.50758333,83.9583333 C6.50758333,85.085 6.670625,86.1742917 6.96854167,87.2083333 L0,87.2083333 L0,89.375 L7.83466667,89.375 C9.84045833,93.2295 13.9121667,95.875 18.6019167,95.875 C23.2916667,95.875 27.3639167,93.2295 29.3691667,89.375 L54.1666667,89.375 L54.1666667,87.2083333 L30.2352917,87.2083333 C30.5332083,86.1742917 30.69625,85.085 30.69625,83.9583333 C30.69625,83.5927083 30.67675,83.2319583 30.64425,82.875 L54.1666667,82.875 L54.1666667,81.7916667 C54.1666667,71.6365 62.4281667,63.375 72.5833333,63.375 C82.7385,63.375 91,71.6365 91,81.7916667 L91,89.375 L130,89.375 L130,87.2083333 L99.6666667,87.2083333 Z M72.5833333,87.2083333 C69.5965833,87.2083333 67.1666667,84.7784167 67.1666667,81.7916667 C67.1666667,78.8049167 69.5965833,76.375 72.5833333,76.375 C75.5700833,76.375 78,78.8049167 78,81.7916667 C78,84.7784167 75.5700833,87.2083333 72.5833333,87.2083333 Z M72.5833333,74.2083333 C68.4016667,74.2083333 65,77.61 65,81.7916667 C65,85.9733333 68.4016667,89.375 72.5833333,89.375 C76.765,89.375 80.1666667,85.9733333 80.1666667,81.7916667 C80.1666667,77.61 76.765,74.2083333 72.5833333,74.2083333 Z M72.5833333,93.7083333 C66.012375,93.7083333 60.6666667,88.362625 60.6666667,81.7916667 C60.6666667,75.2207083 66.012375,69.875 72.5833333,69.875 C79.1542917,69.875 84.5,75.2207083 84.5,81.7916667 C84.5,88.362625 79.1542917,93.7083333 72.5833333,93.7083333 Z M72.5833333,67.7083333 C64.818,67.7083333 58.5,74.0257917 58.5,81.7916667 C58.5,89.5575417 64.818,95.875 72.5833333,95.875 C80.3486667,95.875 86.6666667,89.5575417 86.6666667,81.7916667 C86.6666667,74.0257917 80.3486667,67.7083333 72.5833333,67.7083333 L72.5833333,67.7083333 Z" id="Fill-3"></path>
            </g>
        </g>
    </g>
</svg>