<?xml version="1.0" encoding="UTF-8"?>
<svg width="122px" height="130px" viewBox="0 0 122 130" version="1.1" xmlns="http://www.w3.org/2000/svg" xmlns:xlink="http://www.w3.org/1999/xlink">
    <!-- Generator: Sketch 42 (36781) - http://www.bohemiancoding.com/sketch -->
    <title>gas_can_C</title>
    <desc>Created with Sketch.</desc>
    <defs>
        <polygon id="path-1" points="0.0423913043 130 121.050489 130 121.050489 0.0282608696 0.0423913043 0.0282608696"></polygon>
    </defs>
    <g id="D_Network_BK" stroke="none" stroke-width="1" fill="none" fill-rule="evenodd">
        <g id="Industry-Club" transform="translate(-811.000000, -39.000000)">
            <g id="gas_can_C" transform="translate(811.000000, 39.000000)">
                <polygon id="Fill-1" fill="#FFFFFF" points="24.9635326 127.173913 121.050489 127.173913 121.050489 45.2173913 24.9635326 45.2173913"></polygon>
                <polygon id="Fill-2" fill="#FFFFFF" points="24.9635326 106.684783 121.050489 106.684783 121.050489 45.2173913 24.9635326 45.2173913"></polygon>
                <g id="Group-5">
                    <mask id="mask-2" fill="white">
                        <use xlink:href="#path-1"></use>
                    </mask>
                    <g id="Clip-4"></g>
                    <path d="M121.050489,127.173913 L24.9628261,127.173913 L24.9063043,37.0916848 L24.9055978,36.5080978 L4.00315217,15.549837 L14.4716848,5.17527174 L37.4470652,28.2608696 L47.5715217,28.2608696 L47.5807065,10.2445652 C47.5807065,6.15875 50.9048913,2.83456522 54.9907065,2.83456522 L110.814402,2.83456522 C114.900217,2.83456522 118.224402,6.15875 118.224402,10.2445652 L118.224402,36.7391304 L121.050489,36.7391304 L121.050489,10.2445652 C121.050489,4.60086957 116.458804,0.00847826087 110.814402,0.00847826087 L54.9907065,0.00847826087 C49.3463043,0.00847826087 44.7546196,4.60086957 44.7546196,10.2438587 L44.7468478,25.4347826 L38.6213043,25.4347826 L14.4858152,1.18342391 L0,15.5378261 L22.0809239,37.6766848 L22.1381522,130 L121.050489,130 L121.050489,127.173913 Z M36.8846739,111.922935 L34.8534239,109.958098 L106.920054,35.4610326 L106.920054,14.1304348 L58.8765761,14.1304348 L58.8765761,36.7391304 L56.0504891,36.7391304 L56.0504891,11.3043478 L109.746141,11.3043478 L109.746141,36.6041848 L36.8846739,111.922935 L36.8846739,111.922935 Z" id="Fill-3" fill="#FFFFFF" mask="url(#mask-2)"></path>
                </g>
            </g>
        </g>
    </g>
</svg>