<?xml version="1.0" encoding="UTF-8"?>
<svg width="150px" height="100px" viewBox="0 0 150 100" version="1.1" xmlns="http://www.w3.org/2000/svg" xmlns:xlink="http://www.w3.org/1999/xlink">
    <!-- Generator: Sketch 42 (36781) - http://www.bohemiancoding.com/sketch -->
    <title>globe_arrows_C</title>
    <desc>Created with Sketch.</desc>
    <defs></defs>
    <g id="D_Network_BK" stroke="none" stroke-width="1" fill="none" fill-rule="evenodd">
        <g id="Industry-Club" transform="translate(-1325.000000, -466.000000)" fill="#FFFFFF">
            <g id="globe_arrows_C" transform="translate(1325.000000, 466.000000)">
                <path d="M114.328947,76.3013158 L106.480921,76.3026316 C110.003947,68.5618421 111.896053,59.6190789 111.896053,50.2690789 C111.896053,50.1789474 111.891447,50.0894737 111.891447,50 L122.240132,50 C122.240789,50.0901316 122.246711,50.1789474 122.246711,50.2690789 C122.246711,59.8875 119.326316,68.8381579 114.328947,76.3013158 Z M92.8526316,93.8361842 C95.9111842,91.5671053 98.7427632,88.7072368 101.258553,85.2828947 C102.713816,83.3013158 104.021711,81.1723684 105.193421,78.9342105 L112.427632,78.9328947 C107.368421,85.4697368 100.628947,90.6526316 92.8526316,93.8361842 Z M63.1769737,84.0328947 C62.5618421,82.4256579 61.9986842,80.7217105 61.4835526,78.9421053 L88.275,78.9368421 C87.7598684,80.7190789 87.1960526,82.4243421 86.5802632,84.0328947 C83.3368421,92.5078947 79.0717105,97.3684211 74.8782895,97.3684211 C70.6855263,97.3684211 66.4203947,92.5078947 63.1769737,84.0328947 Z M37.3401316,78.9467105 L44.5697368,78.9453947 C45.7394737,81.1796053 47.0453947,83.3046053 48.4986842,85.2828947 C51.0144737,88.7072368 53.8460526,91.5671053 56.9046053,93.8361842 C49.1335526,90.6552632 42.3980263,85.4769737 37.3401316,78.9467105 Z M56.9046053,6.70131579 C53.8453947,8.96973684 51.0144737,11.8302632 48.4986842,15.2546053 C47.1618421,17.0743421 45.9460526,19.0144737 44.8486842,21.0526316 L37.7664474,21.0526316 C42.7743421,14.7763158 49.3486842,9.79407895 56.9046053,6.70131579 Z M86.5802632,16.5046053 C87.1315789,17.9460526 87.6394737,19.4703947 88.1111842,21.0526316 L61.6460526,21.0526316 C62.1171053,19.4703947 62.625,17.9460526 63.1769737,16.5046053 C66.4203947,8.02960526 70.6855263,3.16907895 74.8782895,3.16907895 C79.0717105,3.16907895 83.3368421,8.02960526 86.5802632,16.5046053 Z M111.990789,21.0526316 L104.907895,21.0526316 C103.810526,19.0144737 102.595395,17.0743421 101.258553,15.2546053 C98.7427632,11.8302632 95.9118421,8.96973684 92.8526316,6.70131579 C100.408553,9.79407895 106.982895,14.7763158 111.990789,21.0526316 Z M106.224342,23.6842105 L113.953289,23.6842105 C118.663158,30.5072368 121.610526,38.6177632 122.148684,47.3684211 L111.828947,47.3684211 C111.471053,38.8513158 109.5375,30.7506579 106.224342,23.6842105 Z M89.0375,15.5638158 C87.1703947,10.6835526 84.9671053,6.91118421 82.5480263,4.36447368 C90.2888158,6.79078947 97.0394737,12.8 101.819737,21.0526316 L90.8578947,21.0526316 C90.3078947,19.1309211 89.7006579,17.2953947 89.0375,15.5638158 Z M94.55,47.3684211 C94.3578947,38.8789474 93.3256579,30.7717105 91.5572368,23.6842105 L103.244079,23.6842105 C106.663158,30.5072368 108.802632,38.6177632 109.192763,47.3684211 L94.55,47.3684211 Z M57.825,52.6315789 L74.8782895,52.6315789 L74.8782895,50 L57.8052632,50 C57.8256579,40.5059211 58.9078947,31.4276316 60.9098684,23.6842105 L88.8473684,23.6842105 C90.6631579,30.7092105 91.7210526,38.8328947 91.9177632,47.3684211 L74.8782895,47.3684211 L74.8782895,50 L91.9519737,50 C91.9526316,50.0894737 91.9546053,50.1789474 91.9546053,50.2690789 C91.9546053,59.6381579 90.9151316,68.6078947 88.9842105,76.3052632 L60.7743421,76.3105263 C59.0052632,69.2611842 57.9842105,61.1453947 57.825,52.6315789 Z M37.9032895,52.6315789 C38.1934211,61.1282895 40.0532895,69.2256579 43.2815789,76.3138158 L35.4375,76.3151316 C30.8460526,69.4644737 28.0059211,61.3578947 27.5703947,52.6315789 L37.9032895,52.6315789 Z M37.8657895,50 L27.5171053,50 C27.5723684,40.2453947 30.625,31.1861842 35.8039474,23.6842105 L43.5328947,23.6842105 C39.8802632,31.4756579 37.9026316,40.5236842 37.8657895,50 Z M58.2,23.6842105 C56.2493421,31.5013158 55.1934211,40.5585526 55.1736842,50 L40.4980263,50 C40.5381579,40.2453947 42.7532895,31.1861842 46.5131579,23.6842105 L58.2,23.6842105 Z M58.8993421,21.0526316 L47.9375,21.0526316 C52.7177632,12.8 59.4684211,6.79078947 67.2092105,4.36447368 C64.7901316,6.91118421 62.5868421,10.6835526 60.7190789,15.5638158 C60.0565789,17.2953947 59.4493421,19.1309211 58.8993421,21.0526316 Z M46.2460526,76.3131579 C42.9138158,69.4625 40.8526316,61.3572368 40.5361842,52.6315789 L55.1934211,52.6315789 C55.3486842,61.1006579 56.3440789,69.2019737 58.0677632,76.3111842 L46.2460526,76.3131579 Z M60.7190789,84.9736842 C62.5868421,89.8539474 64.7901316,93.6263158 67.2092105,96.1723684 C59.3,93.6940789 52.4236842,87.475 47.6276316,78.9447368 L58.7506579,78.9427632 C59.3401316,81.0605263 59.9947368,83.0809211 60.7190789,84.9736842 Z M91.0085526,78.9368421 L102.135526,78.9348684 C97.3394737,87.4703947 90.4605263,93.6927632 82.5480263,96.1723684 C84.9671053,93.6263158 87.1703947,89.8539474 89.0375,84.9736842 C89.7625,83.0789474 90.4184211,81.0572368 91.0085526,78.9368421 Z M109.264474,50.2690789 C109.264474,59.8881579 107.144079,68.8394737 103.515789,76.3032895 L91.6907895,76.3052632 C93.5736842,68.5388158 94.5861842,59.5875 94.5861842,50.2690789 C94.5861842,50.1789474 94.5842105,50.0894737 94.5835526,50 L109.259211,50 C109.259868,50.0901316 109.264474,50.1789474 109.264474,50.2690789 Z M74.8782895,0.5375 C47.3085526,0.5375 24.8782895,22.8467105 24.8782895,50.2690789 C24.8782895,77.6901316 47.3085526,100 74.8782895,100 C102.448684,100 124.878289,77.6901316 124.878289,50.2690789 C124.878289,22.8467105 102.448684,0.5375 74.8782895,0.5375 L74.8782895,0.5375 Z" id="Fill-1"></path>
                <polyline id="Fill-2" points="131.457237 63.1578947 131.457237 70.9394737 149.757237 50 131.457237 28.9473684 131.457237 36.8421053 74.8782895 36.8421053 74.8782895 63.1578947 131.457237 63.1578947"></polyline>
                <polygon id="Fill-3" points="94.6151316 63.1578947 131.457237 63.1578947 131.457237 36.8421053 94.6151316 36.8421053"></polygon>
                <polyline id="Fill-4" points="18.2993421 36.8421053 18.2993421 28.9473684 0 49.8868421 18.2993421 70.9394737 18.2993421 63.1578947 74.8782895 63.1578947 74.8782895 36.8421053 18.2993421 36.8421053"></polyline>
                <polyline id="Fill-6" points="74.8782895 36.8421053 55.1414474 36.8421053 55.1414474 63.1578947 94.6151316 63.1578947 94.6151316 36.8421053 74.8782895 36.8421053"></polyline>
                <polygon id="Fill-7" points="18.2993421 63.1578947 55.1414474 63.1578947 55.1414474 36.8421053 18.2993421 36.8421053"></polygon>
            </g>
        </g>
    </g>
</svg>