<?xml version="1.0" encoding="UTF-8"?>
<svg width="110px" height="110px" viewBox="0 0 110 110" version="1.1" xmlns="http://www.w3.org/2000/svg" xmlns:xlink="http://www.w3.org/1999/xlink">
    <!-- Generator: Sketch 42 (36781) - http://www.bohemiancoding.com/sketch -->
    <title>IoT_C</title>
    <desc>Created with Sketch.</desc>
    <defs>
        <polygon id="path-1" points="0.0358695652 110 110 110 110 0.0239130435 0.0358695652 0.0239130435"></polygon>
    </defs>
    <g id="D_Network_BK" stroke="none" stroke-width="1" fill="none" fill-rule="evenodd">
        <g id="Industry-Club" transform="translate(-551.000000, -644.000000)">
            <g id="IoT_C" transform="translate(551.000000, 644.000000)">
                <g id="Group-3">
                    <mask id="mask-2" fill="white">
                        <use xlink:href="#path-1"></use>
                    </mask>
                    <g id="Clip-2"></g>
                    <path d="M105.217391,38.8586957 C103.898587,38.8586957 102.826087,37.7861957 102.826087,36.4673913 C102.826087,35.148587 103.898587,34.076087 105.217391,34.076087 C106.536196,34.076087 107.608696,35.148587 107.608696,36.4673913 C107.608696,37.7861957 106.536196,38.8586957 105.217391,38.8586957 Z M87.1779891,96.6224457 C86.3757065,96.0138587 85.3761413,95.6521739 84.2934783,95.6521739 C81.6564674,95.6521739 79.5108696,97.7977717 79.5108696,100.434783 C79.5108696,100.798859 79.5515217,101.153967 79.6292391,101.494728 C72.0834783,105.497772 63.5907609,107.608696 55,107.608696 C25.9916848,107.608696 2.39130435,84.0083152 2.39130435,55 C2.39130435,45.9375543 4.72641304,37.0347283 9.15391304,29.1864674 C9.47853261,29.256413 9.81690217,29.2934783 10.1630435,29.2934783 C12.8000543,29.2934783 14.9456522,27.1478804 14.9456522,24.5108696 C14.9456522,23.5310326 14.6491304,22.61875 14.1415761,21.858913 C24.1910326,9.47434783 39.0266848,2.39130435 55,2.39130435 C75.3356522,2.39130435 93.8778261,14.1684783 102.561848,32.4918478 C101.280109,33.3503261 100.434783,34.8120109 100.434783,36.4673913 C100.434783,39.1044022 102.58038,41.25 105.217391,41.25 C105.408098,41.25 105.596413,41.2386413 105.780543,41.2171196 C106.994728,45.6972283 107.608696,50.3279891 107.608696,55 C107.608696,71.4599457 100.175326,86.5729891 87.1779891,96.6224457 Z M84.2934783,102.826087 C82.9746739,102.826087 81.9021739,101.753587 81.9021739,100.434783 C81.9021739,99.1159783 82.9746739,98.0434783 84.2934783,98.0434783 C85.6122826,98.0434783 86.6847826,99.1159783 86.6847826,100.434783 C86.6847826,101.753587 85.6122826,102.826087 84.2934783,102.826087 Z M10.1630435,22.1195652 C11.4818478,22.1195652 12.5543478,23.1920652 12.5543478,24.5108696 C12.5543478,25.8296739 11.4818478,26.9021739 10.1630435,26.9021739 C8.84423913,26.9021739 7.77173913,25.8296739 7.77173913,24.5108696 C7.77173913,23.1920652 8.84423913,22.1195652 10.1630435,22.1195652 Z M110,36.4673913 C110,33.8303804 107.854402,31.6847826 105.217391,31.6847826 C105.087663,31.6847826 104.95913,31.690163 104.832391,31.7003261 C95.8016304,12.4096739 76.3465761,0 55,0 C38.3391848,0 22.8620652,7.37059783 12.357663,20.2621196 C11.7000543,19.9213587 10.9533696,19.7282609 10.1630435,19.7282609 C7.52603261,19.7282609 5.38043478,21.8738587 5.38043478,24.5108696 C5.38043478,25.9438587 6.01413043,27.2315761 7.01548913,28.1091848 C2.4223913,36.2916304 0,45.5633152 0,55 C0,85.3271196 24.6728804,110 55,110 C63.9727717,110 72.843913,107.796413 80.7280435,103.619402 C81.6044565,104.599239 82.8784239,105.217391 84.2934783,105.217391 C86.9304891,105.217391 89.076087,103.071793 89.076087,100.434783 C89.076087,99.7448913 88.9290217,99.0878804 88.6653804,98.494837 C102.044728,88.1177717 110,71.9411957 110,55 C110,50.0290761 109.33462,45.1023913 108.02,40.3407065 C109.218641,39.4702717 110,38.0582065 110,36.4673913 Z M55,90.8695652 C45.3959239,90.8695652 36.4446739,87.1558696 29.6730978,80.3866848 C30.1884239,79.6238587 30.4891304,78.705 30.4891304,77.7173913 C30.4891304,75.0803804 28.3435326,72.9347826 25.7065217,72.9347826 C25.1445652,72.9347826 24.6035326,73.0322283 24.1019565,73.2115761 C20.8461957,67.7008152 19.1304348,61.4278261 19.1304348,55 C19.1304348,35.2215217 35.2215217,19.1304348 55,19.1304348 C58.0393478,19.1304348 61.0649457,19.5172283 64.0104348,20.28125 C63.9817391,20.491087 63.9673913,20.7057065 63.9673913,20.923913 C63.9673913,23.5609239 66.1129891,25.7065217 68.75,25.7065217 C70.3306522,25.7065217 71.73375,24.9359239 72.6053804,23.7516304 C83.9013043,30.1196739 90.8695652,41.9859239 90.8695652,55 C90.8695652,74.7784783 74.7784783,90.8695652 55,90.8695652 Z M25.7065217,80.1086957 C24.3877174,80.1086957 23.3152174,79.0361957 23.3152174,77.7173913 C23.3152174,76.398587 24.3877174,75.326087 25.7065217,75.326087 C27.0253261,75.326087 28.0978261,76.398587 28.0978261,77.7173913 C28.0978261,79.0361957 27.0253261,80.1086957 25.7065217,80.1086957 Z M68.75,18.5326087 C70.0688043,18.5326087 71.1413043,19.6051087 71.1413043,20.923913 C71.1413043,22.2427174 70.0688043,23.3152174 68.75,23.3152174 C67.4311957,23.3152174 66.3586957,22.2427174 66.3586957,20.923913 C66.3586957,19.6051087 67.4311957,18.5326087 68.75,18.5326087 Z M73.4967391,21.5103804 C73.5200543,21.3178804 73.5326087,21.1223913 73.5326087,20.923913 C73.5326087,18.2869022 71.3870109,16.1413043 68.75,16.1413043 C67.1902717,16.1413043 65.8027174,16.8915761 64.9286957,18.050163 C61.6872826,17.1797283 58.351413,16.7391304 55,16.7391304 C33.9027174,16.7391304 16.7391304,33.9027174 16.7391304,55 C16.7391304,61.9072826 18.5959783,68.6465761 22.120163,74.5566848 C21.3758696,75.4002174 20.923913,76.5067935 20.923913,77.7173913 C20.923913,80.3544022 23.0695109,82.5 25.7065217,82.5 C26.4896739,82.5 27.228587,82.311087 27.881413,81.9763043 C35.1157065,89.261413 44.7060326,93.2608696 55,93.2608696 C76.0972826,93.2608696 93.2608696,76.0972826 93.2608696,55 C93.2608696,41.0096739 85.7127174,28.2628261 73.4967391,21.5103804 L73.4967391,21.5103804 Z" id="Fill-1" fill="#FFFFFF" mask="url(#mask-2)"></path>
                </g>
                <path d="M65.4619565,36.3645652 C62.2958696,34.5322283 58.6228261,33.4782609 54.701087,33.4782609 C50.7793478,33.4782609 47.1063043,34.5322283 43.9402174,36.3645652 C37.5094022,40.0866304 33.1793478,47.035163 33.1793478,55 C33.1793478,62.964837 37.5094022,69.9133696 43.9402174,73.6354348 C47.1063043,75.4677717 50.7793478,76.5217391 54.701087,76.5217391 C58.6228261,76.5217391 62.2958696,75.4677717 65.4619565,73.6354348 C71.8927717,69.9133696 76.2228261,62.964837 76.2228261,55 C76.2228261,47.035163 71.8927717,40.0866304 65.4619565,36.3645652" id="Fill-4" fill="#FFFFFF"></path>
                <path d="M43.9402174,73.6354348 C47.1063043,75.4677717 50.7793478,76.5217391 54.701087,76.5217391 L54.701087,33.4782609 C50.7793478,33.4782609 47.1063043,34.5322283 43.9402174,36.3645652 L43.9402174,73.6354348" id="Fill-5" fill="#FFFFFF"></path>
                <path d="M65.4619565,73.6354348 L65.4619565,36.3645652 C62.2958696,34.5322283 58.6228261,33.4782609 54.701087,33.4782609 L54.701087,76.5217391 C58.6228261,76.5217391 62.2958696,75.4677717 65.4619565,73.6354348" id="Fill-6" fill="#FFFFFF"></path>
                <path d="M65.4619565,36.3645652 L65.4619565,73.6354348 C71.8927717,69.9133696 76.2228261,62.964837 76.2228261,55 C76.2228261,47.035163 71.8927717,40.0866304 65.4619565,36.3645652" id="Fill-7" fill="#FFFFFF"></path>
            </g>
        </g>
    </g>
</svg>