<?xml version="1.0" encoding="UTF-8"?>
<svg width="104px" height="130px" viewBox="0 0 104 130" version="1.1" xmlns="http://www.w3.org/2000/svg" xmlns:xlink="http://www.w3.org/1999/xlink">
    <!-- Generator: Sketch 42 (36781) - http://www.bohemiancoding.com/sketch -->
    <title>machinelearning_C</title>
    <desc>Created with Sketch.</desc>
    <defs>
        <polygon id="path-1" points="40.7778378 0.698486486 0.0421621622 0.698486486 0.0421621622 129.957838 81.5135135 129.957838 81.5135135 0.698486486 40.7778378 0.698486486"></polygon>
    </defs>
    <g id="D_Network_BK" stroke="none" stroke-width="1" fill="none" fill-rule="evenodd">
        <g id="Industry-Club" transform="translate(-1348.000000, -235.000000)">
            <g id="machinelearning_C" transform="translate(1348.000000, 235.000000)">
                <path d="M101.988865,44.4480541 C100.588378,39.2213514 98.7978919,34.8983243 96.0917838,30.212 C93.3863784,25.5256757 90.5376216,21.8132973 86.7114054,17.9870811 C82.8851892,14.1608649 79.1728108,11.3128108 74.4864865,8.6067027 C69.8001622,5.90059459 65.4778378,4.11010811 60.2504324,2.70962162 C55.023027,1.30913514 50.8756757,0.698486486 44.972973,0.698486486 C39.5614595,0.698486486 34.9229189,1.30913514 29.6955135,2.70962162 C24.4688108,4.11010811 20.1457838,5.90059459 15.4594595,8.6067027 L44.972973,59.7255135 L104,59.7255135 C104,53.3196757 103.389351,49.6754595 101.988865,44.4480541" id="Fill-1" fill="#FFFFFF"></path>
                <path d="M101.988865,44.4480541 C100.588378,39.2206486 98.7978919,34.8983243 96.0917838,30.212 L44.972973,59.7255135 L104,59.7255135 C104,53.3196757 103.389351,49.6754595 101.988865,44.4480541" id="Fill-2" fill="#FFFFFF"></path>
                <path d="M86.7114054,17.9870811 C82.8851892,14.1608649 79.1728108,11.3128108 74.4864865,8.6067027 L44.972973,59.7255135 L96.0917838,30.212 C93.3863784,25.5256757 90.5376216,21.8132973 86.7114054,17.9870811" id="Fill-3" fill="#FFFFFF"></path>
                <g id="Group-7">
                    <mask id="mask-2" fill="white">
                        <use xlink:href="#path-1"></use>
                    </mask>
                    <g id="Clip-5"></g>
                    <path d="M60.2504324,2.70962162 C55.023027,1.30913514 50.8756757,0.698486486 44.972973,0.698486486 L44.972973,59.7255135 L74.4864865,8.6067027 C69.8001622,5.90059459 65.4778378,4.11010811 60.2504324,2.70962162" id="Fill-4" fill="#FFFFFF" mask="url(#mask-2)"></path>
                    <path d="M11.2432432,45.6714595 L25.2972973,45.6714595 L25.2972973,56.9147027 L16.8648649,56.9147027 L16.8648649,54.1038919 L22.4864865,54.1038919 L22.4864865,48.4822703 L11.2432432,48.4822703 L11.2432432,45.6714595 Z M50.5945946,115.94173 L36.5405405,115.94173 L36.5405405,110.320108 L44.972973,110.320108 L44.972973,93.4552432 L50.5945946,93.4552432 L50.5945946,115.94173 Z M70.2702703,118.752541 L70.2702703,127.180757 L12.5179459,127.019135 L20.7845405,118.752541 L70.2702703,118.752541 Z M23.4344324,107.509297 L14.0540541,97.8056757 L14.0540541,90.6444324 L19.6756757,90.6444324 L19.6756757,87.8336216 L14.0540541,87.8336216 L14.0540541,70.9687568 L2.81081081,70.9687568 L2.81081081,57.0903784 C2.81081081,46.5695135 7.12048649,36.6375135 14.9464865,29.1242162 C22.3698378,21.9967027 31.9877297,17.9301622 42.1621622,17.5872432 L42.1621622,107.509297 L23.4344324,107.509297 Z M78.7027027,54.1038919 L78.7027027,73.9088649 L62.3016216,90.6444324 L44.972973,90.6444324 L44.972973,20.7297297 C63.5875676,20.8238919 78.7027027,35.757027 78.7027027,54.1038919 Z M63.4821622,93.4552432 L81.5135135,75.0556757 L81.5135135,54.1038919 C81.5135135,34.2075676 65.137027,18.0130811 44.972973,17.9189189 L44.972973,14.7525405 L43.5675676,14.7525405 C32.1465405,14.7525405 21.2904865,19.1367027 12.9992973,27.0962162 C4.61605405,35.144973 0,45.7965405 0,57.0903784 L0,73.7795676 L11.2432432,73.7795676 L11.2432432,98.9426486 L22.2412432,110.320108 L33.7297297,110.320108 L33.7297297,115.94173 L19.6208649,115.94173 L5.75232432,129.81027 L73.0810811,130 L73.0810811,115.94173 L53.4054054,115.94173 L53.4054054,93.4552432 L63.4821622,93.4552432 L63.4821622,93.4552432 Z" id="Fill-6" fill="#FFFFFF" mask="url(#mask-2)"></path>
                </g>
            </g>
        </g>
    </g>
</svg>