<?xml version="1.0" encoding="UTF-8"?>
<svg width="133px" height="130px" viewBox="0 0 133 130" version="1.1" xmlns="http://www.w3.org/2000/svg" xmlns:xlink="http://www.w3.org/1999/xlink">
    <!-- Generator: Sketch 42 (36781) - http://www.bohemiancoding.com/sketch -->
    <title>mine_Cart_C</title>
    <desc>Created with Sketch.</desc>
    <defs>
        <polygon id="path-1" points="0.0433333333 129.956667 132.522 129.956667 132.522 0.668777778 0.0433333333 0.668777778"></polygon>
        <polygon id="path-3" points="0.0433333333 37.5555556 0.0433333333 0 132.522 0 132.522 37.5555556 0.0433333333 37.5555556"></polygon>
    </defs>
    <g id="D_Network_BK" stroke="none" stroke-width="1" fill="none" fill-rule="evenodd">
        <g id="Industry-Club" transform="translate(-806.000000, -235.000000)">
            <g id="mine_Cart_C" transform="translate(806.000000, 235.000000)">
                <g id="Group-4">
                    <mask id="mask-2" fill="white">
                        <use xlink:href="#path-1"></use>
                    </mask>
                    <g id="Clip-2"></g>
                    <path d="M121.141944,112.666667 L126.919722,112.666667 L126.919722,101.111111 L121.141944,101.111111 L121.141944,112.666667 Z M112.406667,112.666667 C111.674333,104.579944 104.860889,98.2222222 96.5863889,98.2222222 C88.3126111,98.2222222 81.4984444,104.579944 80.7661111,112.666667 L51.74,112.666667 C51.0076667,104.579944 44.1942222,98.2222222 35.9197222,98.2222222 C27.6459444,98.2222222 20.8325,104.579944 20.0994444,112.666667 L14.2530556,112.666667 L14.2530556,92.4444444 L118.253056,92.4444444 L118.253056,112.666667 L112.406667,112.666667 Z M96.5863889,127.111111 C89.4183333,127.111111 83.5863889,121.279167 83.5863889,114.111111 C83.5863889,106.942333 89.4183333,101.111111 96.5863889,101.111111 C103.754444,101.111111 109.586389,106.942333 109.586389,114.111111 C109.586389,121.279167 103.754444,127.111111 96.5863889,127.111111 Z M35.9197222,127.111111 C29.1510556,127.111111 23.5798333,121.908944 22.9796667,115.293389 L22.9796667,112.928111 C23.5798333,106.312556 29.1510556,101.111111 35.9197222,101.111111 C43.0877778,101.111111 48.9197222,106.942333 48.9197222,114.111111 C48.9197222,121.279167 43.0877778,127.111111 35.9197222,127.111111 Z M5.58638889,112.666667 L11.3641667,112.666667 L11.3641667,101.111111 L5.58638889,101.111111 L5.58638889,112.666667 Z M121.141944,98.2222222 L121.141944,89.5555556 L11.3641667,89.5555556 L11.3641667,98.2222222 L2.6975,98.2222222 L2.6975,115.555556 L20.0994444,115.555556 C20.8325,123.641556 27.6459444,130 35.9197222,130 C44.1942222,130 51.0076667,123.641556 51.74,115.555556 L80.7661111,115.555556 C81.4984444,123.641556 88.3126111,130 96.5863889,130 C104.860889,130 111.674333,123.641556 112.406667,115.555556 L129.808611,115.555556 L129.808611,98.2222222 L121.141944,98.2222222 Z M35.9197222,118.444444 C33.5298889,118.444444 31.5863889,116.500222 31.5863889,114.111111 C31.5863889,111.721278 33.5298889,109.777778 35.9197222,109.777778 C38.3095556,109.777778 40.2530556,111.721278 40.2530556,114.111111 C40.2530556,116.500222 38.3095556,118.444444 35.9197222,118.444444 Z M35.9197222,106.888889 C31.9373889,106.888889 28.6975,110.128778 28.6975,114.111111 C28.6975,118.093444 31.9373889,121.333333 35.9197222,121.333333 C39.9020556,121.333333 43.1419444,118.093444 43.1419444,114.111111 C43.1419444,110.128778 39.9020556,106.888889 35.9197222,106.888889 Z M96.5863889,118.444444 C94.1972778,118.444444 92.2530556,116.500222 92.2530556,114.111111 C92.2530556,111.721278 94.1972778,109.777778 96.5863889,109.777778 C98.9762222,109.777778 100.919722,111.721278 100.919722,114.111111 C100.919722,116.500222 98.9762222,118.444444 96.5863889,118.444444 Z M96.5863889,106.888889 C92.6040556,106.888889 89.3641667,110.128778 89.3641667,114.111111 C89.3641667,118.093444 92.6040556,121.333333 96.5863889,121.333333 C100.568722,121.333333 103.808611,118.093444 103.808611,114.111111 C103.808611,110.128778 100.568722,106.888889 96.5863889,106.888889 Z M95.0913889,10.9358889 L106.552333,22.3961111 L83.6383889,22.3881667 L95.0913889,10.9358889 Z M95.0913889,6.85027778 L76.6660556,25.2741667 L113.529,25.2878889 L95.0913889,6.85027778 Z M39.7482222,4.75438889 L51.2091667,16.2146111 L28.2959444,16.2066667 L39.7482222,4.75438889 Z M39.7482222,0.668777778 L21.3243333,19.0933889 L58.1858333,19.1063889 L39.7482222,0.668777778 L39.7482222,0.668777778 Z" id="Fill-1" fill="#FFFFFF" mask="url(#mask-2)"></path>
                    <polyline id="Fill-3" fill="#FFFFFF" mask="url(#mask-2)" points="0 14.4444444 6.097 33.2236667 12.194 52.0938889 18.2902778 70.46 24.3872778 89.5555556 108.134722 89.5555556 114.231722 70.4145 120.328 52.0938889 132.522 14.4444444 0 14.4444444"></polyline>
                </g>
                <polyline id="Fill-5" fill="#FFFFFF" points="120.328 52 12.194 52 18.2902778 70.0555556 114.231722 70.0555556 120.328 52"></polyline>
                <g id="Group-9" transform="translate(0.000000, 14.444444)">
                    <mask id="mask-4" fill="white">
                        <use xlink:href="#path-3"></use>
                    </mask>
                    <g id="Clip-7"></g>
                    <polyline id="Fill-6" fill="#FFFFFF" mask="url(#mask-4)" points="126.425 18.7777778 6.097 18.7777778 12.194 37.5555556 120.328 37.5555556 126.425 18.7777778"></polyline>
                    <polyline id="Fill-8" fill="#FFFFFF" mask="url(#mask-4)" points="132.522 0 0 0 6.097 18.7777778 126.425 18.7777778 132.522 0"></polyline>
                </g>
            </g>
        </g>
    </g>
</svg>