<?xml version="1.0" encoding="UTF-8"?>
<svg width="122px" height="130px" viewBox="0 0 122 130" version="1.1" xmlns="http://www.w3.org/2000/svg" xmlns:xlink="http://www.w3.org/1999/xlink">
    <!-- Generator: Sketch 42 (36781) - http://www.bohemiancoding.com/sketch -->
    <title>music_C</title>
    <desc>Created with Sketch.</desc>
    <defs>
        <polygon id="path-1" points="121.875 48.7296875 121.875 97.459375 0 97.459375 0 48.7296875 0 0 121.875 0 121.875 48.7296875"></polygon>
    </defs>
    <g id="D_Network_BK" stroke="none" stroke-width="1" fill="none" fill-rule="evenodd">
        <g id="Industry-Club" transform="translate(-55.000000, -234.000000)">
            <g id="music_C" transform="translate(55.000000, 234.000000)">
                <g id="Group-3" transform="translate(0.000000, 32.500000)">
                    <mask id="mask-2" fill="white">
                        <use xlink:href="#path-1"></use>
                    </mask>
                    <g id="Clip-2"></g>
                    <path d="M101.5625,37.9166667 C91.8558333,37.9166667 83.9583333,45.8141667 83.9583333,55.5208333 C83.9583333,65.2275 91.8558333,73.125 101.5625,73.125 C111.269167,73.125 119.166667,65.2275 119.166667,55.5208333 L119.166667,2.70833333 L113.75,2.70833333 L113.75,42.5628125 L111.620573,41.0766146 C108.658333,39.0094792 105.180156,37.9166667 101.5625,37.9166667 Z M101.5625,75.8333333 C90.3621875,75.8333333 81.25,66.7211458 81.25,55.5208333 C81.25,44.3205208 90.3621875,35.2083333 101.5625,35.2083333 C104.89849,35.2083333 108.13224,36.0133854 111.041667,37.5551042 L111.041667,0 L121.875,0 L121.875,55.5208333 C121.875,66.7211458 112.762812,75.8333333 101.5625,75.8333333 Z M20.3125,59.5833333 C10.6058333,59.5833333 2.70833333,67.4808333 2.70833333,77.1875 C2.70833333,86.8941667 10.6058333,94.7916667 20.3125,94.7916667 C30.0191667,94.7916667 37.9166667,86.8941667 37.9166667,77.1875 L37.9166667,24.375 L32.5,24.375 L32.5,64.2294792 L30.3705729,62.7432813 C27.4083333,60.6761458 23.9301562,59.5833333 20.3125,59.5833333 Z M20.3125,97.5 C9.1121875,97.5 0,88.3878125 0,77.1875 C0,65.9871875 9.1121875,56.875 20.3125,56.875 C23.6484896,56.875 26.8822396,57.6800521 29.7916667,59.2217708 L29.7916667,21.6666667 L40.625,21.6666667 L40.625,77.1875 C40.625,88.3878125 31.5128125,97.5 20.3125,97.5 L20.3125,97.5 Z" id="Fill-1" fill="#FFFFFF" mask="url(#mask-2)"></path>
                </g>
                <polyline id="Fill-4" fill="#FFFFFF" points="121.875 0.338541667 121.875 36.1826563 29.7909896 61.2760417 29.7909896 25.4319271 121.875 0.338541667"></polyline>
                <polyline id="Fill-5" fill="#FFFFFF" points="75.8333333 12.8848958 75.8333333 48.7296875 52.8118229 55.0028646 52.8118229 19.1580729 75.8333333 12.8848958"></polyline>
                <polyline id="Fill-6" fill="#FFFFFF" points="98.8541667 6.61171875 98.8541667 42.4565104 75.8333333 48.7296875 75.8333333 12.8848958 98.8541667 6.61171875"></polyline>
                <polyline id="Fill-7" fill="#FFFFFF" points="121.875 0.338541667 121.875 36.1826563 98.8541667 42.4565104 98.8541667 6.61171875 121.875 0.338541667"></polyline>
            </g>
        </g>
    </g>
</svg>