<?xml version="1.0" encoding="UTF-8"?>
<svg width="117px" height="130px" viewBox="0 0 117 130" version="1.1" xmlns="http://www.w3.org/2000/svg" xmlns:xlink="http://www.w3.org/1999/xlink">
    <!-- Generator: Sketch 42 (36781) - http://www.bohemiancoding.com/sketch -->
    <title>oiltower_C</title>
    <desc>Created with Sketch.</desc>
    <defs></defs>
    <g id="D_Network_BK" stroke="none" stroke-width="1" fill="none" fill-rule="evenodd">
        <g id="Industry-Club" transform="translate(-300.000000, -235.000000)" fill="#FFFFFF">
            <g id="oiltower_C" transform="translate(300.000000, 235.000000)">
                <g id="Group-4">
                    <path d="M20.6362,127.4 L98.6362,127.4 L98.6362,122.2 L20.6362,122.2 L20.6362,127.4 Z M18.0362,130 L101.2362,130 L101.2362,119.6 L18.0362,119.6 L18.0362,130 Z M35.6746,90.1342 L56.1704,111.8 L31.3235,111.8 L35.6746,90.1342 Z M52.2106,7.8 L58.3362,7.8 L58.3362,33.8 L46.9885,33.8 L52.2106,7.8 Z M67.2906,7.8 L72.45615,33.8 L60.9362,33.8 L60.9362,7.8 L67.2906,7.8 Z M63.3971,111.8 L83.65305,90.155 L87.9528,111.8 L63.3971,111.8 Z M58.3362,88.4 L58.3362,110.30695 L37.61355,88.4 L58.3362,88.4 Z M56.22695,62.4 L37.0344,83.36315 L41.24445,62.4 L56.22695,62.4 Z M56.7099,59.8 L41.76705,59.8 L45.94395,39.00065 L56.7099,59.8 Z M58.3362,57.2858 L47.5254,36.4 L58.3362,36.4 L58.3362,57.2858 Z M60.9362,57.863 L60.9362,36.4 L71.92705,36.4 L60.9362,57.863 Z M62.8654,59.8 L73.4968,39.0377 L77.6217,59.8 L62.8654,59.8 Z M63.34185,62.4 L78.13845,62.4 L82.2965,83.3287 L63.34185,62.4 Z M81.73425,88.4 L60.9362,110.6248 L60.9362,88.4 L81.73425,88.4 Z M58.3362,85.8 L38.32855,85.8 L58.3362,63.9457 L58.3362,85.8 Z M60.9362,63.61745 L81.0264,85.8 L60.9362,85.8 L60.9362,63.61745 Z M59.6362,114.4 L91.12025,114.4 L69.42455,5.2 L60.9362,5.2 L60.9362,0 L58.3362,0 L58.3362,5.2 L50.0812,5.2 L28.14955,114.4 L59.6362,114.4 L59.6362,114.4 Z" id="Fill-1"></path>
                    <polygon id="Fill-3" points="0 85.8 91 85.8 91 62.4 0 62.4"></polygon>
                </g>
                <polygon id="Fill-5" points="46.9991786 85.8 116.071429 85.8 116.071429 62.4 46.9991786 62.4"></polygon>
            </g>
        </g>
    </g>
</svg>