<?xml version="1.0" encoding="UTF-8"?>
<svg width="162px" height="80px" viewBox="0 0 162 80" version="1.1" xmlns="http://www.w3.org/2000/svg" xmlns:xlink="http://www.w3.org/1999/xlink">
    <!-- Generator: Sketch 42 (36781) - http://www.bohemiancoding.com/sketch -->
    <title>safety_glasses_C</title>
    <desc>Created with Sketch.</desc>
    <defs>
        <polygon id="path-1" points="0.0432850242 79.3558776 0.0432850242 0.0504991948 161.891762 0.0504991948 161.891762 79.3558776"></polygon>
    </defs>
    <g id="D_Network_BK" stroke="none" stroke-width="1" fill="none" fill-rule="evenodd">
        <g id="Industry-Club" transform="translate(-791.000000, -477.000000)">
            <g id="safety_glasses_C" transform="translate(791.000000, 477.000000)">
                <mask id="mask-2" fill="white">
                    <use xlink:href="#path-1"></use>
                </mask>
                <g id="Clip-2"></g>
                <path d="M152.978654,33.6461707 L63.9514589,33.6461707 C59.0277874,33.6461707 55.038351,37.6370499 55.038351,42.5614428 L55.038351,70.4420483 C55.038351,75.3635556 59.0277874,79.3558776 63.9514589,79.3558776 L94.2603543,79.3558776 C99.1854686,79.3558776 103.174184,75.3635556 103.174184,70.4420483 L103.174184,55.2980612 L113.753043,55.2980612 L113.753043,70.4420483 C113.753043,75.3635556 117.743923,79.3558776 122.668316,79.3558776 L152.978654,79.3558776 C157.900882,79.3558776 161.891762,75.3635556 161.891762,70.4420483 L161.891762,42.5614428 C161.891762,37.6370499 157.900882,33.6461707 152.978654,33.6461707" id="Fill-1" fill="#FFFFFF" mask="url(#mask-2)"></path>
                <path d="M157.098667,65.146847 L157.098667,48.0766763 C157.098667,40.7615072 154.924316,38.5308857 147.793108,38.5308857 L141.510287,38.5308857 L141.510287,41.4165539 L147.793108,41.4165539 C153.31267,41.4165539 154.212998,42.3500676 154.212998,48.0766763 L154.212998,65.146847 C154.212998,70.749372 153.15468,71.8076908 147.552876,71.8076908 L127.870454,71.8076908 C122.2737,71.8076908 121.288966,70.8114138 121.288966,65.146847 L118.403298,65.146847 C118.403298,72.3732818 120.703897,74.6933591 127.870454,74.6933591 L147.552876,74.6933591 C154.778589,74.6933591 157.098667,72.3732818 157.098667,65.146847 Z M55.038351,70.0423833 L48.8298357,63.8345894 C47.410087,62.4206119 46.6280709,60.5398776 46.6280709,58.5386667 L46.6280709,33.4182029 C46.6280709,29.29819 49.9797746,25.9457649 54.099066,25.9457649 L141.67982,25.9457649 C143.682473,25.9457649 145.563929,26.727781 146.975742,28.1468084 L152.497469,33.6461707 L152.978654,33.6461707 C154.635027,33.6461707 156.180303,34.1064348 157.509153,34.8935008 C157.530074,34.9057649 157.550274,34.9187504 157.570473,34.9317359 C157.866254,35.1092045 158.149771,35.3025443 158.421746,35.5124767 C158.42391,35.5139195 158.426074,35.5153623 158.428238,35.5168052 L154.58525,31.673095 C154.538357,31.6262029 154.496515,31.5757037 154.448902,31.5288116 L126.512026,3.59409984 C124.233069,1.31081481 121.200953,0.051942029 117.974776,0.0504991948 L117.969726,0.0504991948 C114.745713,0.0504991948 111.715762,1.3057649 109.438248,3.58472142 L100.146396,12.8780161 L102.186564,14.9181836 L111.479137,5.62561031 C113.211981,3.89060225 115.516908,2.93616747 117.969726,2.93616747 L117.973333,2.93616747 C120.428316,2.93761031 122.734686,3.89493076 124.470415,5.63354589 L141.90923,23.0709179 C141.83276,23.0687536 141.757733,23.0600966 141.67982,23.0600966 L133.406609,23.0600966 L124.314589,13.9666345 C122.045733,11.6977778 120.139027,9.96276973 117.974055,9.96276973 C115.808361,9.96276973 113.903098,11.6977778 111.629913,13.9760129 L106.481159,19.2171079 L108.540084,21.2392399 L113.68018,16.0060805 C115.626564,14.0568116 117.023227,12.848438 117.974055,12.848438 C118.924161,12.848438 120.324432,14.0568116 122.274422,16.0068019 L129.326274,23.0600966 L54.099066,23.0600966 C51.7761031,23.0600966 49.6371014,23.8385056 47.9085862,25.1341707 L26.3649082,3.59482126 C24.0873945,1.31153623 21.0567214,0.0526634461 17.8319871,0.0504991948 L17.8240515,0.0504991948 C14.6007601,0.0504991948 11.5708084,1.3057649 9.29113043,3.58472142 L0,12.8780161 L2.04088889,14.9181836 L11.3320193,5.62561031 C13.066306,3.89132367 15.3712335,2.93616747 17.8240515,2.93616747 L17.8298229,2.93616747 C20.2840837,2.93761031 22.5897327,3.89565217 24.3232979,5.63354589 L45.8604831,27.1678454 C44.5374042,28.907182 43.7424026,31.0692689 43.7424026,33.4182029 L43.7424026,33.5422866 L24.1681932,13.9666345 C21.900058,11.6977778 19.9933527,9.96276973 17.82838,9.96276973 C15.662686,9.96276973 13.7574235,11.6977778 11.4835169,13.9760129 L6.3354847,19.2171079 L8.39513043,21.2392399 L13.5330628,16.0060805 C15.4808889,14.0568116 16.8782738,12.848438 17.82838,12.848438 C18.7792077,12.848438 20.1780354,14.0568116 22.1273043,16.0068019 L41.8883607,35.7685797 C42.6191562,36.4979324 43.2453462,37.1500934 43.7424026,37.7301127 L43.7424026,58.5386667 C43.7424026,61.3125153 44.825971,63.9189952 46.7918325,65.8769211 L57.3360644,76.4197101 L57.3461643,76.4117746 C55.9155942,74.8304283 55.038351,72.7412045 55.038351,70.4420483 L55.038351,70.0423833 Z M56.448,37.7611337 L51.9456361,33.2594911 L53.986525,31.2193237 L58.3763478,35.6105894 C57.6217456,36.2165797 56.9710274,36.9437681 56.448,37.7611337 L56.448,37.7611337 Z" id="Fill-3" fill="#FFFFFF" mask="url(#mask-2)"></path>
            </g>
        </g>
    </g>
</svg>