<?xml version="1.0" encoding="UTF-8"?>
<svg width="120px" height="130px" viewBox="0 0 120 130" version="1.1" xmlns="http://www.w3.org/2000/svg" xmlns:xlink="http://www.w3.org/1999/xlink">
    <!-- Generator: Sketch 42 (36781) - http://www.bohemiancoding.com/sketch -->
    <title>SatelliteDish_C</title>
    <desc>Created with Sketch.</desc>
    <defs></defs>
    <g id="D_Network_BK" stroke="none" stroke-width="1" fill="none" fill-rule="evenodd">
        <g id="Industry-Club" transform="translate(-546.000000, -235.000000)" fill="#FFFFFF">
            <g id="SatelliteDish_C" transform="translate(546.000000, 235.000000)">
                <polyline id="Fill-1" points="73.6115347 0.321782178 40.520099 33.4132178 86.3907921 79.2839109 119.482228 46.1924752 73.6115347 0.321782178"></polyline>
                <polyline id="Fill-2" points="51.9877723 44.8808911 40.520099 33.4132178 73.6115347 0.321782178 85.0792079 11.7894554 51.9877723 44.8808911"></polyline>
                <polyline id="Fill-3" points="63.4554455 56.3485644 51.9877723 44.8808911 85.0792079 11.7894554 96.5468812 23.2571287 63.4554455 56.3485644"></polyline>
                <polyline id="Fill-4" points="74.9231188 67.8162376 63.4554455 56.3485644 96.5468812 23.2571287 108.014554 34.724802 74.9231188 67.8162376"></polyline>
                <path d="M46.5264851,73.2768812 C35.2435149,61.9939109 31.1929208,45.7432673 35.7152475,30.4290099 L89.375,84.0894059 C74.0607426,88.6110891 57.8094554,84.5598515 46.5264851,73.2768812 Z M40.4267822,82.9168317 C39.664802,81.3259406 38.3770297,80.0381683 36.7861386,79.2761881 L42.8935644,73.1681188 C43.4785644,73.8239109 44.0790099,74.4694059 44.7064851,75.0968812 C45.2998515,75.6902475 45.9086634,76.2610891 46.5271287,76.8164851 L40.4267822,82.9168317 Z M33.4653465,91.3861386 C30.6265842,91.3861386 28.3168317,89.0763861 28.3168317,86.2376238 C28.3168317,83.3988614 30.6265842,81.0891089 33.4653465,81.0891089 C36.3041089,81.0891089 38.6138614,83.3988614 38.6138614,86.2376238 C38.6138614,89.0763861 36.3041089,91.3861386 33.4653465,91.3861386 Z M36.039604,101.833119 C35.2737624,101.737871 34.5014851,101.683168 33.7227723,101.683168 C32.7690099,101.683168 31.8236139,101.755248 30.8910891,101.889752 L30.8910891,93.509901 C31.6974752,93.7962871 32.5617822,93.960396 33.4653465,93.960396 C34.3689109,93.960396 35.2332178,93.7962871 36.039604,93.509901 L36.039604,101.833119 Z M51.4851485,120.990099 L51.4851485,122.277228 L64.3564356,122.277228 L64.3564356,127.425743 L2.57425743,127.425743 L2.57425743,122.277228 L15.4455446,122.277228 L15.4455446,120.990099 C15.4455446,112.389505 24.3280198,104.257426 33.7227723,104.257426 C43.0190594,104.257426 51.4851485,112.233119 51.4851485,120.990099 Z M34.5896535,25.6627723 L33.9171287,27.6063366 C28.6791584,42.7474752 31.510198,59.0019802 41.2260891,71.1955941 L33.8855941,78.5360891 C33.745297,78.5283663 33.6075743,78.5148515 33.4653465,78.5148515 C29.2068812,78.5148515 25.7425743,81.9791584 25.7425743,86.2376238 C25.7425743,88.5171287 26.7407426,90.5623762 28.3168317,91.9775743 L28.3168317,102.436782 C20.1757426,104.702129 13.580495,111.810297 12.924703,119.70297 L0,119.70297 L0,130 L66.9306931,130 L66.9306931,119.70297 L54.0072772,119.70297 C53.3579208,111.684158 46.7285644,104.474307 38.6138614,102.330594 L38.6138614,91.9775743 C40.1893069,90.5623762 41.1881188,88.5171287 41.1881188,86.2376238 C41.1881188,86.095396 41.174604,85.9570297 41.1668812,85.8173762 L48.4996535,78.484604 C56.6555446,85.024505 66.6391584,88.479802 76.9014356,88.479802 C81.9965347,88.479802 87.1592079,87.630297 92.1976733,85.8875248 L94.1412376,85.215 L34.5896535,25.6627723 L34.5896535,25.6627723 Z" id="Fill-5"></path>
            </g>
        </g>
    </g>
</svg>