<?xml version="1.0" encoding="UTF-8"?>
<svg width="140px" height="121px" viewBox="0 0 140 121" version="1.1" xmlns="http://www.w3.org/2000/svg" xmlns:xlink="http://www.w3.org/1999/xlink">
    <!-- Generator: Sketch 42 (36781) - http://www.bohemiancoding.com/sketch -->
    <title>sawblade_C</title>
    <desc>Created with Sketch.</desc>
    <defs>
        <polygon id="path-1" points="0.0375 120.5875 139.82875 120.5875 139.82875 0.155625 0.0375 0.155625"></polygon>
    </defs>
    <g id="D_Network_BK" stroke="none" stroke-width="1" fill="none" fill-rule="evenodd">
        <g id="Industry-Club" transform="translate(-536.000000, -456.000000)">
            <g id="sawblade_C" transform="translate(536.000000, 456.000000)">
                <g id="Group-5">
                    <mask id="mask-2" fill="white">
                        <use xlink:href="#path-1"></use>
                    </mask>
                    <g id="Clip-2"></g>
                    <path d="M75.886875,103.509375 L79.1725,109.690625 L79.051875,115.74875 L87.945,109.508125 L88.970625,99.585 L89.5825,99.2775 C91.843125,98.1425 93.998125,96.815625 95.98875,95.334375 L96.67375,94.825 L102.6025,98.53 L105.52625,103.836875 L110.108125,93.98625 L106.038125,84.8875 L106.415625,84.315 C107.769375,82.264375 108.970625,80.034375 109.98625,77.6875 L110.325,76.905 L117.3125,77.15 L122.498125,80.28375 L121.540625,69.461875 L113.451875,63.606875 L113.491875,62.92375 C113.635625,60.438125 113.563125,57.91 113.2775,55.41125 L113.180625,54.565 L119.36125,51.279375 L125.419375,51.4 L119.17875,42.506875 L109.255625,41.481875 L108.948125,40.869375 C107.814375,38.61125 106.488125,36.455625 105.005625,34.463125 L104.495625,33.778125 L108.20125,27.849375 L113.5075,24.925625 L103.656875,20.34375 L94.55875,24.414375 L93.98625,24.03625 C91.933125,22.681875 89.703125,21.480625 87.35875,20.465625 L86.57625,20.126875 L86.82125,13.139375 L89.954375,7.95375 L79.1325,8.91125 L73.278125,17 L72.594375,16.96 C70.10875,16.81625 67.58125,16.888125 65.081875,17.174375 L64.235625,17.27125 L60.95,11.090625 L61.070625,5.0325 L52.1775,11.2725 L51.1525,21.196875 L50.540625,21.50375 C48.281875,22.6375 46.12625,23.964375 44.13375,25.44625 L43.44875,25.95625 L37.520625,22.25125 L34.59625,16.94375 L30.014375,26.795 L34.085,35.893125 L33.706875,36.465625 C32.3525,38.519375 31.150625,40.749375 30.13625,43.09375 L29.7975,43.87625 L22.81,43.63125 L17.624375,40.4975 L18.581875,51.319375 L26.670625,57.174375 L26.63125,57.8575 C26.486875,60.34375 26.559375,62.87125 26.845625,65.37 L26.9425,66.21625 L20.76125,69.501875 L14.703125,69.38125 L20.94375,78.274375 L30.866875,79.299375 L31.174375,79.91125 C32.309375,82.171875 33.635625,84.326875 35.1175,86.318125 L35.626875,87.003125 L31.921875,92.93125 L26.615,95.855625 L36.46625,100.4375 L45.56375,96.366875 L46.13625,96.745 C48.190625,98.1 50.420625,99.30125 52.76375,100.315625 L53.54625,100.654375 L53.301875,107.64125 L50.168125,112.826875 L60.990625,111.87 L66.845,103.78125 L67.528125,103.820625 C70.01375,103.96375 72.541875,103.8925 75.040625,103.60625 L75.886875,103.509375 Z M76.454375,120.625 L76.660625,110.290625 L74.475,106.18 C72.3425,106.384375 70.194375,106.441875 68.07125,106.35125 L62.346875,114.259375 L45.48,115.751875 L50.82625,106.904375 L50.98875,102.263125 C49.0125,101.365 47.118125,100.34 45.33875,99.206875 L36.445625,103.185625 L21.0925,96.044375 L30.14625,91.055 L32.606875,87.118125 C31.3725,85.390625 30.248125,83.555625 29.25375,81.64625 L19.551875,80.64375 L9.82625,66.783125 L20.16125,66.989375 L24.271875,64.804375 C24.0675,62.67125 24.01,60.52375 24.10125,58.4 L16.1925,52.675625 L14.7,35.809375 L23.546875,41.155625 L28.18875,41.318125 C29.086875,39.341875 30.111875,37.446875 31.245,35.6675 L27.266875,26.775 L34.408125,11.42125 L39.396875,20.475625 L43.33375,22.93625 C45.061875,21.70125 46.8975,20.576875 48.805625,19.583125 L49.808125,9.88125 L63.66875,0.155625 L63.4625,10.490625 L65.648125,14.60125 C67.78,14.39625 69.92875,14.339375 72.051875,14.43 L77.77625,6.52125 L94.6425,5.02875 L89.29625,13.87625 L89.134375,18.518125 C91.110625,19.41625 93.005625,20.44125 94.784375,21.574375 L103.676875,17.595625 L119.03,24.736875 L109.97625,29.725625 L107.515625,33.663125 C108.750625,35.39125 109.875,37.22625 110.869375,39.135 L120.570625,40.1375 L130.29625,53.9975 L119.96125,53.79125 L115.850625,55.976875 C116.055,58.11 116.1125,60.2575 116.021875,62.38125 L123.930625,68.105625 L125.423125,84.971875 L116.575625,79.625625 L111.93375,79.463125 C111.035,81.44125 110.01,83.33625 108.8775,85.11375 L112.855625,94.00625 L105.715,109.359375 L100.72625,100.305625 L96.78875,97.845 C95.061875,99.07875 93.2275,100.203125 91.316875,101.198125 L90.314375,110.9 L76.454375,120.625 L76.454375,120.625 Z" id="Fill-1" fill="#FFFFFF" mask="url(#mask-2)"></path>
                    <path d="M69.879375,49.35625 C64.1,49.35625 59.398125,54.058125 59.398125,59.8375 C59.398125,65.616875 64.1,70.31875 69.879375,70.31875 C75.65875,70.31875 80.360625,65.616875 80.360625,59.8375 C80.360625,54.058125 75.65875,49.35625 69.879375,49.35625 Z M69.879375,72.81875 C62.72125,72.81875 56.898125,66.995 56.898125,59.8375 C56.898125,52.68 62.72125,46.85625 69.879375,46.85625 C77.036875,46.85625 82.860625,52.68 82.860625,59.8375 C82.860625,66.995 77.036875,72.81875 69.879375,72.81875 Z M69.879375,39.30125 C58.555,39.30125 49.3425,48.51375 49.3425,59.8375 C49.3425,71.16125 58.555,80.37375 69.879375,80.37375 C81.203125,80.37375 90.415625,71.16125 90.415625,59.8375 C90.415625,48.51375 81.203125,39.30125 69.879375,39.30125 Z M69.879375,82.87375 C57.176875,82.87375 46.8425,72.539375 46.8425,59.8375 C46.8425,47.135 57.176875,36.80125 69.879375,36.80125 C82.58125,36.80125 92.915625,47.135 92.915625,59.8375 C92.915625,72.539375 82.58125,82.87375 69.879375,82.87375 L69.879375,82.87375 Z" id="Fill-3" fill="#FFFFFF" mask="url(#mask-2)"></path>
                    <polygon id="Fill-4" fill="#FFFFFF" mask="url(#mask-2)" points="0.0375 92.478125 139.82875 92.478125 139.82875 74.951875 0.0375 74.951875"></polygon>
                </g>
                <polygon id="Fill-6" fill="#FFFFFF" points="34.956875 92.478125 139.82875 92.478125 139.82875 74.951875 34.956875 74.951875"></polygon>
            </g>
        </g>
    </g>
</svg>