<?xml version="1.0" encoding="UTF-8"?>
<svg width="150px" height="80px" viewBox="0 0 150 80" version="1.1" xmlns="http://www.w3.org/2000/svg" xmlns:xlink="http://www.w3.org/1999/xlink">
    <!-- Generator: Sketch 42 (36781) - http://www.bohemiancoding.com/sketch -->
    <title>service_C</title>
    <desc>Created with Sketch.</desc>
    <defs>
        <polygon id="path-1" points="149.791034 31.7241379 149.791034 63.4482759 0.0413793103 63.4482759 0.0413793103 0 149.791034 9.80058946e-15"></polygon>
    </defs>
    <g id="D_Network_BK" stroke="none" stroke-width="1" fill="none" fill-rule="evenodd">
        <g id="Industry-Club" transform="translate(-283.000000, -476.000000)">
            <g id="service_C" transform="translate(283.000000, 476.000000)">
                <g id="Group-3" transform="translate(0.000000, 16.551724)">
                    <mask id="mask-2" fill="white">
                        <use xlink:href="#path-1"></use>
                    </mask>
                    <g id="Clip-2"></g>
                    <path d="M135.8,11.0344828 L14.1255172,11.0344828 L6.36689655,2.75862069 L143.472414,2.75862069 L135.8,11.0344828 Z M0,0 L12.9310345,13.7931034 L137.004138,13.7931034 L149.791034,0 L0,0 Z M91.0296552,44.137931 L84.9731034,44.137931 L102.608966,23.1772414 C104.324828,21.5013793 107.084828,21.5158621 108.783448,23.2158621 L108.844828,23.2772414 L91.0296552,44.137931 Z M67.7358621,42.0855172 L75.7710345,33.1034483 L77.5158621,33.1034483 C81.4013793,33.1034483 84.5627586,29.9627586 84.5627586,26.1013793 C84.5627586,25.2855172 84.4117241,24.4944828 84.137931,23.7517241 L84.64,23.1910345 C86.2158621,21.6386207 88.6813793,21.5241379 90.3944828,22.84 L71.1275862,44.0731034 L71.1986207,44.137931 L69.6462069,44.137931 L67.7358621,42.0855172 Z M72.0696552,33.1034483 L65.8489655,40.0572414 L59.377931,33.1034483 L72.0696552,33.1034483 Z M99.3944828,22.7206897 L81.3682759,44.137931 L74.7937931,44.137931 L93.7765517,23.2158621 C95.3027586,21.6889655 97.6813793,21.5268966 99.3944828,22.7206897 Z M119.443448,20.5482759 L118.597241,20.0496552 C115.982759,18.5089655 112.696552,19.0013793 110.647586,21.1862069 C108.065517,18.6868966 104.053103,18.5213793 101.28,20.6875862 C98.6565517,18.6386207 94.9227586,18.6758621 92.3055172,20.8372414 C89.4986207,18.4882759 85.3,18.6282759 82.6634483,21.2655172 L82.6006897,21.3358621 C82.5662069,21.3006897 82.5365517,21.2634483 82.5013793,21.2289655 C81.1813793,19.9441379 79.4413793,19.257931 77.6662069,19.3124138 L5.25241379,19.3124138 L5.25241379,22.0710345 L77.7034483,22.0710345 C78.7737931,22.0413793 79.7958621,22.4455172 80.5765517,23.2062069 C81.3682759,23.9765517 81.8041379,25.0048276 81.8041379,26.1013793 C81.8041379,28.4013793 79.8406897,30.3448276 77.5158621,30.3448276 L55.1165517,30.3448276 C51.7268966,30.3448276 49.3896552,31.7944828 47.1296552,33.1965517 C44.9193103,34.5675862 42.8317241,35.862069 39.6868966,35.862069 L32.8386207,35.862069 L32.8386207,38.6206897 L39.6868966,38.6206897 C43.6172414,38.6206897 46.2551724,36.9848276 48.5827586,35.5406897 C50.6917241,34.2331034 52.5131034,33.1034483 55.1165517,33.1034483 L55.6103448,33.1034483 L68.4448276,46.8965517 L92.3013793,46.8965517 L112.514483,23.2268966 C113.675172,21.8489655 115.643448,21.5110345 117.196552,22.4262069 L118.042759,22.9248276 C118.68,23.3006897 119.117931,23.9337931 119.242759,24.6627586 C119.368276,25.3910345 119.167586,26.1337931 118.697241,26.6951724 L90.5227586,59.9558621 C90.0303448,60.4296552 89.3848276,60.6896552 88.7006897,60.6896552 L65.1586207,60.6896552 C64.982069,60.6896552 64.8048276,60.6482759 64.6268966,60.5593103 L30.3937931,44.137931 L5.25241379,44.137931 L5.25241379,46.8965517 L29.7662069,46.8965517 L63.4131034,63.0365517 C63.9517241,63.3062069 64.5551724,63.4482759 65.1586207,63.4482759 L88.7006897,63.4482759 C90.1393103,63.4482759 91.4917241,62.8882759 92.5096552,61.8710345 L120.807586,28.4724138 C121.804138,27.2827586 122.224828,25.7234483 121.961379,24.1944828 C121.698621,22.6648276 120.78069,21.3365517 119.443448,20.5482759 L119.443448,20.5482759 Z" id="Fill-1" fill="#FFFFFF" mask="url(#mask-2)"></path>
                </g>
                <polygon id="Fill-4" fill="#FFFFFF" points="21.4593103 16.5517241 131.804138 16.5517241 131.804138 0 21.4593103 0"></polygon>
                <polygon id="Fill-5" fill="#FFFFFF" points="49.04 16.5517241 131.798621 16.5517241 131.798621 0 49.04 0"></polygon>
            </g>
        </g>
    </g>
</svg>