<?xml version="1.0" encoding="UTF-8"?>
<svg width="130px" height="103px" viewBox="0 0 130 103" version="1.1" xmlns="http://www.w3.org/2000/svg" xmlns:xlink="http://www.w3.org/1999/xlink">
    <!-- Generator: Sketch 42 (36781) - http://www.bohemiancoding.com/sketch -->
    <title>shoppingcart_C</title>
    <desc>Created with Sketch.</desc>
    <defs></defs>
    <g id="D_Network_BK" stroke="none" stroke-width="1" fill="none" fill-rule="evenodd">
        <g id="Industry-Club" transform="translate(-293.000000, -648.000000)" fill="#FFFFFF">
            <g id="shoppingcart_C" transform="translate(293.000000, 648.000000)">
                <path d="M22.5637838,9.67972973 C22.5033514,9.40216216 20.9918378,2.81081081 15.3884865,2.81081081 L0,2.81081081 L0,0 L15.3884865,0 C21.6594054,0 24.6037297,5.87459459 25.3001081,9.03324324 L26.995027,14.6815676 L24.3022703,15.488973 L22.5637838,9.67972973 Z M113.837838,99.7837838 C109.963135,99.7837838 106.810811,96.6314595 106.810811,92.7567568 C106.810811,88.8820541 109.963135,85.7297297 113.837838,85.7297297 C117.712541,85.7297297 120.864865,88.8820541 120.864865,92.7567568 C120.864865,96.6314595 117.712541,99.7837838 113.837838,99.7837838 Z M42.1621622,92.7567568 C42.1621622,96.6314595 39.0098378,99.7837838 35.1351351,99.7837838 C31.2604324,99.7837838 28.1081081,96.6314595 28.1081081,92.7567568 C28.1081081,88.8820541 31.2604324,85.7297297 35.1351351,85.7297297 C39.0098378,85.7297297 42.1621622,88.8820541 42.1621622,92.7567568 Z M36.5405405,82.9189189 L112.432432,82.9189189 L112.432432,77.2972973 L36.5405405,77.2972973 L36.5405405,82.9189189 Z M115.243243,83.0313514 L115.243243,74.4864865 L27.4447568,74.4864865 L35.6333514,61.0114595 L33.2315135,59.5519459 L22.4471351,77.2972973 L33.7297297,77.2972973 L33.7297297,83.0313514 C28.9703243,83.7164865 25.2972973,87.8104324 25.2972973,92.7567568 C25.2972973,98.1816216 29.7102703,102.594595 35.1351351,102.594595 C40.56,102.594595 44.972973,98.1816216 44.972973,92.7567568 C44.972973,90.004973 43.8338919,87.5167027 42.0068649,85.7297297 L106.966108,85.7297297 C105.139081,87.5167027 104,90.004973 104,92.7567568 C104,98.1816216 108.412973,102.594595 113.837838,102.594595 C119.262703,102.594595 123.675676,98.1816216 123.675676,92.7567568 C123.675676,87.8104324 120.002649,83.7164865 115.243243,83.0313514 L115.243243,83.0313514 Z" id="Fill-1"></path>
                <polyline id="Fill-2" points="22.4864865 9.47594595 30.8275676 68.8648649 115.188432 68.8648649 129.30573 18.3166486 22.4864865 9.47594595"></polyline>
                <polyline id="Fill-3" points="50.5945946 68.8648649 50.5945946 11.7829189 22.4864865 9.47594595 30.8275676 68.8648649 50.5945946 68.8648649"></polyline>
                <polyline id="Fill-4" points="50.5945946 11.7829189 50.5945946 68.8648649 78.7027027 68.8648649 78.7027027 14.0786486 50.5945946 11.7829189"></polyline>
                <polyline id="Fill-5" points="78.7027027 68.8648649 106.810811 68.8648649 106.810811 16.3750811 78.7027027 14.0786486 78.7027027 68.8648649"></polyline>
            </g>
        </g>
    </g>
</svg>