<?xml version="1.0" encoding="UTF-8"?>
<svg width="80px" height="130px" viewBox="0 0 80 130" version="1.1" xmlns="http://www.w3.org/2000/svg" xmlns:xlink="http://www.w3.org/1999/xlink">
    <!-- Generator: Sketch 42 (36781) - http://www.bohemiancoding.com/sketch -->
    <title>shuttle_C</title>
    <desc>Created with Sketch.</desc>
    <defs>
        <polygon id="path-1" points="0.0373205742 129.962679 0.0373205742 0 79.6172249 0 79.6172249 129.962679"></polygon>
    </defs>
    <g id="D_Network_BK" stroke="none" stroke-width="1" fill="none" fill-rule="evenodd">
        <g id="Industry-Club" transform="translate(-1360.000000, -39.000000)">
            <g id="shuttle_C" transform="translate(1360.000000, 39.000000)">
                <path d="M33.5885167,16.7942584 L45.4066986,16.7942584" id="Stroke-1" stroke="#FFFFFF" stroke-width="4"></path>
                <g id="Group-8">
                    <mask id="mask-2" fill="white">
                        <use xlink:href="#path-1"></use>
                    </mask>
                    <g id="Clip-3"></g>
                    <polyline id="Fill-2" fill="#FFFFFF" mask="url(#mask-2)" points="59.7129187 82.1052632 59.7129187 81.4832536 55.9808612 81.4832536 55.9808612 87.3923445 58.4688995 90.8133971 58.4688995 101.38756 47.5837321 101.38756 44.1626794 96.4114833 36.0846411 96.4114833 33.1736364 101.38756 21.1483254 101.38756 21.1483254 91.1244019 23.6363636 87.0813397 23.6363636 82.1052632 19.9043062 82.1052632 19.9043062 81.4832536 0 81.4832536 0 130 79.6172249 130 79.6172249 82.1052632 59.7129187 82.1052632"></polyline>
                    <polygon id="Fill-4" fill="#FFFFFF" mask="url(#mask-2)" points="59.7129187 129.962679 79.6172249 129.962679 79.6172249 82.1052632 59.7129187 82.1052632"></polygon>
                    <polyline id="Fill-5" fill="#FFFFFF" mask="url(#mask-2)" points="55.9808612 81.4832536 55.9808612 87.3923445 58.4688995 90.8133971 58.4688995 101.38756 47.5837321 101.38756 44.1626794 96.4114833 39.8086124 96.4114833 39.8086124 130 59.7129187 130 59.7129187 81.4832536 55.9808612 81.4832536"></polyline>
                    <polyline id="Fill-6" fill="#FFFFFF" mask="url(#mask-2)" points="23.6363636 82.1052632 23.6363636 87.0813397 21.1483254 91.1244019 21.1483254 101.38756 33.1736364 101.38756 36.0846411 96.4114833 39.8086124 96.4114833 39.8086124 130 19.9043062 130 19.9043062 82.1052632 23.6363636 82.1052632"></polyline>
                    <path d="M77.1291866,80.2392344 L54.7368421,80.2392344 L54.7368421,87.5148804 L57.2248804,90.9807177 L57.2248804,100.143541 L48.2374641,100.143541 L44.8164115,95.1755502 L41.0526316,95.1755502 L41.0526316,77.7511962 L38.5645933,77.7511962 L38.5645933,95.1755502 L35.0769856,95.1755502 L31.9669378,100.143541 L22.3923445,100.143541 L22.3923445,91.192823 L24.8803828,87.4937321 L24.8803828,80.2392344 L2.48803828,80.2392344 L2.48803828,75.2631579 L29.8564593,75.2631579 L29.8564593,87.8072249 L32.3444976,87.8072249 L32.3444976,33.277512 C32.3444976,31.3138278 32.631866,28.0202871 32.9721053,26.0852153 L36.6556459,5.134689 C36.9075598,3.70033493 38.351866,2.48803828 39.8086124,2.48803828 L40.1196172,2.48803828 C41.5695215,2.48803828 42.9926794,3.69722488 43.226555,5.12784689 L46.6345455,25.9595694 C46.9579904,27.9356938 47.2204785,31.1720096 47.2204785,33.1736364 L47.2204785,87.7033493 L49.7085167,87.7033493 L49.7085167,75.2631579 L77.1291866,75.2631579 L77.1291866,80.2392344 Z M5.14712919,65.7557416 L19.8738278,58.7133493 C22.0197608,57.6870335 24.3323923,55.1287081 25.1378947,52.8907177 L29.8564593,39.7837321 L29.8564593,72.7751196 L2.48803828,72.7751196 L2.48803828,69.9760766 C2.48803828,68.4055024 3.7308134,66.4337321 5.14712919,65.7557416 Z M60.6285167,58.762488 L74.4788038,65.6879426 C75.8907656,66.3939234 77.1291866,68.3974163 77.1291866,69.9760766 L77.1291866,72.7751196 L49.7085167,72.7751196 L49.7085167,39.4515789 L55.2773684,53.0014354 C56.1724402,55.1790909 58.5230144,57.7094258 60.6285167,58.762488 Z M75.5915789,63.4623923 L61.7412919,56.5369378 C60.1850239,55.7594258 58.24,53.6651196 57.5788038,52.0559809 L49.7047847,32.8949761 C49.6830144,30.7701914 49.4174163,27.558756 49.0896172,25.5577512 L45.6816268,4.72665072 C45.2555502,2.12043062 42.7606699,0 40.1196172,0 L39.8086124,0 C37.1302392,0 34.6689474,2.06631579 34.2049282,4.70425837 L30.5213876,25.6547847 C30.2022967,27.4716746 29.9348325,30.2987081 29.8707656,32.3973684 L22.7966507,52.0478947 C22.2156938,53.6626316 20.347799,55.7283254 18.8002392,56.4691388 L4.07354067,63.5115311 C1.78952153,64.6044019 0,67.4438756 0,69.9760766 L0,82.7272727 L22.3923445,82.7272727 L22.3923445,86.7348804 L19.9043062,90.4339713 L19.9043062,102.631579 L33.344067,102.631579 L36.4541148,97.6635885 L43.5089474,97.6635885 L46.93,102.631579 L59.7129187,102.631579 L59.7129187,90.1795694 L57.2248804,86.7143541 L57.2248804,82.7272727 L79.6172249,82.7272727 L79.6172249,69.9760766 C79.6172249,67.4519617 77.8488517,64.5907177 75.5915789,63.4623923 L75.5915789,63.4623923 Z" id="Fill-7" fill="#FFFFFF" mask="url(#mask-2)"></path>
                </g>
            </g>
        </g>
    </g>
</svg>