<?xml version="1.0" encoding="UTF-8"?>
<svg width="89px" height="130px" viewBox="0 0 89 130" version="1.1" xmlns="http://www.w3.org/2000/svg" xmlns:xlink="http://www.w3.org/1999/xlink">
    <!-- Generator: Sketch 42 (36781) - http://www.bohemiancoding.com/sketch -->
    <title>stethoscope_C</title>
    <desc>Created with Sketch.</desc>
    <defs>
        <polygon id="path-1" points="85.5840323 129.958065 0.000211195656 129.958065 0.000211195656 0.592688172 85.5840323 0.592688172"></polygon>
    </defs>
    <g id="D_Network_BK" stroke="none" stroke-width="1" fill="none" fill-rule="evenodd">
        <g id="Industry-Club" transform="translate(-1089.000000, -39.000000)">
            <g id="stethoscope_C" transform="translate(1089.000000, 39.000000)">
                <path d="M65.6059677,61.7842473 C52.8617742,61.7842473 42.5316667,72.1143548 42.5316667,84.8564516 C42.5316667,96.0937634 50.5686022,105.452366 61.2090323,107.506505 L61.2090323,98.3666667 C55.519086,96.5103226 51.3926344,91.1600538 51.3926344,84.8578495 C51.3926344,77.0208065 57.766129,70.6445161 65.6017742,70.6445161 C73.4402151,70.6445161 79.8179032,77.0208065 79.8179032,84.8578495 C79.8179032,91.0622043 75.8130645,96.3369892 70.2566129,98.270914 L70.2566129,107.459677 C80.7691398,105.307688 88.678871,96.0043011 88.678871,84.8564516 C88.678871,72.1143548 78.3480645,61.7842473 65.6059677,61.7842473" id="Fill-1" fill="#FFFFFF"></path>
                <path d="M51.3926344,84.8599462 L42.5316667,84.8599462 C42.5316667,89.0625806 43.6625269,93.0003226 45.6265054,96.3936022 L57.3265054,96.3936022 C53.7382258,93.8145699 51.3926344,89.6077419 51.3926344,84.8599462" id="Fill-2" fill="#FFFFFF"></path>
                <path d="M79.8179032,84.8599462 C79.8165054,89.6147312 77.4604301,93.8166667 73.8595699,96.3936022 L85.5826344,96.3936022 C87.5347312,93.0205914 88.6620968,89.1108065 88.6760753,84.9375269 L88.6760753,84.8599462 L79.8179032,84.8599462" id="Fill-3" fill="#FFFFFF"></path>
                <path d="M51.3926344,84.8578495 C51.3926344,80.1058602 53.7445161,75.901129 57.3362903,73.3193011 L45.6265054,73.3193011 C43.6625269,76.7139785 42.5316667,80.6517204 42.5316667,84.8564516 L42.5316667,84.8592473 L51.3926344,84.8592473 L51.3926344,84.8578495" id="Fill-4" fill="#FFFFFF"></path>
                <path d="M85.5826344,73.3193011 L73.8700538,73.3193011 C77.4646237,75.901129 79.8179032,80.1058602 79.8179032,84.8578495 L79.8179032,84.8592473 L88.6760753,84.8592473 L88.6760753,84.7746774 C88.6620968,80.6020968 87.5347312,76.6923118 85.5826344,73.3193011" id="Fill-5" fill="#FFFFFF"></path>
                <g id="Group-9">
                    <mask id="mask-2" fill="white">
                        <use xlink:href="#path-1"></use>
                    </mask>
                    <g id="Clip-7"></g>
                    <path d="M65.6017742,70.6445161 C68.686828,70.6445161 71.5384409,71.6432796 73.8714516,73.32 L85.5840323,73.32 C81.5980645,66.4334946 74.1594086,61.7947312 65.6332258,61.7842473 L65.5787097,61.7842473 C57.0497312,61.7947312 49.6110753,66.4334946 45.6265054,73.32 L57.3362903,73.32 C59.6679032,71.6432796 62.5167204,70.6445161 65.6017742,70.6445161" id="Fill-6" fill="#FFFFFF" mask="url(#mask-2)"></path>
                    <path d="M65.6017742,97.5244624 C58.6195161,97.5244624 52.937957,91.8422043 52.937957,84.8578495 C52.937957,77.8720968 58.6195161,72.1898387 65.6017742,72.1898387 C72.5882258,72.1898387 78.2725806,77.8720968 78.2725806,84.8578495 C78.2725806,91.8422043 72.5882258,97.5244624 65.6017742,97.5244624 Z M68.4072581,108.39414 C68.4072581,118.766183 59.9698387,127.204301 49.5977957,127.204301 C39.2243548,127.204301 30.7855376,118.766183 30.7855376,108.39414 L30.7855376,70.1601613 C31.6997312,70.2866667 32.6293011,70.3572581 33.577043,70.3572581 C34.5310753,70.3572581 35.4655376,70.2859677 36.3839247,70.1573656 L36.3839247,108.392742 C36.3839247,115.676237 42.3122043,121.602419 49.5977957,121.602419 C56.8847849,121.602419 62.8116667,115.676237 62.8116667,108.392742 L62.8116667,100.062258 C63.718172,100.228602 64.6491398,100.320161 65.6017742,100.320161 C66.56,100.320161 67.4965591,100.227903 68.4072581,100.060161 L68.4072581,108.39414 Z M11.6154301,44.6927419 C14.3936559,48.1097849 17.5101613,50.7894624 20.9076344,52.6800538 C23.7781183,58.5552151 28.2868817,61.9317204 33.577043,61.9317204 C38.8623118,61.9317204 43.3675806,58.5615054 46.2394624,52.6989247 C49.6334409,50.8167204 52.7471505,48.1510215 55.5232796,44.747957 C51.4583333,59.2555376 43.4877957,67.5608602 33.577043,67.5608602 C23.6544086,67.5608602 15.6754839,59.233871 11.6154301,44.6927419 Z M33.5910215,55.9761828 C36.427957,55.9761828 39.1544624,55.5351613 41.7495699,54.6775806 C39.5276882,57.543871 36.7110215,59.1360215 33.577043,59.1360215 C30.438172,59.1360215 27.6166129,57.5403763 25.3926344,54.6636022 C27.9996237,55.5302688 30.7387097,55.9761828 33.5910215,55.9761828 Z M21.4178495,3.38908602 L23.9912903,3.3883871 C25.4122043,3.3883871 26.5682258,4.53112903 26.5682258,5.93596774 C26.5682258,7.3366129 25.4122043,8.47865591 23.9919892,8.48005376 L21.4178495,8.48005376 L21.4178495,3.38908602 Z M45.7641935,8.48005376 L43.1914516,8.48005376 C41.7705376,8.47865591 40.6138172,7.3366129 40.6138172,5.93596774 C40.6138172,4.53112903 41.7705376,3.3883871 43.1914516,3.3883871 L45.7641935,3.38908602 L45.7641935,8.48005376 Z M81.0682796,84.8578495 C81.0682796,76.3309677 74.1293548,69.3941398 65.6017742,69.3941398 C57.0769892,69.3941398 50.1422581,76.3309677 50.1422581,84.8578495 C50.1422581,91.4137634 54.2442473,97.026828 60.0159677,99.2717742 L60.0159677,108.392742 C60.0159677,114.135108 55.3436559,118.80672 49.5977957,118.80672 C43.8533333,118.80672 39.1789247,114.135108 39.1789247,108.392742 L39.1789247,69.5562903 C47.9448387,66.9856452 54.8012903,58.2756452 58.416129,44.7822043 C58.9333333,42.8517742 59.1534946,41.1547849 59.0947849,39.6604839 C62.0295699,34.8197312 64.4513441,28.9746237 66.2601613,22.2216129 C67.5825269,17.2851075 67.4832796,13.4955376 65.9484409,10.6928495 C65.891129,10.5894086 65.8275269,10.4901613 65.7674194,10.3895161 C65.7136022,10.3000538 65.6632796,10.2084946 65.6073656,10.121828 C65.4843548,9.93241935 65.3536559,9.74790323 65.2159677,9.56827957 C62.3231183,5.79827957 56.5814516,4.51016129 48.5598925,4.06844086 L48.5598925,0.594086022 L43.1914516,0.592688172 C40.2294086,0.592688172 37.8181183,2.99 37.8181183,5.93596774 C37.8181183,8.87704301 40.2266129,11.2722581 43.1886559,11.2757527 L48.5598925,11.2757527 L48.5598925,6.88021505 C55.5456452,7.2911828 60.7791935,8.3794086 62.9975806,11.2701613 C64.6449462,13.417957 64.8294624,16.7630108 63.5595161,21.4982258 C58.1652151,41.6328495 47.2417204,53.1804839 33.5910215,53.1804839 C19.9410215,53.1804839 9.01752688,41.6328495 3.62182796,21.4982258 C2.35327957,16.7623118 2.53639785,13.4165591 4.18376344,11.2701613 C4.33822581,11.068172 4.50806452,10.8773656 4.68978495,10.6928495 L4.69327957,10.6928495 C7.14301075,8.23193548 12.1235484,7.26182796 18.6221505,6.87951613 L18.6221505,11.2757527 L23.9947849,11.2757527 C26.956129,11.2722581 29.3639247,8.87704301 29.3639247,5.93596774 C29.3639247,2.99 26.9533333,0.592688172 23.9912903,0.592688172 L18.6221505,0.594086022 L18.6221505,4.06844086 C10.5998925,4.51016129 4.85892473,5.79827957 1.96607527,9.56827957 C-0.246021505,12.4513441 -0.587096774,16.5903763 0.92188172,22.2216129 C2.72650538,28.9557527 5.13849462,34.7868817 8.06209677,39.6206452 C7.9977957,41.1247312 8.21516129,42.8343011 8.73725806,44.7822043 C12.3555914,58.2840323 19.2183333,66.996129 27.9898387,69.5611828 L27.9898387,108.39414 C27.9898387,120.308011 37.6825269,130 49.5977957,130 C61.5109677,130 71.202957,120.308011 71.202957,108.39414 L71.202957,99.2661828 C76.969086,97.0177419 81.0682796,91.4095699 81.0682796,84.8578495 Z M65.603172,80.5937097 C63.254086,80.5937097 61.341828,82.5059677 61.341828,84.8578495 C61.341828,87.2083333 63.254086,89.1198925 65.603172,89.1198925 C67.9550538,89.1198925 69.8680108,87.2083333 69.8680108,84.8578495 C69.8680108,82.5059677 67.9550538,80.5937097 65.603172,80.5937097 Z M65.603172,91.9155914 C61.712957,91.9155914 58.546129,88.7494624 58.546129,84.8578495 C58.546129,80.9648387 61.712957,77.7980108 65.603172,77.7980108 C69.4968817,77.7980108 72.6637097,80.9648387 72.6637097,84.8578495 C72.6637097,88.7494624 69.4968817,91.9155914 65.603172,91.9155914 L65.603172,91.9155914 Z" id="Fill-8" fill="#FFFFFF" mask="url(#mask-2)"></path>
                </g>
            </g>
        </g>
    </g>
</svg>