<?xml version="1.0" encoding="UTF-8"?>
<svg width="140px" height="87px" viewBox="0 0 140 87" version="1.1" xmlns="http://www.w3.org/2000/svg" xmlns:xlink="http://www.w3.org/1999/xlink">
    <!-- Generator: Sketch 42 (36781) - http://www.bohemiancoding.com/sketch -->
    <title>tank_C</title>
    <desc>Created with Sketch.</desc>
    <defs>
        <polygon id="path-1" points="0.0362068966 86.8603448 139.999397 86.8603448 139.999397 0 0.0362068966 0"></polygon>
    </defs>
    <g id="D_Network_BK" stroke="none" stroke-width="1" fill="none" fill-rule="evenodd">
        <g id="Industry-Club" transform="translate(-802.000000, -656.000000)">
            <g id="tank_C" transform="translate(802.000000, 656.000000)">
                <mask id="mask-2" fill="white">
                    <use xlink:href="#path-1"></use>
                </mask>
                <g id="Clip-2"></g>
                <polygon id="Fill-1" fill="#FFFFFF" mask="url(#mask-2)" points="0.151465517 86.8603448 123.254914 86.8603448 123.254914 57.9310345 0.151465517 57.9310345"></polygon>
                <polygon id="Fill-3" fill="#FFFFFF" mask="url(#mask-2)" points="0.1575 86.8603448 92.4850862 86.8603448 92.4850862 57.9316379 0.1575 57.9316379"></polygon>
                <path d="M45.8614655,21.7241379 L45.8614655,9.65517241 L137.585603,9.65517241 L137.585603,14.4827586 L86.8959483,14.4827586 L86.8959483,21.7241379 L45.8614655,21.7241379 Z M31.3787069,21.7241379 L43.4476724,21.7241379 L43.4476724,9.65517241 L31.3787069,9.65517241 L31.3787069,21.7241379 Z M24.1373276,21.7241379 L28.9649138,21.7241379 L28.9649138,9.65517241 L24.1373276,9.65517241 L24.1373276,21.7241379 Z M45.8614655,7.24137931 L67.5856034,7.24137931 L67.5856034,2.4137931 L45.8614655,2.4137931 L45.8614655,7.24137931 Z M139.999397,16.8965517 L139.999397,7.24137931 L69.9993966,7.24137931 L69.9993966,0 L43.4476724,0 L43.4476724,7.24137931 L21.7235345,7.24137931 L21.7235345,21.7241379 L16.8965517,21.7241379 C11.6821552,21.7241379 6.94327586,24.4800862 4.35508621,28.9655172 L0,28.9655172 L0,31.3793103 L5.81060345,31.3793103 L6.14612069,30.7221552 C8.2237931,26.6609483 12.342931,24.137931 16.8965517,24.137931 L94.137931,24.137931 C98.6909483,24.137931 102.809483,26.6609483 104.887155,30.7221552 L105.222672,31.3793103 L113.447672,31.3793103 L113.447672,28.9655172 L106.67819,28.9655172 C104.090603,24.4800862 99.3523276,21.7241379 94.137931,21.7241379 L89.3097414,21.7241379 L89.3097414,16.8965517 L139.999397,16.8965517 Z M113.447672,36.2068966 L113.447672,38.6206897 L102.155948,38.6206897 C103.984397,39.8372414 105.540086,41.4743966 106.67819,43.4482759 L113.447672,43.4482759 L113.447672,45.862069 L105.222672,45.862069 L104.887155,45.2049138 C102.809483,41.1437069 98.6909483,38.6206897 94.137931,38.6206897 L16.8965517,38.6206897 C12.342931,38.6206897 8.2237931,41.1437069 6.14612069,45.2049138 L5.81060345,45.862069 L0,45.862069 L0,43.4482759 L4.35508621,43.4482759 C5.4937931,41.4743966 7.04948276,39.8372414 8.87793103,38.6206897 L0,38.6206897 L0,36.2068966 L113.447672,36.2068966 Z M94.1373276,55.5172414 C91.4755172,55.5172414 89.3097414,53.3514655 89.3097414,50.6896552 C89.3097414,48.0278448 91.4755172,45.862069 94.1373276,45.862069 C96.7991379,45.862069 98.9649138,48.0278448 98.9649138,50.6896552 C98.9649138,53.3514655 96.7991379,55.5172414 94.1373276,55.5172414 Z M94.1373276,43.4482759 C90.1443103,43.4482759 86.8959483,46.6966379 86.8959483,50.6896552 C86.8959483,54.6826724 90.1443103,57.9310345 94.1373276,57.9310345 C98.1303448,57.9310345 101.378707,54.6826724 101.378707,50.6896552 C101.378707,46.6966379 98.1303448,43.4482759 94.1373276,43.4482759 Z M74.8269828,55.5172414 C72.1651724,55.5172414 69.9993966,53.3514655 69.9993966,50.6896552 C69.9993966,48.0278448 72.1651724,45.862069 74.8269828,45.862069 C77.4887931,45.862069 79.654569,48.0278448 79.654569,50.6896552 C79.654569,53.3514655 77.4887931,55.5172414 74.8269828,55.5172414 Z M74.8269828,43.4482759 C70.8339655,43.4482759 67.5856034,46.6966379 67.5856034,50.6896552 C67.5856034,54.6826724 70.8339655,57.9310345 74.8269828,57.9310345 C78.82,57.9310345 82.0683621,54.6826724 82.0683621,50.6896552 C82.0683621,46.6966379 78.82,43.4482759 74.8269828,43.4482759 Z M55.5166379,55.5172414 C52.8548276,55.5172414 50.6890517,53.3514655 50.6890517,50.6896552 C50.6890517,48.0278448 52.8548276,45.862069 55.5166379,45.862069 C58.1784483,45.862069 60.3442241,48.0278448 60.3442241,50.6896552 C60.3442241,53.3514655 58.1784483,55.5172414 55.5166379,55.5172414 Z M55.5166379,43.4482759 C51.5236207,43.4482759 48.2752586,46.6966379 48.2752586,50.6896552 C48.2752586,54.6826724 51.5236207,57.9310345 55.5166379,57.9310345 C59.5096552,57.9310345 62.7580172,54.6826724 62.7580172,50.6896552 C62.7580172,46.6966379 59.5096552,43.4482759 55.5166379,43.4482759 Z M36.2068966,55.5172414 C33.5450862,55.5172414 31.3793103,53.3514655 31.3793103,50.6896552 C31.3793103,48.0278448 33.5450862,45.862069 36.2068966,45.862069 C38.8687069,45.862069 41.0344828,48.0278448 41.0344828,50.6896552 C41.0344828,53.3514655 38.8687069,55.5172414 36.2068966,55.5172414 Z M36.2068966,43.4482759 C32.2138793,43.4482759 28.9655172,46.6966379 28.9655172,50.6896552 C28.9655172,54.6826724 32.2138793,57.9310345 36.2068966,57.9310345 C40.1999138,57.9310345 43.4482759,54.6826724 43.4482759,50.6896552 C43.4482759,46.6966379 40.1999138,43.4482759 36.2068966,43.4482759 Z M16.8965517,55.5172414 C14.2347414,55.5172414 12.0689655,53.3514655 12.0689655,50.6896552 C12.0689655,48.0278448 14.2347414,45.862069 16.8965517,45.862069 C19.5583621,45.862069 21.7241379,48.0278448 21.7241379,50.6896552 C21.7241379,53.3514655 19.5583621,55.5172414 16.8965517,55.5172414 Z M16.8965517,43.4482759 C12.9035345,43.4482759 9.65517241,46.6966379 9.65517241,50.6896552 C9.65517241,54.6826724 12.9035345,57.9310345 16.8965517,57.9310345 C20.889569,57.9310345 24.137931,54.6826724 24.137931,50.6896552 C24.137931,46.6966379 20.889569,43.4482759 16.8965517,43.4482759 L16.8965517,43.4482759 Z" id="Fill-4" fill="#FFFFFF" mask="url(#mask-2)"></path>
            </g>
        </g>
    </g>
</svg>