<?xml version="1.0" encoding="UTF-8"?>
<svg width="141px" height="130px" viewBox="0 0 141 130" version="1.1" xmlns="http://www.w3.org/2000/svg" xmlns:xlink="http://www.w3.org/1999/xlink">
    <!-- Generator: Sketch 42 (36781) - http://www.bohemiancoding.com/sketch -->
    <title>telephone_poles_C</title>
    <desc>Created with Sketch.</desc>
    <defs>
        <polygon id="path-1" points="0.040625 129.959375 140.833333 129.959375 140.833333 0 0.040625 0"></polygon>
    </defs>
    <g id="D_Network_BK" stroke="none" stroke-width="1" fill="none" fill-rule="evenodd">
        <g id="Industry-Club" transform="translate(-535.000000, -39.000000)">
            <g id="telephone_poles_C" transform="translate(535.000000, 39.000000)">
                <mask id="mask-2" fill="white">
                    <use xlink:href="#path-1"></use>
                </mask>
                <g id="Clip-2"></g>
                <path d="M95.5730208,27.4821354 C97.6489583,25.6824479 99.2969792,23.7297396 100.487292,21.6666667 L102.496198,21.6666667 C105.958802,27.6202604 112.988281,32.3598438 121.905469,35.1494271 C111.628021,34.7228646 102.139375,31.8696354 95.5730208,27.4821354 Z M75.8333333,33.7607292 L75.8333333,30.0902604 C79.5532292,27.6811979 82.4714583,24.8232292 84.3375,21.6666667 L86.0985937,21.6666667 C87.3383333,23.7805208 89.0317187,25.7427083 91.1029167,27.5186979 C87.0383854,30.2744271 81.8004687,32.4397396 75.8333333,33.7607292 Z M73.125,108.333333 L67.7083333,108.333333 L67.7083333,37.6986458 C69.5472917,37.5530729 71.3557812,37.3323438 73.125,37.041875 L73.125,108.333333 Z M64.7880729,35.1555208 C64.8584896,35.1338542 64.9295833,35.1128646 65,35.0905208 L65,35.1467188 C64.9295833,35.1494271 64.8584896,35.1534896 64.7880729,35.1555208 Z M34.8251042,35.2083333 C43.9528646,32.3794792 51.0744271,27.5390104 54.5458333,21.6666667 L65,21.6666667 L65,32.2934896 C59.418125,34.1432813 52.9458854,35.2083333 46.0416667,35.2083333 L34.8251042,35.2083333 Z M38.2958333,21.6666667 L51.3899479,21.6666667 C46.0511458,29.1795833 33.5454167,34.6036979 18.744375,35.1561979 C27.7915625,32.3198958 34.8454167,27.503125 38.2958333,21.6666667 Z M32.5,18.9583333 L32.5,13.5416667 L37.9166667,13.5416667 C37.9166667,15.4110938 37.4995833,17.2263542 36.716875,18.9583333 L32.5,18.9583333 Z M54.1666667,13.5416667 C54.1666667,15.4110938 53.7495833,17.2263542 52.966875,18.9583333 L39.60125,18.9583333 C40.2634375,17.2148438 40.625,15.4036458 40.625,13.5416667 L54.1666667,13.5416667 Z M65,13.5416667 L65,18.9583333 L55.85125,18.9583333 C56.5134375,17.2148438 56.875,15.4036458 56.875,13.5416667 L65,13.5416667 Z M73.125,31.6902083 L73.125,34.2942708 C71.3693229,34.5969271 69.5608333,34.8284896 67.7083333,34.9821875 L67.7083333,34.1453125 C69.6271875,33.4160938 71.4404167,32.5961458 73.125,31.6902083 Z M67.7083333,2.70833333 L73.125,2.70833333 L73.125,28.6846354 C71.4688542,29.6521875 69.6549479,30.5296875 67.7083333,31.3069792 L67.7083333,2.70833333 Z M81.1816146,21.6666667 C79.8315104,23.5672396 78.0223437,25.3323958 75.8333333,26.9201563 L75.8333333,21.6666667 L81.1816146,21.6666667 Z M83.9583333,13.5416667 C83.9583333,15.4110938 83.54125,17.2263542 82.7585417,18.9583333 L75.8333333,18.9583333 L75.8333333,13.5416667 L83.9583333,13.5416667 Z M93.3460938,25.8388542 C91.7569792,24.5469792 90.4021354,23.1515104 89.3276042,21.6666667 L97.2745313,21.6666667 C96.2291146,23.1454167 94.9088021,24.5429167 93.3460938,25.8388542 Z M100.039063,13.5416667 C100.039063,15.4110938 99.6240104,17.2263542 98.8446875,18.9583333 L85.6429167,18.9583333 C86.3051042,17.2148438 86.6666667,15.4036458 86.6666667,13.5416667 L100.039063,13.5416667 Z M108.333333,13.5416667 L108.333333,18.9583333 L101.7575,18.9583333 C102.404115,17.2040104 102.747396,15.3914583 102.747396,13.5416667 L108.333333,13.5416667 Z M140.833333,35.2083333 C125.455417,35.2083333 111.509531,29.7334375 105.723177,21.6666667 L111.041667,21.6666667 L111.041667,10.8333333 L102.916667,10.8333333 L102.916667,8.125 L100.208333,8.125 L100.208333,10.8333333 L86.6666667,10.8333333 L86.6666667,8.125 L83.9583333,8.125 L83.9583333,10.8333333 L75.8333333,10.8333333 L75.8333333,0 L65,0 L65,10.8333333 L56.875,10.8333333 L56.875,8.125 L54.1666667,8.125 L54.1666667,10.8333333 L40.625,10.8333333 L40.625,8.125 L37.9166667,8.125 L37.9166667,10.8333333 L29.7916667,10.8333333 L29.7916667,21.6666667 L35.1399479,21.6666667 C29.5032292,29.5986979 15.8803125,35.2083333 0,35.2083333 L0,37.9166667 L62.2916667,37.9166667 C63.2003125,37.9166667 64.1021875,37.8922917 65,37.8577604 L65,111.041667 L75.8333333,111.041667 L75.8333333,36.5415104 C81.3468229,35.3789583 86.3998958,33.5007292 90.6634896,30.9867187 C91.6039583,30.4315104 92.4909375,29.8526042 93.3278125,29.2533854 C100.904375,34.636875 112.223177,37.9166667 124.583333,37.9166667 L140.15625,37.9166667 L140.15625,37.9085417 C140.381719,37.9105729 140.607187,37.9166667 140.833333,37.9166667 L140.833333,35.2083333 L140.833333,35.2083333 Z" id="Fill-1" fill="#FFFFFF" mask="url(#mask-2)"></path>
                <polygon id="Fill-3" fill="#FFFFFF" mask="url(#mask-2)" points="8.125 129.959375 132.708333 129.959375 132.708333 105.625 8.125 105.625"></polygon>
                <polygon id="Fill-4" fill="#FFFFFF" mask="url(#mask-2)" points="8.125 129.959375 101.5625 129.959375 101.5625 105.625 8.125 105.625"></polygon>
            </g>
        </g>
    </g>
</svg>