<?xml version="1.0" encoding="UTF-8"?>
<svg width="145px" height="80px" viewBox="0 0 145 80" version="1.1" xmlns="http://www.w3.org/2000/svg" xmlns:xlink="http://www.w3.org/1999/xlink">
    <!-- Generator: Sketch 42 (36781) - http://www.bohemiancoding.com/sketch -->
    <title>truck_C</title>
    <desc>Created with Sketch.</desc>
    <defs>
        <polygon id="path-1" points="0.0387263339 79.9956971 144.578313 79.9956971 144.578313 0 0.0387263339 0"></polygon>
    </defs>
    <g id="D_Network_BK" stroke="none" stroke-width="1" fill="none" fill-rule="evenodd">
        <g id="Industry-Club" transform="translate(-1061.000000, -477.000000)">
            <g id="truck_C" transform="translate(1061.000000, 477.000000)">
                <mask id="mask-2" fill="white">
                    <use xlink:href="#path-1"></use>
                </mask>
                <g id="Clip-2"></g>
                <path d="M121.342513,77.4526678 C118.495482,77.4526678 116.179002,75.1361876 116.179002,72.2891566 C116.179002,69.4421256 118.495482,67.1256454 121.342513,67.1256454 C124.189544,67.1256454 126.506024,69.4421256 126.506024,72.2891566 C126.506024,75.1361876 124.189544,77.4526678 121.342513,77.4526678 Z M121.342513,64.5438898 C117.071644,64.5438898 113.597246,68.0182874 113.597246,72.2891566 C113.597246,76.5600258 117.071644,80.0344234 121.342513,80.0344234 C125.613382,80.0344234 129.08778,76.5600258 129.08778,72.2891566 C129.08778,68.0182874 125.613382,64.5438898 121.342513,64.5438898 Z M23.2358003,77.4526678 C20.3887694,77.4526678 18.0722892,75.1361876 18.0722892,72.2891566 C18.0722892,69.4421256 20.3887694,67.1256454 23.2358003,67.1256454 C26.0828313,67.1256454 28.3993115,69.4421256 28.3993115,72.2891566 C28.3993115,75.1361876 26.0828313,77.4526678 23.2358003,77.4526678 Z M23.2358003,64.5438898 C18.9649312,64.5438898 15.4905336,68.0182874 15.4905336,72.2891566 C15.4905336,76.5600258 18.9649312,80.0344234 23.2358003,80.0344234 C27.5066695,80.0344234 30.9810671,76.5600258 30.9810671,72.2891566 C30.9810671,68.0182874 27.5066695,64.5438898 23.2358003,64.5438898 Z M108.433735,49.0533563 L141.996558,49.0533563 L141.996558,38.7263339 L108.433735,38.7263339 L108.433735,49.0533563 Z M108.433735,36.1445783 L113.597246,36.1445783 L113.597246,15.4905336 L108.433735,15.4905336 L108.433735,36.1445783 Z M116.179002,15.4905336 L129.94815,15.4905336 L141.622203,36.1445783 L116.179002,36.1445783 L116.179002,15.4905336 Z M131.454604,12.908778 L105.851979,12.908778 L105.851979,51.6351119 L144.578313,51.6351119 L144.578313,36.1277969 L131.454604,12.908778 Z M112.798838,59.3803787 C110.841222,60.6815835 109.16889,62.4333046 107.934811,64.5438898 L36.644148,64.5438898 C35.4100688,62.4333046 33.7370912,60.6815835 31.779475,59.3803787 L112.798838,59.3803787 Z M0,59.3803787 L14.6921256,59.3803787 C12.7345095,60.6815835 11.0621773,62.4333046 9.82809811,64.5438898 L0,64.5438898 L0,67.1256454 L11.3726334,67.1256454 L11.7347246,66.4305077 C13.9627797,62.1480207 18.4776248,59.3803787 23.2358003,59.3803787 C27.9946213,59.3803787 32.508821,62.1480207 34.7375215,66.4305077 L35.0989673,67.1256454 L109.479346,67.1256454 L109.841437,66.4305077 C112.069492,62.1480207 116.584337,59.3803787 121.342513,59.3803787 C126.101334,59.3803787 130.615534,62.1480207 132.843589,66.4305077 L133.20568,67.1256454 L144.578313,67.1256454 L144.578313,64.5438898 L134.750861,64.5438898 C133.516136,62.4333046 131.843804,60.6815835 129.886188,59.3803787 L144.578313,59.3803787 L144.578313,56.7986231 L0,56.7986231 L0,59.3803787 L0,59.3803787 Z" id="Fill-1" fill="#FFFFFF" mask="url(#mask-2)"></path>
                <polygon id="Fill-3" fill="#FFFFFF" mask="url(#mask-2)" points="0.0387263339 51.6351119 100.688468 51.6351119 100.688468 0 0.0387263339 0"></polygon>
                <polygon id="Fill-4" fill="#FFFFFF" mask="url(#mask-2)" points="0.0387263339 51.6351119 100.688468 51.6351119 100.688468 12.908778 0.0387263339 12.908778"></polygon>
            </g>
        </g>
    </g>
</svg>