<?xml version="1.0" encoding="UTF-8"?>
<svg width="107px" height="130px" viewBox="0 0 107 130" version="1.1" xmlns="http://www.w3.org/2000/svg" xmlns:xlink="http://www.w3.org/1999/xlink">
    <!-- Generator: Sketch 42 (36781) - http://www.bohemiancoding.com/sketch -->
    <title>umbrella_C</title>
    <desc>Created with Sketch.</desc>
    <defs>
        <polygon id="path-1" points="0.0421773612 129.343908 106.849315 129.343908 106.849315 0.0281182408 0.0421773612 0.0281182408"></polygon>
    </defs>
    <g id="D_Network_BK" stroke="none" stroke-width="1" fill="none" fill-rule="evenodd">
        <g id="Industry-Club" transform="translate(-62.000000, -39.000000)">
            <g id="umbrella_C" transform="translate(62.000000, 39.000000)">
                <g id="Group-4">
                    <mask id="mask-2" fill="white">
                        <use xlink:href="#path-1"></use>
                    </mask>
                    <g id="Clip-2"></g>
                    <path d="M57.6318493,114.664077 L57.5938897,114.702037 L57.5938897,115.284787 C57.5938897,121.486265 52.554398,126.532084 46.3599495,126.532084 C40.2561824,126.532084 35.099297,121.381525 35.099297,115.290411 L35.1098414,112.472963 C35.1098414,110.948955 36.3955479,109.661139 37.9174477,109.661139 C39.4442682,109.661139 40.7334895,110.948955 40.7334895,112.468043 L40.7229452,115.322747 C40.7229452,118.423486 43.2479632,120.946395 46.3508111,120.946395 C49.4494412,120.946395 51.9702415,118.423486 51.9702415,115.322747 L51.9702415,106.497837 L57.6086518,106.497837 C57.6437996,109.948648 57.6599676,113.437419 57.6318493,114.664077 Z M60.4057138,105.075757 L60.3895458,103.686013 L56.1879776,103.686013 L56.1879776,0 L53.3761536,0 L53.3761536,103.686013 L49.1584174,103.686013 L49.1584174,115.322747 C49.1584174,116.846756 47.8727109,118.134571 46.3508111,118.134571 C44.8239906,118.134571 43.5347693,116.846756 43.5347693,115.327668 L43.5453136,112.472963 C43.5453136,109.372224 41.0202956,106.849315 37.9174477,106.849315 C34.8188176,106.849315 32.2980173,109.372224 32.2980173,112.46734 L32.287473,115.284787 C32.287473,123.036986 38.600721,129.343908 46.3599495,129.343908 C54.104416,129.343908 60.4057138,123.036986 60.4057138,115.284787 L60.3951694,115.284787 C60.5118601,114.201532 60.482336,111.688464 60.4057138,105.075757 L60.4057138,105.075757 Z" id="Fill-1" fill="#FFFFFF" mask="url(#mask-2)"></path>
                    <path d="M105.166438,45.6921413 C103.945404,40.7714492 102.07765,36.553713 99.6840844,32.3359769 C96.7745494,26.7123288 93.072783,22.4945926 88.7425739,18.9798125 C79.326478,10.5443403 66.9685112,5.44158255 53.4246575,5.44158255 C39.8808039,5.44158255 27.5228371,10.5443403 18.1060382,18.9798125 C13.7765321,22.4945926 10.0747657,26.7123288 7.16523071,32.3359769 C4.77166547,36.553713 2.90391132,40.7714492 1.68357967,45.6921413 C0.584156453,49.9098774 0,54.1276136 0,59.0483057 L106.849315,59.0483057 C106.849315,54.1276136 106.264456,49.9098774 105.166438,45.6921413" id="Fill-3" fill="#FFFFFF" mask="url(#mask-2)"></path>
                </g>
                <path d="M53.4246575,5.44158255 C39.8808039,5.44158255 27.5228371,10.5443403 18.1060382,18.9798125 L88.7425739,18.9798125 C79.326478,10.5443403 66.9685112,5.44158255 53.4246575,5.44158255" id="Fill-5" fill="#FFFFFF"></path>
                <path d="M88.7425739,18.9798125 L18.1060382,18.9798125 C13.7765321,22.4945926 10.0747657,26.7123288 7.16523071,32.3359769 L99.6840844,32.3359769 C96.7745494,26.7123288 93.072783,22.4945926 88.7425739,18.9798125" id="Fill-6" fill="#FFFFFF"></path>
                <path d="M99.6840844,32.3359769 L7.16523071,32.3359769 C4.77166547,36.553713 2.90391132,40.7714492 1.68357967,45.6921413 L105.166438,45.6921413 C103.945404,40.7714492 102.07765,36.553713 99.6840844,32.3359769" id="Fill-7" fill="#FFFFFF"></path>
            </g>
        </g>
    </g>
</svg>